<svg width="26" height="25" viewBox="0 0 26 25" fill="none" xmlns="http://www.w3.org/2000/svg">
<path d="M24.556 10.3267L14.3586 10.3262C13.9083 10.3262 13.5433 10.6911 13.5433 11.1414V14.399C13.5433 14.8491 13.9083 15.2142 14.3586 15.2142H20.1011C19.4723 16.8461 18.2987 18.2127 16.8013 19.0811L19.2499 23.3197C23.1778 21.0481 25.5 17.0624 25.5 12.6006C25.5 11.9653 25.4532 11.5111 25.3595 10.9998C25.2883 10.6112 24.951 10.3267 24.556 10.3267Z" fill="#167EE6"/>
<path d="M12.9984 20.1087C10.1881 20.1087 7.73475 18.5733 6.4171 16.3011L2.17847 18.7442C4.33548 22.4826 8.37626 25 12.9984 25C15.2659 25 17.4054 24.3895 19.2485 23.3256V23.3198L16.7999 19.081C15.6798 19.7306 14.3837 20.1087 12.9984 20.1087Z" fill="#12B347"/>
<path d="M19.25 23.3254V23.3196L16.8014 19.0808C15.6813 19.7304 14.3853 20.1085 12.9999 20.1085V24.9998C15.2673 24.9998 17.407 24.3893 19.25 23.3254Z" fill="#0F993E"/>
<path d="M5.39138 12.4999C5.39138 11.1147 5.76941 9.81875 6.41889 8.69879L2.18025 6.25574C1.11046 8.09298 0.5 10.2267 0.5 12.4999C0.5 14.7731 1.11046 16.9068 2.18025 18.744L6.41889 16.301C5.76941 15.181 5.39138 13.8851 5.39138 12.4999Z" fill="#FFD500"/>
<path d="M12.9984 4.89128C14.831 4.89128 16.5143 5.54245 17.8291 6.62559C18.1535 6.89278 18.625 6.87349 18.9221 6.57638L21.2302 4.26828C21.5673 3.93118 21.5433 3.37937 21.1832 3.06697C18.9803 1.1559 16.114 0 12.9984 0C8.37626 0 4.33548 2.51742 2.17847 6.25577L6.4171 8.69882C7.73475 6.42672 10.1881 4.89128 12.9984 4.89128Z" fill="#FF4B26"/>
<path d="M17.8306 6.6256C18.155 6.89278 18.6265 6.87349 18.9236 6.57638L21.2317 4.26829C21.5688 3.93118 21.5447 3.37937 21.1847 3.06697C18.9818 1.15585 16.1155 0 12.9999 0V4.89128C14.8324 4.89128 16.5158 5.54245 17.8306 6.6256Z" fill="#D93F21"/>
</svg>
