<svg width="71" height="70" viewBox="0 0 71 70" fill="none" xmlns="http://www.w3.org/2000/svg">
<circle cx="35.6504" cy="35" r="34.25" fill="#EE7213" stroke="#EE7213" stroke-width="1.5"/>
<path d="M43.4282 33.8889C43.4282 35.6469 42.9069 37.3655 41.9302 38.8273C40.9534 40.289 39.5652 41.4284 37.9409 42.1011C36.3167 42.7739 34.5294 42.9499 32.8052 42.607C31.0809 42.264 29.497 41.4174 28.2539 40.1743C27.0108 38.9311 26.1642 37.3473 25.8212 35.623C25.4782 33.8987 25.6542 32.1115 26.327 30.4873C26.9998 28.863 28.1391 27.4748 29.6009 26.498C31.0627 25.5213 32.7812 25 34.5393 25C36.8968 25 39.1577 25.9365 40.8247 27.6035C42.4917 29.2705 43.4282 31.5314 43.4282 33.8889Z" stroke="white" stroke-width="3" stroke-linecap="round" stroke-linejoin="round"/>
<path d="M45.6498 44.9998L40.8164 40.1665" stroke="white" stroke-width="3" stroke-linecap="round" stroke-linejoin="round"/>
</svg>
