<svg width="129" height="41" viewBox="0 0 129 41" fill="none" xmlns="http://www.w3.org/2000/svg">
<rect width="128.092" height="40.9759" rx="20.4879" fill="#FAFAFA"/>
<g clip-path="url(#clip0_188_2276)">
<rect x="88.8105" y="5.0885" width="29.1892" height="29.1892" rx="14.5946" transform="rotate(-0.173721 88.8105 5.0885)" fill="#FFE75C"/>
<path d="M111.307 34.6926C111.412 35.114 111.42 35.5541 111.33 35.979C111.24 36.4042 111.054 36.8031 110.787 37.146C110.52 37.4886 110.179 37.7664 109.789 37.9577C109.399 38.149 108.971 38.2491 108.536 38.2504L102.599 38.2684L99.8228 39.8336L99.8226 39.7506C98.5564 39.7544 97.8289 39.3415 98.3752 34.6903C98.1222 33.3834 96.9442 28.2392 96.2891 24.4012C95.6973 20.8951 97.001 19.6042 100.607 17.5591C102.129 12.988 106.115 13.2457 106.891 15.9833C107.667 18.7208 110.235 30.3577 111.307 34.6926Z" fill="#66BCFF"/>
<path d="M111.305 34.6925C110.759 32.4524 109.792 28.304 108.887 24.4252L104.237 24.0864L100.654 26.6296L98.5864 29.4173L97.5322 30.8527C97.9112 32.6367 98.2268 34.0887 98.3532 34.711C97.8068 39.3622 98.5346 39.7751 99.8007 39.7713L103.47 38.2034L111.979 37.5757C111.768 36.6422 111.537 35.6674 111.305 34.6925Z" fill="#EB459F"/>
<path d="M101.786 32.3847C102.043 30.8355 101.903 29.5216 101.473 29.4502C101.043 29.3789 100.487 30.577 100.229 32.1265C99.9721 33.6757 100.112 34.9894 100.542 35.0607C100.971 35.1321 101.528 33.934 101.786 32.3847Z" fill="black"/>
<path d="M99.0619 28.5441C99.2683 28.1698 99.4957 27.7955 99.723 27.4627C102.058 24.0723 104.255 23.1523 106.373 23.1459L109.009 23.1379C109.048 23.1388 109.087 23.1491 109.121 23.1677C109.156 23.1862 109.186 23.2129 109.208 23.2452C109.23 23.2775 109.245 23.3147 109.25 23.3537C109.255 23.3927 109.251 23.4323 109.238 23.4693L108.888 24.4252C104.841 24.4375 103.408 24.3173 100.056 27.8561L98.5873 29.4173L99.0619 28.5441Z" fill="#D11583"/>
<path d="M100.056 27.9807C98.6665 28.234 97.5686 28.9638 96.9498 30.2526C96.774 30.6102 96.5197 30.9231 96.2053 31.1682L92.4774 33.8986C92.0584 34.198 91.7671 34.6437 91.6609 35.1476C91.5549 35.6514 91.6418 36.1767 91.9044 36.6195C92.0876 36.9303 92.3493 37.1873 92.6631 37.3649C92.9771 37.5424 93.3321 37.6344 93.6926 37.6312L95.2493 37.6265C98.4819 35.8108 99.9727 34.5816 100.739 33.8736C101.504 33.1655 102.352 31.8968 102.202 30.4443C102.052 28.9917 101.633 27.6853 100.056 27.9807Z" fill="white"/>
<path d="M101.186 17.2461C100.686 16.4173 100.018 15.3192 99.7674 14.8011C99.5167 14.2829 98.9151 14.4093 99.7732 16.7314C97.6951 15.949 97.2601 16.2409 97.1572 16.5318C97.0543 16.8227 97.5114 16.9666 98.3847 17.4621C99.258 17.9576 100.194 18.5568 100.194 18.5568L101.186 17.2461Z" fill="#66BCFF"/>
<path d="M103.345 17.3018C103.697 16.8648 103.82 16.387 103.612 16.2216C103.404 16.0562 103.175 16.1399 102.865 16.556C102.732 16.7251 102.587 16.8852 102.431 17.0347C102.079 17.3679 102.163 17.6167 102.329 17.7615C102.496 17.9063 102.993 17.7387 103.345 17.3018Z" fill="black"/>
<path d="M106.869 16.0041C106.869 16.0041 104.396 14.8907 103.335 14.209C102.274 13.5272 101.732 12.5118 102.208 12.2405C102.685 11.9692 103.6 12.6099 104.246 13.4382C104.221 11.9645 104.469 11.6525 104.863 11.6305C105.258 11.6085 105.301 12.1896 105.324 13.0198C105.347 13.85 105.494 14.1817 106.118 14.7402C106.492 15.0747 106.754 15.5158 106.869 16.0041Z" fill="#3442D9"/>
<path d="M97.8196 22.9228C97.2384 22.9245 96.7388 22.4279 97.1928 21.5547C97.6468 20.6815 99.1384 19.8052 99.8639 19.4709C100.589 19.1366 100.923 19.4677 100.944 19.7167C100.966 19.9657 100.863 20.3397 100.346 21.0055C99.829 21.6713 98.8782 22.9195 97.8196 22.9228Z" fill="white"/>
<path d="M98.2767 22.8592L97.9242 22.9225L97.4209 21.222L97.7105 20.9098L98.2767 22.8592Z" fill="#8CD9FF"/>
<path d="M99.5595 21.9419L99.27 22.2334L98.6823 20.1387L98.993 19.9302L99.5595 21.9419Z" fill="#8CD9FF"/>
<path d="M100.718 20.4855L100.449 20.8599L100.029 19.4082L100.382 19.3449L100.718 20.4855Z" fill="#8CD9FF"/>
<path d="M100.258 19.1584C100.643 19.3408 101.038 19.4992 101.443 19.6323" stroke="black" stroke-linecap="round" stroke-linejoin="round"/>
<path d="M109.539 27.1632C109.14 26.8493 108.653 26.6691 108.147 26.6485C107.067 26.6517 106.469 27.7122 106.264 28.7299C106.231 28.8931 106.143 29.0399 106.015 29.1462C105.887 29.2524 105.726 29.3112 105.56 29.3132L105.415 29.3136C105.321 29.2967 105.232 29.261 105.152 29.2086C105.073 29.1563 105.005 29.0884 104.952 29.0091C104.899 28.9297 104.863 28.8406 104.846 28.747C104.829 28.6533 104.831 28.5572 104.852 28.4643C105.24 26.4912 106.523 25.2212 108.142 25.2163C108.41 25.2188 108.669 25.3122 108.877 25.4814C109.085 25.6503 109.229 25.8851 109.287 26.1468L109.539 27.1632Z" fill="white"/>
<path d="M111.307 34.6925C111.353 34.878 111.361 35.071 111.331 35.2595C111.3 35.4483 111.232 35.6289 111.129 35.7903C111.027 35.9517 110.893 36.0905 110.735 36.1985C110.577 36.3067 110.399 36.3816 110.212 36.4187L109.693 36.4618C108.51 36.4653 107.283 35.7633 106.324 34.5416C106.267 34.4654 106.225 34.3787 106.201 34.2864C106.177 34.1939 106.172 34.0978 106.185 34.0034C106.198 33.9089 106.23 33.8179 106.278 33.7357C106.327 33.6534 106.391 33.5816 106.467 33.5241C106.542 33.4638 106.628 33.4196 106.721 33.394C106.814 33.3686 106.911 33.3623 107.006 33.3755C107.102 33.3889 107.193 33.4214 107.275 33.4716C107.358 33.5216 107.429 33.5878 107.484 33.6663C108.151 34.5153 108.962 35.0317 109.689 35.0295C110.415 35.0273 110.85 34.6109 111.16 34.0703C111.202 34.2985 111.264 34.5058 111.307 34.6925Z" fill="#2331B5"/>
<path d="M109.897 28.7604C109.75 28.7617 109.608 28.8084 109.489 28.8943C109.37 28.9802 109.281 29.1011 109.234 29.2398L108.369 31.588C108.294 31.8085 108.296 32.0482 108.376 32.2671C108.456 32.4861 108.609 32.6708 108.809 32.7906C108.899 32.8457 109.001 32.8801 109.106 32.8905C109.212 32.9012 109.318 32.8878 109.418 32.8516C109.517 32.8154 109.608 32.7572 109.682 32.6814C109.756 32.6057 109.812 32.5142 109.845 32.4138L110.401 30.8969C110.254 30.2123 110.086 29.5071 109.897 28.7604Z" fill="#5865F2"/>
<path d="M108.81 32.7905C108.61 32.6707 108.457 32.486 108.377 32.267C108.297 32.0481 108.295 31.8084 108.37 31.5879L108.617 30.9437C108.659 30.8313 108.724 30.7291 108.808 30.6442C108.893 30.5595 108.995 30.494 109.107 30.4521C109.219 30.4105 109.339 30.3935 109.459 30.4025C109.578 30.4115 109.694 30.4462 109.799 30.5042C109.97 30.6035 110.101 30.759 110.17 30.9446C110.239 31.1299 110.241 31.3333 110.176 31.5201L109.846 32.4137C109.813 32.5141 109.757 32.6055 109.683 32.6813C109.608 32.7571 109.518 32.8153 109.419 32.8515C109.319 32.8877 109.213 32.9011 109.107 32.8904C109.002 32.88 108.9 32.8458 108.81 32.7905Z" fill="#FFE75C"/>
</g>
<g clip-path="url(#clip1_188_2276)">
<rect x="73.2422" y="5.13574" width="29.1892" height="29.1892" rx="14.5946" transform="rotate(-0.173721 73.2422 5.13574)" fill="#3442D9"/>
<path d="M79.7526 16.5869C78.893 13.7666 78.4323 12.4188 79.9657 11.5839C81.4992 10.7489 86.1711 11.2952 88.3522 11.8075C90.5332 12.3198 90.8462 12.8586 89.4205 15.0008L79.7526 16.5869Z" fill="#FFF4B3"/>
<path d="M78.8324 41.9754C78.4749 33.5907 78.6613 26.6159 78.9199 22.8996C77.5264 21.9905 76.8808 21.2868 76.6098 20.8932C76.5535 20.8174 76.5246 20.7247 76.5282 20.6303C76.5317 20.536 76.5671 20.4456 76.629 20.3742C78.8208 17.6069 80.7023 15.1934 82.6708 14.0666C84.6393 12.9397 87.3368 12.641 91.6464 16.9038C91.6877 16.9584 91.7082 17.0259 91.7047 17.0942C91.7011 17.1627 91.6735 17.2275 91.6268 17.2775C91.2866 17.6173 90.9272 17.9372 90.5503 18.2356C91.4268 19.7897 92.7001 22.1521 92.7001 22.1521L93.6965 22.1491C94.3349 22.1471 94.9482 22.3989 95.4011 22.8492C95.8541 23.2993 96.1096 23.9109 96.1115 24.5495C96.1381 26.4799 95.6886 28.806 94.8051 31.7976C98.8002 35.0236 97.8454 41.897 97.8454 41.897L78.8324 41.9754Z" fill="#29CC7A"/>
<path d="M94.8052 31.7975C94.9284 31.3613 95.0518 30.9665 95.1543 30.5511L92.0253 32.3041C92.0253 32.3041 87.0544 28.9773 78.7246 26.9269C78.5911 30.7881 78.5862 36.0188 78.8325 41.9753L97.8456 41.9177C97.8456 41.9177 98.8003 35.0235 94.8052 31.7975Z" fill="#8CD9FF"/>
<path d="M95.5968 32.5632C95.3539 32.2873 95.0893 32.0313 94.8057 31.7976C94.9289 31.3613 95.0522 30.9666 95.1548 30.5511L92.0258 32.3042C92.0258 32.3042 87.0548 28.9774 78.7251 26.927C78.7058 27.4045 78.6866 27.9234 78.6882 28.4424C85.0685 31.0591 88.507 35.5737 88.9207 41.9448L93.6325 41.9305C94.4517 38.2748 95.1062 35.0763 95.5968 32.5632Z" fill="#BAE8FF"/>
<path d="M81.2303 24.4908L81.3134 24.4906C81.3548 24.4489 81.3962 24.428 81.4168 24.3657L83.2049 18.5276C83.2169 18.5031 83.2237 18.4763 83.2242 18.4489C83.2247 18.4217 83.2195 18.3945 83.2084 18.3696C83.1975 18.3445 83.1811 18.3222 83.1607 18.3042C83.1401 18.2862 83.1159 18.273 83.0896 18.2654C83.0634 18.2578 83.0358 18.256 83.0088 18.26C82.9818 18.2642 82.9561 18.2743 82.9333 18.2895C82.9107 18.3047 82.8917 18.3247 82.8775 18.3482C82.8634 18.3715 82.8546 18.3977 82.8517 18.4249L81.1253 24.076C80.3711 23.757 79.6474 23.37 78.9631 22.9202L78.9216 22.9203C78.922 23.0448 78.9016 23.1902 78.902 23.3147C79.6206 23.774 80.379 24.1677 81.1681 24.491L81.2303 24.4908Z" fill="black"/>
<path d="M88.9231 15.0854L81.4938 15.6476C89.8013 17.1999 90.1548 17.4272 88.9231 15.0854Z" fill="black"/>
<path d="M87.0826 20.49C87.3691 20.3733 87.4191 19.831 87.1941 19.2789C86.9691 18.7271 86.5545 18.3742 86.2678 18.4909C85.9811 18.6078 85.9313 19.1499 86.1563 19.702C86.3811 20.2541 86.7959 20.6069 87.0826 20.49Z" fill="black"/>
<path d="M89.2246 21.6311C89.5926 20.9309 89.5455 20.1817 89.1193 19.9578C88.6931 19.7337 88.0493 20.1199 87.6812 20.8199C87.3132 21.5201 87.3605 22.2692 87.7865 22.4934C88.2127 22.7173 88.8566 22.3313 89.2246 21.6311Z" stroke="white" stroke-miterlimit="10"/>
<path d="M92.2811 21.626C92.6491 20.926 92.602 20.1769 92.1758 19.9527C91.7496 19.7288 91.1058 20.1148 90.7379 20.815C90.3699 21.5152 90.417 22.2644 90.8432 22.4883C91.2694 22.7122 91.9131 22.3263 92.2811 21.626Z" stroke="white" stroke-miterlimit="10"/>
<path d="M90.1789 20.3804C90.3701 20.3026 90.3497 19.8092 90.1333 19.2783C89.917 18.7476 89.5867 18.3804 89.3956 18.4584C89.2046 18.5362 89.225 19.0295 89.4413 19.5604C89.6577 20.0911 89.988 20.4584 90.1789 20.3804Z" fill="black"/>
<path d="M92.1722 25.8068C90.5696 25.8169 89.0128 25.2716 87.7671 24.2634C86.4769 23.2088 86.9955 23.0826 87.8049 23.0594C88.6144 23.0362 92.4963 23.1697 93.6177 23.3324C94.739 23.4951 94.9533 25.7154 92.1722 25.8068Z" fill="#912869"/>
<path d="M92.1722 25.8068C90.5696 25.8169 89.0128 25.2716 87.7671 24.2634C86.4769 23.2088 86.9955 23.0826 87.8049 23.0594C88.6144 23.0362 92.4963 23.1697 93.6177 23.3324C94.739 23.4951 94.9533 25.7154 92.1722 25.8068Z" fill="#611B46"/>
<path d="M92.0966 28.1319L92.0112 27.3641C92.5974 27.3156 93.1684 27.1516 93.6911 26.8816" stroke="black" stroke-linecap="round" stroke-linejoin="round"/>
<path d="M92.9396 25.7007C91.8154 24.6248 90.2978 23.8199 87.4962 24.0152C89.9107 26.2288 92.4211 25.8476 92.9396 25.7007Z" fill="#EB459F"/>
<path d="M89.3555 20.896L90.6216 20.8922" stroke="white" stroke-miterlimit="10"/>
<path d="M87.4456 21.1508L82.0837 18.9876C81.9713 18.9443 81.8501 18.9291 81.7305 18.9428C81.6108 18.9566 81.4964 18.9991 81.3965 19.0667C81.2969 19.1342 81.215 19.225 81.158 19.331C81.1008 19.437 81.0702 19.5552 81.0687 19.6756C81.0667 19.8174 81.1074 19.9563 81.1856 20.0746C81.2636 20.1927 81.3755 20.2847 81.5066 20.3385L81.86 20.5035" stroke="white" stroke-miterlimit="10" stroke-linecap="round"/>
<path d="M86.3169 18.4351C86.7381 18.4446 87.1585 18.3873 87.5618 18.2653" stroke="black" stroke-miterlimit="10" stroke-linecap="round"/>
<path d="M89.4302 18.4257C89.6957 18.4317 89.9589 18.3741 90.1977 18.2573" stroke="black" stroke-miterlimit="10" stroke-linecap="round"/>
<path d="M80.4564 15.8583C87.8662 15.732 90.3753 14.8941 92.4901 14.1197C94.605 13.3453 94.3956 12.744 92.7767 12.8112C91.1579 12.8783 85.6223 15.0123 80.4564 15.8583Z" fill="#FFF4B3"/>
<path d="M80.4568 15.8583L82.9885 15.643L89.0666 14.4207L87.5468 12.9308L80.3027 12.9528L80.4568 15.8583Z" fill="#FFF4B3"/>
<path d="M92.7462 23.4802L91.293 23.4016C91.4617 24.2729 91.8782 24.7283 92.2306 24.5819C92.583 24.4355 92.7052 23.6672 92.7462 23.4802Z" fill="white"/>
<path d="M88.2617 23.307C88.4515 24.3028 88.8267 24.8205 89.1791 24.6534C89.5315 24.4863 89.612 23.6558 89.6732 23.3235L88.2617 23.307Z" fill="white"/>
<path d="M89.9133 13.4426C86.7167 14.3094 83.4762 15.0052 80.2054 15.527" stroke="#FFC619" stroke-width="2" stroke-miterlimit="10" stroke-linecap="round"/>
</g>
<g clip-path="url(#clip2_188_2276)">
<rect x="51.8398" y="6.17358" width="29.1892" height="29.1892" rx="14.5946" transform="rotate(-0.173721 51.8398 6.17358)" fill="#7196FF"/>
<path d="M62.815 31.0908L62.1758 31.7285L66.846 36.3314L67.4853 35.6935L62.815 31.0908Z" fill="#2E3338"/>
<path d="M65.7253 31.0889L65.0859 31.7266L69.7561 36.3293L70.3955 35.6916L65.7253 31.0889Z" fill="#2E3338"/>
<path d="M70.9684 30.274C72.1705 29.0691 72.912 27.4868 73.0652 25.799C73.2184 24.111 72.7738 22.423 71.8079 21.0249L68.7781 16.6356L65.2097 16.6464L65.2267 22.2568C65.2282 22.7442 65.0342 23.2122 64.6878 23.5579C64.3412 23.9035 63.8704 24.0985 63.3789 24.1L57.6417 24.1174L57.6456 25.3881C57.6512 27.2564 58.4038 29.046 59.7383 30.3649C61.0728 31.6838 62.8804 32.4242 64.7646 32.4236L65.8095 32.4204C67.7454 32.3984 69.5963 31.6284 70.9684 30.274Z" fill="#FFD836"/>
<path d="M68.7737 14.5833C69.7201 14.5804 70.6288 14.9505 71.3001 15.612C71.9713 16.2735 72.35 17.1723 72.3528 18.1108L72.3556 19.0295L65.2186 19.0512L65.2157 18.1129C65.2182 17.1778 65.5937 16.2817 66.2605 15.6203C66.9271 14.959 67.8306 14.5861 68.7737 14.5833Z" fill="#FFD836"/>
<path d="M73.3951 17.7165C73.5674 17.8844 73.7036 18.0851 73.7957 18.3066C73.8879 18.528 73.9341 18.7656 73.9313 19.0051L70.5205 19.0155C70.3938 19.0133 70.2703 18.9745 70.1656 18.9038C70.0607 18.8331 69.979 18.7335 69.9305 18.6174C69.882 18.5012 69.8687 18.3735 69.8924 18.25C69.9161 18.1265 69.9756 18.0125 70.0637 17.9221L70.7518 17.2358L70.7488 16.2584C70.7483 16.1321 70.7971 16.0105 70.885 15.9191C70.973 15.8278 71.0932 15.7737 71.2204 15.7683C71.3504 15.7748 71.4749 15.8224 71.5757 15.904L73.3951 17.7165Z" fill="#FF9A15"/>
<path d="M68.7734 14.5831L67.7284 14.5862C66.4423 14.5885 65.2076 14.0863 64.2937 13.1891L63.7793 12.6238L63.7804 12.9757C63.7838 14.1163 64.2441 15.2088 65.0601 16.0128C65.8758 16.8169 66.9805 17.2667 68.1308 17.2632L68.7617 17.2613L68.7734 14.5831Z" fill="#FFD836"/>
<path d="M63.7109 16.2014L66.5696 16.1927L66.5782 19.0273L63.7109 16.2014Z" fill="#FFD836"/>
<path d="M59.3061 26.8493C59.8427 27.9769 60.7967 28.8561 61.9701 29.3043C63.1434 29.7525 64.4459 29.7353 65.6068 29.2561C66.7676 28.7771 67.6978 27.8729 68.204 26.7315C68.7101 25.5901 68.7533 24.2993 68.3246 23.1273L59.3061 26.8493Z" fill="#FF9A15"/>
<path d="M54.4785 20.9993L56.7134 23.2992C57.0067 23.5846 57.2402 23.9248 57.4004 24.3001C57.5607 24.6754 57.6443 25.0784 57.6467 25.4858L59.2436 25.481L59.2402 24.3669C59.2365 23.7441 59.0246 23.1403 58.6379 22.6498C58.2511 22.1593 57.7113 21.8098 57.1027 21.656L54.4785 20.9993Z" fill="#FFD836"/>
<path d="M58.69 24.8181L58.5131 24.9945C58.4405 25.064 58.3489 25.1107 58.2497 25.1287C58.1504 25.1468 58.048 25.1355 57.9554 25.0961C57.8625 25.0567 57.7836 24.9911 57.7284 24.9074C57.6731 24.8238 57.6439 24.7258 57.6445 24.6257L57.6289 19.4845L58.6769 20.5175C59.247 21.0896 59.5678 21.8607 59.5703 22.665C59.5727 23.4694 59.2566 24.2425 58.69 24.8181Z" fill="#FFD836"/>
<path d="M68.9972 17.2606C69.2477 17.2599 69.4501 17.058 69.4494 16.8097C69.4486 16.5613 69.245 16.3607 68.9945 16.3614C68.744 16.3622 68.5416 16.5641 68.5424 16.8124C68.5431 17.0607 68.7467 17.2614 68.9972 17.2606Z" fill="#202225"/>
</g>
<g clip-path="url(#clip3_188_2276)">
<rect x="30.9238" y="6.72339" width="29.1892" height="29.1892" rx="14.5946" transform="rotate(-0.173721 30.9238 6.72339)" fill="#FF78B9"/>
<path d="M54.7233 40.9592C55.7089 38.8764 53.0388 35.5464 48.7593 33.521C44.4799 31.4957 40.2116 31.5423 39.226 33.6251C38.2403 35.7077 40.9104 39.0379 45.19 41.0633C49.4693 43.0884 53.7376 43.0418 54.7233 40.9592Z" fill="black"/>
<path d="M55.2431 29.4416C53.9746 28.6567 53.9124 28.6776 53.2028 27.4136C52.4932 26.1496 51.5988 25.5296 50.5605 25.3875L51.8757 34.7033C54.5765 35.4839 56.2329 34.1089 56.6024 32.7586C56.9719 31.4083 56.5324 30.2264 55.2431 29.4416Z" fill="#3442D9"/>
<path d="M53.9801 30.67C53.6227 29.1558 52.6833 27.3943 51.5791 26.0692C51.1835 25.5905 50.9022 25.0278 50.7565 24.424C50.6108 23.8202 50.6046 23.1912 50.7383 22.5847L51.1886 20.5076C51.5054 19.066 51.3296 17.5599 50.6897 16.2298C50.0497 14.8998 48.9825 13.8226 47.6585 13.1704C46.8987 12.7992 46.0723 12.5829 45.228 12.5343C43.6391 12.4227 42.0694 12.9347 40.8518 13.9615C39.6342 14.9882 38.8646 16.449 38.7063 18.0339C38.6726 18.3024 38.6595 18.573 38.6672 18.8435L38.6699 19.7361L38.7228 23.4721C38.7729 25.1506 38.4222 26.8165 37.6996 28.3323C37.3997 28.9337 37.1718 29.5685 37.0204 30.2232L47.2031 40.9859C52.037 40.1618 55.0533 35.4823 53.9801 30.67Z" fill="#3442D9"/>
<path d="M47.2242 40.9859C52.0373 40.1618 55.0536 35.4823 53.9804 30.67C53.6439 29.2388 52.7879 27.5808 51.7669 26.297" stroke="black" stroke-miterlimit="10" stroke-linecap="round"/>
<path d="M50.7433 30.9912C51.6933 29.4108 52.0676 29.6173 53.771 30.0687C55.142 30.4175 56.728 33.2148 54.6359 34.6326C52.5437 36.0504 48.2653 35.2124 50.7433 30.9912Z" fill="#3442D9"/>
<path d="M45.9968 26.3534C46.1877 26.2065 46.2176 25.9255 46.0638 25.7255C45.91 25.5256 45.6307 25.4827 45.44 25.6294C45.2493 25.7763 45.2192 26.0572 45.373 26.2571C45.5268 26.4571 45.8061 26.5001 45.9968 26.3534Z" fill="black"/>
<path d="M48.6123 26.5077C48.803 26.361 48.8331 26.0798 48.6793 25.88C48.5255 25.6802 48.2462 25.637 48.0552 25.7839C47.8645 25.9306 47.8344 26.2118 47.9882 26.4116C48.142 26.6114 48.4213 26.6546 48.6123 26.5077Z" fill="black"/>
<path d="M48.3418 26.1829C50.5683 28.0027 49.659 29.3132 51.4522 32.0061" stroke="white" stroke-miterlimit="10" stroke-linecap="round"/>
<path d="M45.843 30.2796C47.2101 29.3206 47.6244 29.0495 48.1434 29.0687L49.4929 29.1891L49.1567 34.67L45.7315 34.5766L45.843 30.2796Z" fill="#FFC619"/>
<path d="M52.4797 28.8687C52.5055 28.7961 52.5137 28.7185 52.5044 28.6421C52.495 28.5658 52.468 28.4926 52.4257 28.4284C52.3831 28.3641 52.3265 28.3106 52.26 28.2719C52.1932 28.2333 52.1186 28.2107 52.0418 28.2058L49.7576 27.8806C49.5919 27.8634 49.4251 27.9038 49.2857 27.9949C49.1461 28.0861 49.0421 28.2223 48.9911 28.3811L47.7187 33.159C47.6931 33.2317 47.6847 33.3092 47.694 33.3855C47.7034 33.4619 47.7304 33.5351 47.7727 33.5993C47.8153 33.6635 47.8719 33.7171 47.9386 33.7557C48.0052 33.7943 48.0798 33.8169 48.1566 33.8219L50.4408 34.1471C50.6067 34.1642 50.7733 34.1239 50.9129 34.0327C51.0523 33.9416 51.1563 33.8053 51.2073 33.6466L52.4797 28.8687Z" fill="black"/>
<path d="M52.3753 28.3916L52.6253 28.6815L51.9405 28.7458L52.3753 28.3916Z" fill="black"/>
<path d="M53.5054 31.5431C53.2134 31.0666 52.9417 30.4655 52.1526 30.3433L52.0518 31.3399L53.5054 31.5431Z" fill="#FFC619"/>
<path d="M52.7103 29.1379C52.7319 29.0654 52.7373 28.989 52.726 28.9141C52.7148 28.8392 52.6874 28.7677 52.6457 28.7045C52.604 28.6413 52.549 28.5881 52.4846 28.5485C52.4201 28.5088 52.3476 28.4837 52.2724 28.475L49.9674 28.1499C49.8024 28.1365 49.6373 28.1785 49.4987 28.269C49.3599 28.3597 49.2551 28.4937 49.2009 28.6504L47.9285 33.4283C47.9069 33.5008 47.9016 33.5772 47.9128 33.6521C47.924 33.727 47.9514 33.7986 47.9931 33.8617C48.0348 33.9249 48.0898 33.9783 48.1542 34.0178C48.2189 34.0574 48.2912 34.0825 48.3664 34.0912L50.6713 34.3956C50.8329 34.4217 50.9984 34.3869 51.136 34.2985C51.2735 34.2098 51.3738 34.0738 51.4171 33.9159L52.7103 29.1379Z" fill="white"/>
<path d="M52.0099 31.0289L52.9444 31.1713C53.1338 31.1917 53.3074 31.2856 53.4282 31.4326C53.549 31.5798 53.6071 31.7686 53.5903 31.9581C53.5858 32.0567 53.5608 32.1533 53.5168 32.2417C53.4727 32.3298 53.4106 32.408 53.3346 32.4708C53.2584 32.5337 53.1702 32.5798 53.075 32.6063C52.98 32.6329 52.8804 32.6392 52.7828 32.6248L52.0975 32.5231C51.8846 32.4932 51.6876 32.3938 51.5368 32.2404C51.3863 32.0869 51.2906 31.8881 51.2646 31.6746C51.2592 31.5795 51.2757 31.4844 51.3128 31.3967C51.3499 31.309 51.4067 31.231 51.4785 31.1685C51.5506 31.1062 51.636 31.0611 51.7281 31.037C51.8202 31.0128 51.9167 31.01 52.0099 31.0289Z" fill="#FFC619"/>
<path d="M51.7028 32.4204L52.3466 32.5222C52.4544 32.5356 52.5578 32.572 52.65 32.6292C52.7421 32.6864 52.8206 32.7632 52.88 32.8537C52.9397 32.9445 52.9788 33.0471 52.9947 33.1543C53.0106 33.2616 53.0028 33.371 52.9722 33.4751C52.9285 33.6425 52.8231 33.7873 52.677 33.8801C52.531 33.9729 52.3553 34.0071 52.1849 33.9757L51.7904 33.9146C51.575 33.8856 51.3751 33.7869 51.221 33.6338C51.0669 33.4807 50.9671 33.2813 50.9368 33.0661C50.9305 32.9688 50.9472 32.8716 50.9853 32.7818C51.0237 32.6923 51.0824 32.6128 51.1569 32.5499C51.2314 32.4872 51.3195 32.4427 51.4145 32.4202C51.5093 32.3977 51.6081 32.3978 51.7028 32.4204Z" fill="#FFC619"/>
<path d="M49.6966 34.7928L47.4539 34.4882L47.555 33.5746L49.7977 33.8999L49.6966 34.7928Z" fill="#FFC619"/>
<path d="M50.2247 31.1588L48.8126 30.9555C48.7453 30.9466 48.6821 30.9183 48.6303 30.8745C48.5787 30.8304 48.5408 30.7724 48.5213 30.7073L48.3956 30.3341L48.2895 29.5664L47.5297 32.2671L49.8139 32.5923C50.0265 32.6201 50.2423 32.5754 50.4265 32.4657C50.6107 32.3559 50.7525 32.1876 50.8292 31.9872C50.8536 31.8923 50.8566 31.7931 50.8382 31.6968C50.8197 31.6006 50.7802 31.5096 50.7224 31.4305C50.6647 31.3511 50.59 31.2858 50.5041 31.2389C50.418 31.1918 50.3227 31.1645 50.2247 31.1588Z" fill="#FFC619"/>
<path d="M49.772 32.5716L47.5293 32.2671L47.6376 33.7613L49.3612 34.0051C49.5715 34.0358 49.7858 33.992 49.9673 33.8816C50.1488 33.7713 50.2861 33.6009 50.3557 33.4001C50.3838 33.3067 50.3904 33.208 50.3749 33.1116C50.3593 33.0151 50.3218 32.9237 50.2658 32.8437C50.2095 32.764 50.1358 32.698 50.0501 32.6507C49.9647 32.6036 49.8695 32.5765 49.772 32.5716Z" fill="#FFC619"/>
<path d="M65.7 41.6771C65.7555 39.4352 63.9071 39.0879 62.6385 38.303C61.37 37.5181 59.8704 35.8621 58.3103 34.7459C56.7501 33.6298 55.401 33.6547 52.7674 34.4722L55.7949 40.3164C57.4995 41.183 57.8761 42.1367 58.7933 43.4208C59.7104 44.705 60.9366 45.1994 62.1605 44.9674C62.8072 46.024 62.9325 46.2727 63.8656 45.9378C64.7986 45.6029 66.3324 44.8925 66.7439 43.6666C67.1553 42.4407 66.5527 42.2349 65.7 41.6771Z" fill="#66BCFF"/>
<path d="M55.6588 36.8712C55.3825 37.7631 55.2045 38.6823 55.1274 39.6127" stroke="black" stroke-width="2" stroke-miterlimit="10" stroke-linecap="round"/>
<path d="M56.9172 47.6609C55.0335 49.3687 53.4338 48.8961 52.6863 48.8154C51.9388 48.7346 52.0202 48.1947 51.9565 47.7382C51.8929 47.2818 51.8493 46.5969 51.8493 46.5969C49.9601 46.4781 49.7278 45.1919 49.6829 44.0504C49.6379 42.9089 49.3468 42.7437 49.199 41.9347C46.9204 41.5325 44.7651 40.6112 42.8999 39.2417C41.0347 37.8724 39.5101 36.0917 38.4438 34.0382L40.4113 32.6L44.8204 35.4511C47.7853 34.342 49.4234 33.7766 51.0213 33.6679C52.6193 33.5593 54.1986 34.1565 54.7243 36.3758C55.2499 38.5952 55.3143 39.28 55.7949 40.3372C55.9202 40.6066 56.1289 40.9796 56.3377 41.3734C56.9225 42.5547 57.5294 44.2134 56.3518 46.0228C56.4977 46.5826 56.6868 47.1305 56.9172 47.6609Z" fill="#8CD9FF"/>
<path d="M41.6726 38.2211C41.6059 36.7476 42.1632 35.7081 43.1798 35.5389L40.6005 33.7617L38.7349 34.5768C39.2163 35.9038 40.4454 37.3531 41.6726 38.2211Z" fill="black"/>
<path d="M45.8823 29.9888C45.2788 29.4717 44.8222 29.5146 44.0967 29.8282C43.3266 29.1248 42.3299 29.024 41.2932 29.38C40.2564 29.736 38.6596 30.2183 37.7263 30.4702C37.6742 30.4899 37.6176 30.494 37.5632 30.4823C37.5088 30.4705 37.4589 30.4434 37.4193 30.4043C37.38 30.365 37.3526 30.3152 37.3406 30.2609C37.3284 30.2066 37.3324 30.1499 37.3515 30.0977L38.029 27.6048C35.813 29.2721 35.0973 32.8237 35.8089 34.7519C36.5205 36.6802 39.5924 36.6501 40.5663 36.1075C41.5402 35.5648 41.8718 35.3978 42.9933 35.6019C44.1148 35.8061 44.987 35.9488 46.4574 34.8234L47.3283 34.5302C47.6546 32.6403 47.3599 31.2713 45.8823 29.9888Z" fill="#3442D9"/>
<path d="M45.8825 29.9887C45.279 29.4717 44.8225 29.5146 44.0969 29.8281C43.3268 29.1247 42.3302 29.0239 41.2934 29.38C40.2566 29.736 38.6598 30.2182 37.7265 30.4701" stroke="black" stroke-miterlimit="10" stroke-linecap="round"/>
<path d="M44.0977 29.8282C44.7191 30.3065 45.2372 30.9056 45.6209 31.5892C46.0047 32.273 46.2461 33.0274 46.3307 33.8068" stroke="black" stroke-miterlimit="10" stroke-linecap="round"/>
<path d="M50.3856 29.1865C50.3949 29.1578 50.3979 29.1275 50.3943 29.0974C50.3907 29.0676 50.3806 29.0387 50.3646 29.0132C50.3487 28.9876 50.3275 28.9656 50.3023 28.9491C50.2771 28.9326 50.2487 28.9216 50.2188 28.9172L50.0112 28.9178C49.9535 28.9053 49.8931 28.9159 49.843 28.947C49.7926 28.978 49.7564 29.0273 49.7419 29.0847L49.5571 29.7702C49.5477 29.8005 49.5453 29.8325 49.5502 29.8638C49.555 29.8952 49.567 29.9248 49.5849 29.9509C49.603 29.9768 49.627 29.9983 49.6546 30.0138C49.6823 30.0291 49.7132 30.0379 49.7448 30.0395L49.9523 30.0388C50.007 30.0457 50.0621 30.0325 50.1079 30.0018C50.1535 29.9712 50.1865 29.9252 50.2009 29.872L50.3856 29.1865Z" fill="#29CC7A"/>
<path d="M47.051 25.2112C47.2105 24.8859 47.4465 24.6042 47.7385 24.39C48.0307 24.1758 48.3705 24.0357 48.7286 23.9815C48.7701 23.9814 48.7908 23.9398 48.7699 23.9191C48.4971 22.9236 48.6199 22.3628 48.9706 21.6352C48.9741 21.63 48.9764 21.624 48.9772 21.6177C48.978 21.6114 48.9773 21.605 48.9755 21.599C48.9734 21.593 48.97 21.5875 48.9654 21.583C48.9611 21.5785 48.9557 21.5751 48.9496 21.573C47.7858 21.0784 47.3474 20.2495 47.2209 19.6271C47.2 19.5857 47.1377 19.5651 47.1171 19.6067C46.6013 20.6461 45.8957 20.6898 45.2935 20.6086C45.252 20.6087 45.2314 20.6503 45.2522 20.6709C45.8577 21.8315 45.4243 22.6631 44.8241 23.2461C44.821 23.2542 44.8194 23.263 44.8198 23.2717C44.8203 23.2805 44.8226 23.289 44.8265 23.2969C44.8305 23.3047 44.8359 23.3116 44.8428 23.3172C44.8494 23.3227 44.8573 23.3267 44.8659 23.329C46.0289 23.533 46.6539 24.2991 46.9472 25.1908C46.9681 25.2322 47.0304 25.2528 47.051 25.2112Z" fill="#FFC619"/>
<path d="M49.7715 32.5716L48.5879 32.4092" stroke="black" stroke-miterlimit="10" stroke-linecap="round"/>
<path d="M51.9316 32.5028L52.5962 32.6046" stroke="black" stroke-miterlimit="10" stroke-linecap="round"/>
<path d="M47.1792 19.5858C47.6946 18.4218 47.6507 17.6124 47.504 17.1562" stroke="black" stroke-miterlimit="10" stroke-linecap="round"/>
<path d="M48.8473 21.6149C49.1712 21.6635 49.502 21.6419 49.8168 21.5514C50.1319 21.4609 50.4236 21.3037 50.6723 21.0904" stroke="black" stroke-miterlimit="10" stroke-linecap="round"/>
<path d="M47.0525 25.2112C47.0546 25.3657 47.0341 25.5197 46.9916 25.6681" stroke="black" stroke-miterlimit="10" stroke-linecap="round"/>
<path d="M44.9293 23.2666C44.163 23.8086 43.0003 23.7291 42.1901 23.4825" stroke="black" stroke-miterlimit="10" stroke-linecap="round"/>
<path d="M45.294 20.6085C45.0015 20.0074 44.4598 19.3241 43.9609 19.0973" stroke="black" stroke-miterlimit="10" stroke-linecap="round"/>
<path d="M48.7715 23.9189C49.0397 24.061 49.3264 24.165 49.6235 24.2277" stroke="black" stroke-miterlimit="10" stroke-linecap="round"/>
<path d="M46.5434 21.705C46.9004 23.0738 47.3568 22.9894 47.5631 22.5737C47.7694 22.1579 47.9131 21.6385 48.2454 21.679C48.5776 21.7196 48.4963 22.301 48.1045 23.1325C47.7126 23.9639 47.0697 24.1527 46.4656 23.428C45.8614 22.7034 45.8385 21.9977 45.8163 21.4996C45.794 21.0015 46.3125 20.8754 46.5434 21.705Z" fill="#C40655"/>
<path d="M45.725 26.0248C45.9828 28.8884 44.5339 30.2628 44.0859 33.1078" stroke="white" stroke-miterlimit="10" stroke-linecap="round"/>
<path d="M49.0326 41.9559C48.6552 40.7324 48.4824 38.4912 49.4935 36.5162" stroke="black" stroke-width="2" stroke-miterlimit="10" stroke-linecap="round"/>
<path d="M38.536 30.2395L37.0015 30.7423" stroke="black" stroke-miterlimit="10" stroke-linecap="round"/>
<path d="M53.791 30.0063L54.8297 30.2938" stroke="black" stroke-miterlimit="10" stroke-linecap="round"/>
</g>
<g clip-path="url(#clip4_188_2276)">
<rect x="10.0039" y="6.78687" width="29.1892" height="29.1892" rx="14.5946" transform="rotate(-0.173721 10.0039 6.78687)" fill="url(#paint0_linear_188_2276)"/>
<path d="M36.5181 18.372C38.0288 12.5544 38.7602 11.5212 42.2961 19.0094L36.5181 18.372Z" fill="#D4E1FF"/>
<path d="M22.085 30.8351L21.9463 30.9552C24.0561 32.9329 27.2681 38.021 32.1297 37.7491C32.1297 37.7491 36.0818 44.9187 40.3077 44.1128C44.5337 43.306 47.6512 37.3445 47.6512 37.3445C48.79 35.2867 49.594 33.0608 50.0331 30.7504C49.972 30.2154 49.7722 29.7989 49.3946 29.5421C46.3711 27.548 24.2835 29.2221 22.085 30.8351Z" fill="#1C1B29"/>
<path d="M28.4534 16.095L32.8831 17.2717C34.1984 16.7047 35.6171 16.4169 37.0495 16.4266C43.7978 16.4061 47.4072 21.8707 47.4276 28.5958C47.448 35.3216 43.8718 40.808 37.1234 40.8285C30.3743 40.849 26.785 35.3843 26.7646 28.6584C26.7576 27.6681 26.8341 26.6789 26.9935 25.7014C27.4429 23.1205 27.3136 20.4707 26.6124 17.9456C26.5442 17.6904 26.5441 17.4217 26.6123 17.1664C26.6804 16.9111 26.8143 16.6782 27.0007 16.4908C27.187 16.3035 27.4193 16.1684 27.6742 16.0989C27.9291 16.0295 28.1978 16.0281 28.4534 16.095Z" fill="#B3CAFF"/>
<path d="M47.1978 31.5135C43.9269 32.9714 40.5481 31.4533 37.2872 29.5989C33.7276 27.5662 31.429 22.3949 30.4516 20.7513C29.4743 19.107 28.0832 18.7946 27.1237 16.3972C26.897 16.5776 26.728 16.8201 26.6372 17.0952C26.5463 17.3702 26.5378 17.6658 26.6125 17.9456C27.3131 20.4709 27.443 23.1205 26.9928 25.7022C26.8335 26.6794 26.7569 27.6683 26.7639 28.6584C26.7843 35.3843 30.3936 40.8489 37.1227 40.8285C42.8594 40.8111 46.3011 36.8326 47.1978 31.5127L47.1978 31.5135Z" fill="#8DAEF7"/>
<path d="M46.5953 29.5104C46.6111 34.7481 43.5078 39.0036 39.6764 39.0152C35.8458 39.0268 32.7359 34.7902 32.7201 29.5525C32.6938 20.9029 38.0944 27.9692 41.9258 27.9576C45.7564 27.946 46.6716 22.0908 46.5953 29.5104Z" fill="#FCFDFF"/>
<path d="M39.7783 34.5815C40.1502 34.5491 40.4074 34.0276 40.3549 33.4162C40.3016 32.8049 39.9571 32.3358 39.5859 32.3675C39.2148 32.4007 38.9568 32.9222 39.0101 33.5328C39.0634 34.1442 39.4071 34.614 39.7783 34.5815ZM44.3355 33.5544C44.4445 32.9506 44.2355 32.4072 43.8681 32.3416C43.5015 32.2752 43.1155 32.7112 43.0064 33.315C42.8982 33.918 43.1071 34.4614 43.4738 34.5278C43.8404 34.5941 44.2264 34.1582 44.3355 33.5544Z" fill="#1C1B29"/>
<path d="M59.8557 94.5831C57.0386 95.1871 48.5784 87.1778 48.5784 87.1778C50.9228 94.4711 51.3264 96.6524 51.7291 98.5356C52.1317 100.42 51.8942 100.797 51.7399 102.127C51.5849 103.456 51.5847 103.417 52.3837 105.081C53.1827 106.745 53.7029 107.914 53.8638 108.767C53.9248 109.262 53.9062 109.764 53.8089 110.254L18.3378 110.362C18.3378 110.362 18.1562 109.569 18.9041 107.364C19.6519 105.16 21.3733 103.33 22.3213 101.938C23.2701 100.546 23.2111 100.686 22.9514 100.111C21.7519 97.2974 23.6792 97.9071 24.4804 93.6786C25.2808 89.4502 25.4784 69.2927 27.2591 61.0547C29.0405 52.8159 31.7941 50.8629 31.9719 44.0577C28.6075 40.9339 20.2659 32.8045 21.9478 30.9544C23.8584 32.7342 29.5777 33.5903 34.2423 33.5368C34.6514 33.5297 35.0524 33.6518 35.3882 33.8858C35.7239 34.1198 35.9772 34.4538 36.1121 34.8401C36.9133 37.238 38.9326 41.9738 42.0871 41.3487C45.2417 40.7244 47.5662 35.0826 48.2157 33.0372C48.3526 32.5907 48.6385 32.2047 49.0256 31.9435C49.448 31.6277 49.7931 31.22 50.0345 30.7511C50.4835 34.6576 44.0237 45.0328 44.0237 45.0328C44.0237 45.0328 45.6742 59.0743 48.9041 63.6867C52.1332 68.2999 61.1653 68.2725 61.3964 72.6762C61.6283 77.079 62.6527 93.9791 59.8557 94.5831Z" fill="#BD4070"/>
<path d="M32.401 35.2082C30.0581 35.0763 26.9013 34.6889 21.832 32.1851C22.6542 35.1381 29.1251 41.388 31.9714 44.0577C31.9349 46.1684 31.5593 48.2596 30.8587 50.251C33.4299 53.8737 36.5197 51.5035 37.1067 61.6991C37.3577 66.0432 40.571 71.8064 43.9247 78.0456C47.2785 84.2848 47.7001 72.7965 47.5439 67.143C47.4551 64.068 46.8288 60.2609 46.1621 56.6324C44.7367 51.1411 44.0231 45.0328 44.0231 45.0328C44.0231 45.0328 48.5469 37.758 49.7631 33.1121C49.4535 33.3059 49.2117 33.5911 49.0713 33.9274C47.8483 36.7072 46.4783 39.42 44.9671 42.0543C43.4066 44.698 40.4928 46.0159 37.1221 40.8286C33.7523 35.6405 34.9222 35.3597 32.401 35.2082Z" fill="#A12C66"/>
<path d="M33.8405 25.483C37.3396 27.1583 38.557 29.2977 41.3556 29.2097C44.1542 29.1216 45.2414 27.7691 46.3673 25.9609C45.9079 24.9699 44.6666 27.9493 41.9272 27.9576C39.1878 27.9659 35.604 24.3068 33.8405 25.483Z" fill="#8DAEF7"/>
</g>
<defs>
<linearGradient id="paint0_linear_188_2276" x1="24.5985" y1="36.1084" x2="24.5985" y2="15.2001" gradientUnits="userSpaceOnUse">
<stop stop-color="#7196FF"/>
<stop offset="1" stop-color="#2A5EE8"/>
</linearGradient>
<clipPath id="clip0_188_2276">
<rect x="88.8105" y="5.0885" width="29.1892" height="29.1892" rx="14.5946" transform="rotate(-0.173721 88.8105 5.0885)" fill="white"/>
</clipPath>
<clipPath id="clip1_188_2276">
<rect x="73.2422" y="5.13574" width="29.1892" height="29.1892" rx="14.5946" transform="rotate(-0.173721 73.2422 5.13574)" fill="white"/>
</clipPath>
<clipPath id="clip2_188_2276">
<rect x="51.8398" y="6.17358" width="29.1892" height="29.1892" rx="14.5946" transform="rotate(-0.173721 51.8398 6.17358)" fill="white"/>
</clipPath>
<clipPath id="clip3_188_2276">
<rect x="30.9238" y="6.72339" width="29.1892" height="29.1892" rx="14.5946" transform="rotate(-0.173721 30.9238 6.72339)" fill="white"/>
</clipPath>
<clipPath id="clip4_188_2276">
<rect x="10.0039" y="6.78687" width="29.1892" height="29.1892" rx="14.5946" transform="rotate(-0.173721 10.0039 6.78687)" fill="white"/>
</clipPath>
</defs>
</svg>
