<svg width="562" height="162" viewBox="0 0 562 162" fill="none" xmlns="http://www.w3.org/2000/svg">
<path d="M244.694 97.7038C242.595 98.1455 240.621 99.1715 238.522 99.5562C235.45 100.14 232.155 101.223 229.25 100.611C221.673 99.0148 216.474 93.5428 211.414 87.4296C212.916 86.4037 213.917 85.6912 214.945 85.0072C225.469 77.9677 234.657 69.5461 240.913 58.1605C247.266 46.5896 248.475 34.5343 243.443 22.1369C238.564 10.0673 229.806 2.21565 217.225 0.334672C204.074 -1.6318 194.343 5.25087 187.643 16.1662C184.001 22.1227 181.373 28.9056 179.247 35.6315C177.147 42.3289 176.258 49.4253 174.687 57.106C174.367 52.5033 174.395 48.5989 173.769 44.7941C172.449 36.7572 170.934 28.7346 169.14 20.7832C168.543 18.1327 167.25 14.6558 164.039 14.9122C160.952 15.1545 160.396 18.774 160.091 21.3674C158.867 31.5703 157.616 41.7874 157.018 52.0331C155.878 71.7833 158.506 91.2343 162.579 110.486C163.719 115.815 164.9 121.13 166.11 126.446C166.443 127.871 166.986 129.239 167.444 130.621C168.334 133.357 170.28 134.782 172.991 134.753C175.674 134.711 177.12 132.673 177.481 130.293C178.454 123.895 180.081 117.397 179.761 111.013C178.857 93.1438 180.289 75.5453 183.737 58.075C185.655 48.3708 188.255 38.8805 193.412 30.3591C195.97 26.0984 198.986 22.2224 203.657 20.2417C209.009 17.9617 214.681 21.2677 215.334 27.0531C215.529 28.7916 215.599 30.7723 214.987 32.3398C213.208 36.8997 211.484 41.5737 208.968 45.7061C204.311 53.3725 199.014 60.64 194.177 68.1924C191.994 71.5981 189.895 75.1605 188.435 78.9225C186.503 83.8672 188.658 87.8144 193.593 89.5244C195.525 90.2084 197.485 90.8069 199.445 91.3768C207.744 93.7851 214.097 98.6443 218.212 106.539C221.117 112.096 224.217 117.54 227.359 122.954C230.876 128.996 236.812 130.179 241.413 125.006C244.986 120.988 247.669 116.015 250.157 111.141C251.325 108.876 251.367 105.855 251.381 103.176C251.395 98.9435 248.712 96.8345 244.694 97.7038ZM160.716 73.3651C160.285 73.3508 159.854 73.3508 159.423 73.3366C158.742 58.8587 158.408 44.3809 160.716 29.2903V73.3651ZM233.045 58.9015C240.273 49.4111 242.053 38.8377 239.982 27.4664C239.078 22.5644 236.979 17.8762 235.547 13.4445C239.425 17.0925 241.677 22.2509 242.442 28.0078C244.875 46.5326 237.813 61.2242 224.454 73.1086C222.077 75.2318 218.963 76.4715 216.182 78.1245C215.946 77.7967 215.696 77.4548 215.446 77.1128C222.786 72.4958 227.86 65.6986 233.045 58.9015ZM206.354 79.7347C206.438 79.464 206.521 79.179 206.604 78.9082C208.064 78.666 209.524 78.4238 210.983 78.1673C211.136 78.552 211.289 78.9225 211.456 79.3072C210.372 79.9057 209.343 80.7037 208.175 81.0172C207.717 81.1455 206.98 80.1907 206.354 79.7347ZM248.156 108.491C246.599 102.506 245.445 101.722 238.661 101.722C241.441 99.3568 245.195 98.6728 247.294 100.368C249.963 102.52 249.448 105.242 248.156 108.491Z" fill="white"/>
<path d="M471.536 72.7303C470.532 56.5003 462.066 44.9864 447.658 38.1744C443 35.965 438.076 36.3191 434.199 40.2562C430.405 44.0942 430.865 48.7819 432.511 53.413C433.32 55.6506 434.966 57.6616 435.412 59.9418C436.723 66.5555 438.048 73.2118 438.62 79.9247C439.875 94.8659 437.239 109.467 433.529 123.842C432.079 129.464 428.229 130.484 424.185 126.306C421.27 123.275 418.703 119.763 416.583 116.109C408.396 101.919 401.98 86.9067 396.82 71.3424C394.1 63.1424 391.352 54.9283 391.38 46.0911C391.38 41.7574 389.037 38.9391 385.425 38.6842C381.743 38.4293 379.093 40.7236 378.465 45.0714C377.14 54.3618 376.373 63.7514 374.629 72.9427C369.748 98.718 370.696 124.465 374.448 150.226C374.908 153.37 376.024 156.472 377.21 159.446C377.656 160.579 379.107 161.853 380.236 161.995C381.087 162.094 382.398 160.664 383.04 159.616C383.96 158.143 384.741 156.458 385.09 154.758C386.415 148.13 388.521 141.474 388.563 134.832C388.661 119.381 387.754 103.93 387.224 88.4929C386.931 80.3637 386.582 72.2346 386.262 64.1055C386.568 64.0488 386.889 63.9922 387.196 63.9355C387.642 64.9552 388.145 65.9466 388.507 66.9804C391.422 75.4494 394.421 83.876 397.182 92.3875C401.743 106.394 406.708 120.188 414.882 132.538C418.299 137.707 422.26 142.338 427.504 145.694C432.497 148.895 437.421 148.739 442.121 145.085C443.99 143.627 445.803 141.998 447.295 140.157C463.098 120.556 473.14 98.6756 471.536 72.7303ZM374.295 102.683C375.006 117.299 375.717 131.914 376.429 146.487C373.681 141.87 372.426 110.345 374.295 102.683ZM451.41 49.7166C450.28 49.2068 449.192 48.5695 448.104 47.9888C448.272 47.6489 448.523 47.0116 448.606 47.0116C449.848 47.3232 451.075 47.6631 452.261 48.1304C452.637 48.2862 452.846 48.8527 453.641 49.8865C452.358 49.8016 451.814 49.9007 451.41 49.7166ZM468.593 92.3167C466.459 100.8 462.986 108.646 458.579 116.109C458.216 116.732 457.77 117.313 457.323 117.88C457.156 118.092 456.849 118.191 456.11 118.659C467.129 97.9674 469.583 77.3755 460.476 55.7356C461.103 56.5003 461.815 57.2226 462.358 58.044C469.235 68.5666 471.731 79.8539 468.593 92.3167Z" fill="white"/>
<path d="M542.794 68.1051C537.919 66.5353 533.171 64.3291 528.646 61.8966C522.146 58.3894 516.865 53.4254 513.629 46.5665C509.595 37.9963 512.074 27.3189 519.4 21.4357C526.643 15.6091 535.328 16.9244 540.735 24.4622C543.551 28.3937 543.943 32.2121 542.08 36.7376C540.553 40.457 542.29 42.2814 546.268 41.8854C551.788 41.3338 556.27 38.0528 557.363 32.5374C558.077 28.9877 557.993 25.0279 557.223 21.4782C554.449 8.79258 543.607 0.0951085 531.672 0.773935C524.107 1.21234 518.07 5.25702 512.382 9.92396C497.562 22.1146 495.937 41.1359 508.502 55.7589C513.069 61.0764 518.868 64.4847 525.116 67.4828C531.784 70.6931 538.438 74.1297 544.559 78.2875C547.501 80.2957 550.233 83.8312 551.283 87.2395C554.603 97.9735 543.341 109.598 532.036 107.548C521.964 105.709 514.736 99.5998 508.922 91.468C506.317 87.8335 503.935 83.9868 500.938 80.7199C492.925 71.9376 485.543 73.6913 481.788 85.1182C480.135 90.1387 480.262 95.2723 480.542 100.547C481.746 122.652 500.125 134.63 516.431 133.994C533.871 134.022 551.83 122.595 559.184 106.614C565.516 92.8681 561.635 74.1297 542.794 68.1051ZM554.561 33.1455C554.309 28.5493 554.015 23.2742 553.735 18.4941C556.382 21.563 556.774 30.1049 554.561 33.1455ZM547.949 9.3017C541.716 3.41853 534.291 3.72966 526.307 5.0166C532.932 -0.0604557 543.467 2.04673 547.949 9.3017ZM496.007 123.274C486.635 115.354 480.472 100.703 485.697 94.0985C484.73 106.006 490.361 114.166 498.85 120.799C507.353 127.446 516.725 130.557 527.833 127.729C523.071 131.731 506.499 132.141 496.007 123.274Z" fill="white"/>
<path d="M284.595 131.596C283.353 129.962 281.6 128.726 280.358 127.078C278.33 124.379 275.86 121.737 274.811 118.64C273.307 114.151 272.327 109.293 272.12 104.562C271.388 88.4959 274.48 72.9123 278.385 57.4708C279.489 53.1381 280.013 48.8338 278.371 44.5295C277.198 41.4469 275.004 39.5718 271.816 39.103C268.573 38.6058 266.586 40.6088 265.234 43.1942C264.102 45.3819 263.177 47.7684 262.584 50.1692C261.052 56.377 262.529 62.3292 264.116 68.3665C265.261 72.7561 266.006 77.3587 266.213 81.9045C266.614 91.1097 264.337 99.9314 261.715 108.668C258.458 119.578 255.946 130.672 254.994 144.281C255.712 146.824 256.664 151.412 258.361 155.688C259.741 159.183 263.081 160.532 266.517 159.396C273.721 157.024 280.138 153.259 284.774 146.881C288.473 141.781 288.404 136.582 284.595 131.596ZM277.336 48.9333C277.488 48.9759 277.64 49.1606 277.792 49.4021C278.385 50.3254 278.551 51.4761 278.33 52.5557C277.612 56.1213 276.895 58.9624 276.177 62.8406C275.722 62.7411 275.252 62.6417 274.783 62.5422C275.639 58.0107 276.494 53.4791 277.336 48.9333ZM278.702 147.861C282.07 142.605 282.649 137.079 278.344 129.28C282.056 130.914 284.678 135.076 284.65 139.281C284.622 143.329 282.704 146.256 278.702 147.861Z" fill="white"/>
<path d="M272.657 11.9446C272.097 13.6248 271.006 15.2907 271.216 16.7573C271.356 17.7112 273.721 19.306 274.49 19.0069C276.03 18.4089 277.163 16.7145 278.437 15.5043C280.942 18.7506 280.97 23.1076 278.017 26.4964C275.26 29.6716 270.628 30.3836 267.073 28.1766C263.449 25.9411 261.965 21.2424 263.603 17.1844C265.184 13.2403 269.158 11.1615 272.657 11.9446Z" fill="white"/>
<path d="M355.944 89.5819C354.213 89.6815 352.441 89.9233 350.78 90.3926C344.542 92.1563 338.402 94.2186 332.122 95.7973C326.652 97.177 321.126 98.3148 315.446 96.1529C306.822 92.8532 302.384 85.9551 299.733 77.5636C296.746 68.1054 296.83 58.3911 298.197 48.6342C299.272 40.9538 302.091 34.1269 307.338 28.4235C312.599 22.6917 318.642 17.9128 325.773 14.9686C329.596 13.3899 333.867 12.3374 337.956 12.2236C344.542 12.0529 348.129 16.2345 348.199 22.9619C348.254 28.8786 346.44 34.0557 342.296 38.3368C337.983 42.8028 332.82 45.7043 326.847 46.9986C319.339 48.6058 311.915 47.6528 304.589 45.6047C301.379 44.6945 299.384 46.6715 300.165 49.9854C300.347 50.7961 300.723 51.5641 301.1 52.3037C305.51 60.9228 317.623 66.9675 326.987 65.3461C342.17 62.7007 352.092 53.2993 357.981 39.4178C359.725 35.2931 360.465 30.1018 359.823 25.6785C357.548 10.1897 342.505 0.759944 327.336 4.50057C318.879 6.59133 312.264 11.7969 306.389 17.8274C290.704 33.9277 284.131 53.8682 283.949 76.2266C283.949 78.6445 283.796 81.0624 283.977 83.4661C284.884 94.8302 287.564 105.625 294.862 114.643C303.235 124.983 313.674 132.137 327.266 130.942C341.291 129.719 353.725 123.944 362.893 112.538C365.014 109.878 366.563 106.408 367.359 103.065C369.131 95.6551 363.396 89.141 355.944 89.5819ZM321.502 127.543C308.747 125.523 296.983 117.231 295.881 109.025C301.728 119.294 311.092 123.262 321.921 124.855C332.918 126.476 342.142 122.124 350.906 116.577C346.496 124.969 334.327 129.577 321.502 127.543Z" fill="white"/>
<path d="M76.486 120.003C76.0019 119.86 75.5316 119.661 75.0474 119.604C62.1556 118.095 52.4314 111.132 44.8097 100.752C34.2417 86.3562 29.8569 69.5115 27.035 52.0973C26.2189 47.0709 25.6656 42.0018 24.9878 36.8188H5.98206C5.89906 37.5308 5.73308 38.1573 5.78841 38.7411C6.83967 48.6229 7.3238 58.6187 9.10818 68.3581C11.6257 82.1699 16.4255 95.2128 24.9187 106.49C35.4728 120.515 49.3883 125.77 66.25 122.993C69.722 122.409 73.1386 121.441 76.569 120.644C76.5414 120.43 76.5137 120.216 76.486 120.003ZM23.9642 42.6141C22.1107 41.4323 20.271 40.2504 17.961 38.7696C22.166 36.9043 23.8121 37.8583 24.5729 41.7455C24.3792 42.0303 24.1717 42.3151 23.9642 42.6141ZM24.9602 101.649C30.424 106.704 35.8878 111.758 41.3516 116.799C35.0579 115.29 27.2702 108.056 24.9602 101.649Z" fill="white"/>
<path d="M37.7505 80.9996C33.4248 72.066 31.7888 62.7089 34.6864 53.0273C39.2617 37.7286 48.3845 26.6215 63.5523 20.9903C78.3179 15.5144 93.4995 12.2119 109.083 10.5324C112.217 10.1937 115.364 9.88324 118.469 9.57275V29.0348C108.196 31.1377 98.1025 33.0712 88.0646 35.287C81.7979 36.6701 75.545 38.2649 69.4031 40.1419C50.5613 45.9001 39.0537 60.9589 37.7505 80.9996ZM44.4054 39.2528C50.1037 34.4543 55.7882 29.6558 61.4865 24.8573C54.5958 26.4804 46.083 33.7486 44.4054 39.2528Z" fill="white"/>
<path d="M111 79.5273C109.085 94.1328 107.198 99.8008 101.286 107.154C90.621 120.445 75.931 126.213 60.0389 129.169C51.2612 130.811 42.2879 131.367 33.4124 132.524C32.5039 132.638 31.0642 133.509 30.9664 134.18C30.1417 139.891 29.5547 145.645 28.9257 151.37C28.7021 153.326 29.6945 154.068 31.4975 153.868C33.7478 153.597 35.9982 153.283 38.2345 153.012C52.9804 151.255 67.4468 148.314 81.5638 143.517C99.4965 137.421 110.329 124.928 114.396 106.283C116.353 97.2738 116.297 88.3363 111 79.5273ZM36.739 135.979C35.2015 135.836 33.6779 135.693 32.1544 135.536C32.2243 134.994 32.2942 133.98 32.3641 133.98C33.8736 133.98 35.3832 134.109 36.8787 134.209C36.8368 134.794 36.7809 135.394 36.739 135.979ZM85.9806 138.792C85.7849 138.535 85.5892 138.263 85.3935 138.006C91.3618 133.423 97.33 128.84 103.298 124.257C103.494 124.486 103.69 124.714 103.899 124.928C99.3008 131.396 93.1509 135.779 85.9806 138.792Z" fill="white"/>
<path d="M145.729 119.146C142.739 104.436 139.847 89.6971 136.426 75.0863C134.326 66.1409 130.182 58.1327 123.479 51.6295C109.935 38.4812 89.6181 34.4629 73.6816 42.2297C76.6436 42.5421 79.2997 42.7125 81.9002 43.1385C97.2386 45.6801 108.669 53.2766 113.495 69.0943C115.72 76.35 118 83.6341 119.614 91.0602C121.964 101.937 123.73 112.955 125.788 124.172C132.254 124.499 138.943 124.84 145.785 125.18C145.785 123.065 146.119 121.034 145.729 119.146ZM115.247 46.0919C121.241 49.4003 126.275 54.8243 129.807 61.7818C124.759 56.3436 119.711 50.9054 115.247 46.0919ZM138.679 119.756C138.846 119.416 139.013 119.075 139.18 118.748C142.879 117.797 144.339 118.748 144.77 123.434C142.392 122 140.528 120.878 138.679 119.756Z" fill="white"/>
<path d="M92.6688 59.6756C87.5648 51.5671 79.3534 49.9884 71.7887 55.6285C71.3388 55.9586 70.6639 56.2313 70.1436 56.1595C65.0396 55.4276 61.651 58.2262 58.8388 61.9862C52.4553 70.5254 49.9806 80.4135 51.9491 90.7179C55.4924 109.203 73.4057 117.555 88.5069 105.658C96.0153 99.7306 98.3775 91.378 98.2369 82.0639C98.1244 72.1471 96.5636 65.8755 92.6688 59.6756ZM56.9687 98.9412C49.0948 93.3442 53.0036 69.162 60.7792 65.1866C53.6785 76.1942 51.3867 86.9721 56.9687 98.9412ZM90.9816 97.7501C88.9709 102.96 83.445 105.6 77.3427 104.897C70.692 104.136 66.4738 100.692 65.4895 94.7363C64.6599 89.785 65.7707 84.9773 67.0081 80.2843C68.9625 82.7384 70.6779 85.0634 72.6042 87.2018C73.0682 87.7041 74.3196 87.8189 75.0367 87.5892C75.3882 87.4888 75.5991 86.1254 75.5007 85.3935C74.8258 80.4135 74.0665 75.4479 73.4479 71.2573V78.8923C73.0964 78.8779 72.7448 78.8492 72.3933 78.8348C72.773 74.228 72.6183 69.4777 73.7291 65.0574C74.3759 62.4885 76.8224 60.1923 78.9034 58.2692C79.733 57.4942 82.1514 57.4368 83.1497 58.1113C85.4135 59.6469 87.8882 61.4839 89.1396 63.8376C94.9607 74.759 95.4388 86.2115 90.9816 97.7501Z" fill="white"/>
<path d="M145 17.728L142.311 16.5365H142.297L121.483 7.36328L121.357 32.3995L145.181 22.207L146.226 21.762L150.252 20.0393L145 17.728ZM137.616 23.4416C136.738 23.8148 135.038 23.1545 133.715 22.9535C133.799 22.609 133.882 22.2644 133.966 21.9199C136.752 20.9006 139.525 19.8957 142.311 18.8765C142.715 19.221 143.119 19.5512 143.537 19.8957C141.586 21.1016 139.789 22.5085 137.616 23.4416Z" fill="white"/>
<path d="M124.244 125.917L133.977 156.108L148.082 127.817L124.244 125.917ZM134.415 150.396C134.744 148.114 134.827 145.804 135.512 143.522C135.786 142.586 137.335 141.679 138.295 140.758C138.514 141.041 138.706 141.325 138.912 141.608C137.925 144.429 136.924 147.264 135.923 150.07C135.43 150.169 134.923 150.297 134.415 150.396Z" fill="white"/>
<path d="M15.7928 9.13978L14.9453 7.23904L14.0296 5.15527L12.28 9.77336L11.2822 12.4344L2.88965 34.6096L26.7277 33.9338L15.7928 9.13978ZM16.3395 21.5438C15.2871 18.7561 14.2346 15.9824 13.1821 13.2088C13.4965 12.7864 13.7972 12.364 14.1116 11.9416C15.3281 13.8705 16.7223 15.6445 17.6791 17.8128C18.0618 18.6857 17.474 20.4175 17.3373 21.7691C16.9956 21.6846 16.6676 21.6142 16.3395 21.5438Z" fill="white"/>
<path d="M1.52339 137.362L0.0548983 137.81H0L0.0548983 137.854L2.33312 139.227L26.776 153.899L29.6169 128.863L1.52339 137.362ZM16.1397 137.868C13.3125 138.562 10.4716 139.242 7.64441 139.921C7.28758 139.531 6.91702 139.155 6.56019 138.765C8.59138 137.782 10.5128 136.582 12.7361 135.917C13.6419 135.642 15.2202 136.51 16.4965 136.856C16.3868 137.203 16.2632 137.536 16.1397 137.868Z" fill="white"/>
</svg>
