<svg width="227" height="64" viewBox="0 0 227 64" fill="none" xmlns="http://www.w3.org/2000/svg">
<path d="M98.5637 38.5434C97.7196 38.7177 96.9257 39.1224 96.0816 39.2742C94.8462 39.5047 93.5213 39.9319 92.3529 39.6902C89.3063 39.0606 87.2155 36.902 85.1807 34.4904C85.7844 34.0856 86.1869 33.8045 86.6006 33.5347C90.8324 30.7577 94.5275 27.4354 97.0431 22.9439C99.5979 18.3793 100.084 13.6235 98.0606 8.73285C96.0984 3.97148 92.5765 0.874058 87.5174 0.132026C82.229 -0.643735 78.3159 2.07143 75.6214 6.37746C74.1567 8.72723 73.1002 11.403 72.2449 14.0564C71.4008 16.6985 71.043 19.4979 70.4113 22.5279C70.2827 20.7122 70.2939 19.1719 70.0423 17.671C69.5113 14.5005 68.9019 11.3356 68.1808 8.19881C67.9404 7.15322 67.4205 5.78159 66.1292 5.88277C64.8882 5.97834 64.6645 7.40619 64.5416 8.42929C64.0496 12.4543 63.5465 16.4848 63.3061 20.5267C62.8477 28.318 63.9043 35.9913 65.5422 43.5859C66.0006 45.6883 66.4758 47.7851 66.9621 49.8819C67.0963 50.4441 67.3143 50.9837 67.4988 51.529C67.8566 52.6083 68.6392 53.1705 69.7293 53.1592C70.8082 53.1424 71.3896 52.3385 71.5349 51.3997C71.9262 48.8757 72.5803 46.3123 72.4517 43.7939C72.0884 36.7446 72.6642 29.8021 74.0505 22.9102C74.822 19.082 75.8674 15.3381 77.9413 11.9764C78.9699 10.2956 80.183 8.76658 82.0613 7.9852C84.2136 7.08577 86.4944 8.38995 86.7571 10.6723C86.8354 11.3581 86.8633 12.1395 86.6174 12.7578C85.9018 14.5567 85.2086 16.4005 84.1968 18.0307C82.3241 21.0551 80.1942 23.922 78.2488 26.9014C77.3711 28.2449 76.527 29.6503 75.94 31.1344C75.163 33.085 76.0295 34.6421 78.014 35.3167C78.791 35.5865 79.5793 35.8227 80.3675 36.0475C83.7049 36.9975 86.2596 38.9145 87.9143 42.0287C89.0827 44.2211 90.3293 46.3685 91.5927 48.5047C93.007 50.8881 95.394 51.3547 97.2444 49.3141C98.6811 47.7289 99.76 45.767 100.761 43.8445C101.23 42.9507 101.247 41.7589 101.253 40.7021C101.258 39.0325 100.179 38.2005 98.5637 38.5434ZM64.7931 28.942C64.6198 28.9364 64.4465 28.9364 64.2732 28.9307C63.9993 23.2193 63.8651 17.5079 64.7931 11.5548V28.942ZM93.8791 23.2362C96.786 19.4923 97.5015 15.3212 96.6686 10.8353C96.3052 8.9015 95.4611 7.05204 94.8853 5.30377C96.445 6.74286 97.3506 8.77782 97.6581 11.0489C98.6363 18.3568 95.7965 24.1525 90.4243 28.8408C89.4684 29.6784 88.2162 30.1675 87.0981 30.8196C87.0031 30.6903 86.9025 30.5553 86.8018 30.4204C89.7535 28.5991 91.7939 25.9176 93.8791 23.2362ZM83.1458 31.4548C83.1794 31.348 83.2129 31.2355 83.2465 31.1287C83.8334 31.0332 84.4204 30.9376 85.0074 30.8364C85.0689 30.9882 85.1304 31.1344 85.1974 31.2861C84.7614 31.5222 84.3477 31.837 83.8782 31.9607C83.6937 32.0113 83.3974 31.6347 83.1458 31.4548ZM99.9557 42.7989C99.3295 40.4379 98.8655 40.1287 96.1375 40.1287C97.2556 39.1955 98.7649 38.9257 99.6091 39.5946C100.682 40.4435 100.476 41.5172 99.9557 42.7989Z" fill="#2F4B98"/>
<path d="M189.784 28.6912C189.38 22.2886 185.976 17.7465 180.182 15.0592C178.309 14.1876 176.329 14.3273 174.77 15.8804C173.244 17.3945 173.429 19.2437 174.091 21.0707C174.416 21.9534 175.078 22.7467 175.257 23.6462C175.785 26.2553 176.318 28.8812 176.547 31.5294C177.052 37.4236 175.992 43.1837 174.5 48.8544C173.917 51.0724 172.369 51.4746 170.742 49.8265C169.57 48.6309 168.538 47.2453 167.686 45.8039C164.393 40.2058 161.813 34.2837 159.738 28.1437C158.644 24.9089 157.539 21.6685 157.551 18.1822C157.551 16.4726 156.608 15.3608 155.156 15.2603C153.675 15.1597 152.609 16.0648 152.357 17.78C151.824 21.445 151.516 25.1491 150.815 28.775C148.852 38.9432 149.233 49.1002 150.742 59.2628C150.927 60.5031 151.375 61.7266 151.852 62.8999C152.032 63.3468 152.615 63.8497 153.069 63.9055C153.411 63.9446 153.939 63.3804 154.197 62.9669C154.567 62.3859 154.881 61.721 155.021 61.0506C155.554 58.4359 156.401 55.8101 156.418 53.1898C156.457 47.0945 156.092 40.9992 155.879 34.9094C155.761 31.7026 155.621 28.4957 155.492 25.2888C155.616 25.2664 155.745 25.2441 155.868 25.2217C156.048 25.624 156.249 26.0151 156.395 26.4229C157.568 29.7639 158.773 33.0881 159.884 36.4458C161.718 41.9713 163.715 47.413 167.001 52.2847C168.376 54.324 169.968 56.1509 172.077 57.475C174.085 58.7376 176.065 58.6762 177.955 57.2347C178.707 56.6593 179.436 56.0168 180.036 55.2905C186.391 47.5582 190.429 38.9264 189.784 28.6912ZM150.68 40.5075C150.966 46.2732 151.252 52.0389 151.538 57.7879C150.433 55.9665 149.928 43.5301 150.68 40.5075ZM181.691 19.6125C181.236 19.4114 180.799 19.1599 180.361 18.9309C180.429 18.7968 180.53 18.5454 180.563 18.5454C181.063 18.6683 181.556 18.8024 182.033 18.9868C182.184 19.0482 182.268 19.2717 182.588 19.6795C182.072 19.646 181.853 19.6851 181.691 19.6125ZM188.601 36.4179C187.743 39.7645 186.346 42.8596 184.574 45.8039C184.428 46.0498 184.248 46.2788 184.069 46.5023C184.001 46.5861 183.878 46.6252 183.581 46.8096C188.012 38.6471 188.999 30.5237 185.336 21.9869C185.589 22.2886 185.875 22.5735 186.094 22.8976C188.859 27.0487 189.863 31.5014 188.601 36.4179Z" fill="#2F4B98"/>
<path d="M218.439 26.8668C216.479 26.2476 214.569 25.3772 212.75 24.4176C210.136 23.034 208.012 21.0758 206.711 18.37C205.089 14.9891 206.086 10.777 209.032 8.4561C211.944 6.15755 215.437 6.67639 217.611 9.65001C218.743 11.201 218.901 12.7073 218.152 14.4926C217.538 15.9599 218.236 16.6796 219.836 16.5233C222.056 16.3058 223.858 15.0114 224.298 12.8356C224.585 11.4353 224.551 9.87317 224.241 8.47284C223.126 3.46847 218.766 0.0373782 213.966 0.305171C210.925 0.47812 208.497 2.07372 206.21 3.91479C200.25 8.72389 199.596 16.2277 204.649 21.9963C206.486 24.0941 208.818 25.4386 211.33 26.6213C214.012 27.8878 216.687 29.2435 219.149 30.8837C220.332 31.6759 221.43 33.0707 221.853 34.4152C223.188 38.6497 218.659 43.2356 214.113 42.4267C210.063 41.7014 207.156 39.2913 204.818 36.0833C203.77 34.6495 202.813 33.132 201.607 31.8433C198.385 28.3787 195.416 29.0705 193.907 33.5784C193.242 35.5589 193.293 37.5841 193.405 39.6651C193.89 48.385 201.28 53.1105 207.838 52.8594C214.851 52.8706 222.073 48.3627 225.03 42.0585C227.576 36.6357 226.016 29.2435 218.439 26.8668ZM223.171 13.0755C223.07 11.2623 222.951 9.18137 222.839 7.29567C223.903 8.50631 224.061 11.876 223.171 13.0755ZM220.512 3.66931C218.005 1.34844 215.02 1.47118 211.809 1.97887C214.473 -0.0239908 218.71 0.80728 220.512 3.66931ZM199.624 48.6305C195.856 45.5063 193.377 39.7264 195.478 37.121C195.09 41.8186 197.354 45.0376 200.768 47.6542C204.187 50.2763 207.956 51.5037 212.423 50.3879C210.508 51.9668 203.844 52.1286 199.624 48.6305Z" fill="#2F4B98"/>
<path d="M30.921 47.3399C30.7263 47.2837 30.5372 47.2051 30.3425 47.1826C25.1582 46.5872 21.2478 43.8404 18.1828 39.7455C13.9331 34.0665 12.1697 27.4214 11.035 20.5516C10.7068 18.5688 10.4843 16.5691 10.2117 14.5244H2.56883C2.53546 14.8053 2.46871 15.0524 2.49096 15.2827C2.91371 19.181 3.1084 23.1243 3.82596 26.9664C4.83834 32.4151 6.76854 37.5604 10.1839 42.0092C14.4281 47.5421 20.024 49.6149 26.8047 48.5195C28.2009 48.2892 29.5749 47.9072 30.9544 47.5927C30.9433 47.5084 30.9321 47.4242 30.921 47.3399ZM9.80011 16.8106C9.05473 16.3444 8.31492 15.8782 7.38598 15.294C9.07698 14.5581 9.73892 14.9345 10.0449 16.468C9.96699 16.5803 9.88355 16.6926 9.80011 16.8106ZM10.2006 40.0994C12.3978 42.0935 14.595 44.0876 16.7922 46.076C14.2613 45.4806 11.1296 42.6271 10.2006 40.0994Z" fill="#2F4B98"/>
<path d="M15.3427 31.9537C13.6032 28.4295 12.9453 24.7382 14.1106 20.9189C15.9504 14.8836 19.6191 10.502 25.7185 8.28052C31.6563 6.12031 37.7614 4.8175 44.0281 4.15496C45.2882 4.02134 46.5538 3.89885 47.8027 3.77637V11.454C43.6713 12.2836 39.6124 13.0463 35.5758 13.9204C33.0558 14.4661 30.5413 15.0952 28.0714 15.8357C20.4944 18.1072 15.8668 24.0478 15.3427 31.9537ZM18.0189 15.4849C20.3104 13.592 22.5963 11.699 24.8878 9.80603C22.1168 10.4463 18.6935 13.3136 18.0189 15.4849Z" fill="#2F4B98"/>
<path d="M114.609 51.9136C114.109 51.2691 113.404 50.7816 112.905 50.1315C112.089 49.0668 111.096 48.0244 110.674 46.8027C110.069 45.0319 109.675 43.1153 109.592 41.2492C109.298 34.911 110.541 28.7634 112.111 22.6719C112.555 20.9627 112.766 19.2647 112.106 17.5666C111.634 16.3506 110.752 15.6108 109.47 15.4259C108.166 15.2298 107.367 16.0199 106.823 17.0399C106.368 17.9029 105.996 18.8444 105.757 19.7914C105.141 22.2404 105.735 24.5885 106.373 26.9702C106.834 28.7018 107.133 30.5175 107.217 32.3108C107.378 35.9422 106.462 39.4223 105.408 42.8687C104.098 47.1726 103.088 51.5493 102.705 56.918C102.994 57.9211 103.376 59.7312 104.059 61.418C104.614 62.7966 105.957 63.3289 107.339 62.8806C110.236 61.9448 112.816 60.4597 114.681 57.9435C116.168 55.9317 116.14 53.8806 114.609 51.9136ZM111.69 19.3039C111.751 19.3207 111.812 19.3936 111.873 19.4888C112.111 19.8531 112.178 20.307 112.089 20.7329C111.801 22.1395 111.512 23.2603 111.223 24.7902C111.04 24.751 110.852 24.7118 110.663 24.6725C111.007 22.8849 111.351 21.0972 111.69 19.3039ZM112.239 58.3302C113.593 56.2567 113.826 54.0767 112.095 51.0001C113.587 51.6446 114.642 53.2866 114.631 54.9454C114.62 56.5425 113.848 57.6969 112.239 58.3302Z" fill="#2F4B98"/>
<path d="M44.7996 31.3728C44.0295 37.1346 43.2707 39.3705 40.8932 42.2711C36.6046 47.5147 30.6972 49.7901 24.3064 50.956C20.7766 51.6037 17.1681 51.8234 13.5989 52.2796C13.2336 52.3246 12.6546 52.6682 12.6153 52.9329C12.2837 55.1858 12.0476 57.4556 11.7947 59.7141C11.7047 60.4857 12.1038 60.7786 12.8289 60.6997C13.7338 60.5927 14.6388 60.4688 15.5381 60.3618C21.4679 59.669 27.2854 58.5088 32.9623 56.6164C40.1737 54.2114 44.5298 49.2832 46.1654 41.9276C46.9523 38.3736 46.9298 34.8479 44.7996 31.3728ZM14.9367 53.6426C14.3184 53.5862 13.7057 53.5299 13.0931 53.468C13.1212 53.2539 13.1493 52.854 13.1774 52.854C13.7844 52.854 14.3914 52.9047 14.9929 52.9442C14.976 53.1751 14.9535 53.4116 14.9367 53.6426ZM34.7385 54.7521C34.6598 54.6507 34.5811 54.5437 34.5024 54.4423C36.9025 52.6344 39.3025 50.8265 41.7026 49.0185C41.7812 49.1086 41.8599 49.1987 41.9442 49.2832C40.095 51.8346 37.6219 53.5637 34.7385 54.7521Z" fill="#2F4B98"/>
<path d="M58.7654 47.0025C57.563 41.1994 56.3999 35.3852 55.0242 29.6213C54.1798 26.0924 52.5133 22.9332 49.8179 20.3678C44.3712 15.1809 36.201 13.5957 29.7924 16.6597C30.9835 16.7829 32.0517 16.8501 33.0974 17.0181C39.2655 18.0208 43.8623 21.0176 45.8028 27.2575C46.6975 30.1198 47.6146 32.9934 48.2633 35.9229C49.2084 40.2136 49.9186 44.5603 50.7462 48.9854C53.3466 49.1142 56.0364 49.2487 58.7877 49.3831C58.7877 48.5485 58.9219 47.7475 58.7654 47.0025ZM46.5074 18.1832C48.9176 19.4884 50.9419 21.6281 52.3623 24.3728C50.3324 22.2275 48.3024 20.0821 46.5074 18.1832ZM55.9301 47.2434C55.9972 47.1089 56.0644 46.9745 56.1315 46.8457C57.619 46.4704 58.2061 46.8457 58.3795 48.6941C57.4232 48.1284 56.6739 47.6859 55.9301 47.2434Z" fill="#2F4B98"/>
<path d="M37.4275 23.5417C35.375 20.3429 32.0729 19.7201 29.0309 21.9451C28.85 22.0753 28.5786 22.1829 28.3693 22.1546C26.3168 21.8659 24.9542 22.9699 23.8233 24.4532C21.2562 27.8218 20.2611 31.7226 21.0527 35.7876C22.4776 43.0797 29.6811 46.3747 35.7539 41.6813C38.7733 39.3431 39.7232 36.048 39.6667 32.3737C39.6214 28.4616 38.9938 25.9875 37.4275 23.5417ZM23.0713 39.0317C19.9049 36.8237 21.4767 27.284 24.6036 25.7157C21.7482 30.0581 20.8265 34.3099 23.0713 39.0317ZM36.749 38.5618C35.9405 40.6169 33.7183 41.6586 31.2643 41.3812C28.5899 41.0812 26.8936 39.7224 26.4978 37.3728C26.1642 35.4196 26.6109 33.523 27.1084 31.6717C27.8944 32.6398 28.5842 33.557 29.3589 34.4005C29.5454 34.5987 30.0487 34.644 30.337 34.5534C30.4784 34.5138 30.5632 33.9759 30.5236 33.6872C30.2522 31.7226 29.9469 29.7637 29.6981 28.1105V31.1225C29.5568 31.1168 29.4154 31.1055 29.274 31.0998C29.4267 29.2825 29.3645 27.4085 29.8112 25.6648C30.0713 24.6513 31.0551 23.7455 31.892 22.9868C32.2256 22.6811 33.1981 22.6585 33.5996 22.9246C34.5099 23.5303 35.5051 24.255 36.0083 25.1835C38.3492 29.492 38.5414 34.0099 36.749 38.5618Z" fill="#2F4B98"/>
<path d="M109.808 4.71227C109.583 5.37508 109.144 6.03227 109.229 6.61082C109.285 6.98716 110.236 7.61627 110.545 7.49831C111.164 7.2624 111.62 6.59397 112.132 6.11653C113.14 7.3972 113.151 9.11601 111.964 10.4529C110.855 11.7055 108.992 11.9863 107.563 11.1157C106.105 10.2338 105.509 8.38018 106.167 6.77933C106.803 5.22342 108.401 4.40334 109.808 4.71227Z" fill="#2F4B98"/>
<path d="M143.3 35.3392C142.605 35.3785 141.892 35.4739 141.224 35.6591C138.716 36.3548 136.246 37.1684 133.721 37.7912C131.521 38.3354 129.299 38.7843 127.015 37.9314C123.547 36.6297 121.762 33.9085 120.696 30.5981C119.495 26.8669 119.529 23.0347 120.079 19.1857C120.511 16.1558 121.644 13.4626 123.754 11.2127C125.87 8.95151 128.3 7.06627 131.168 5.90483C132.705 5.28203 134.422 4.86683 136.067 4.82194C138.716 4.75461 140.158 6.40419 140.186 9.05812C140.208 11.3922 139.479 13.4346 137.812 15.1234C136.078 16.8852 134.002 18.0298 131.6 18.5404C128.581 19.1744 125.595 18.7985 122.649 17.9906C121.358 17.6315 120.556 18.4114 120.87 19.7187C120.943 20.0385 121.094 20.3415 121.246 20.6333C123.019 24.0334 127.89 26.418 131.656 25.7784C137.762 24.7348 141.752 21.026 144.12 15.5498C144.821 13.9227 145.119 11.8748 144.861 10.1298C143.946 4.01959 137.896 0.299612 131.796 1.77526C128.395 2.60005 125.735 4.65362 123.373 7.03261C117.065 13.3841 114.422 21.2505 114.349 30.0707C114.349 31.0245 114.287 31.9784 114.36 32.9266C114.725 37.4096 115.802 41.6683 118.737 45.2255C122.104 49.3046 126.302 52.1269 131.768 51.6555C137.408 51.173 142.408 48.895 146.095 44.3951C146.948 43.3459 147.571 41.9769 147.891 40.6583C148.604 37.7351 146.297 35.1653 143.3 35.3392ZM129.45 50.3146C124.321 49.5178 119.59 46.2467 119.147 43.0093C121.498 47.0603 125.264 48.6257 129.619 49.2541C134.041 49.8937 137.75 48.1768 141.275 45.9886C139.501 49.299 134.608 51.1169 129.45 50.3146Z" fill="#2F4B98"/>
<path d="M58.4721 6.99373L57.3908 6.52369H57.3852L49.0151 2.90491L48.9647 12.7815L58.5449 8.76065L58.9651 8.58509L60.5842 7.9055L58.4721 6.99373ZM55.5027 9.24768C55.1498 9.39493 54.4663 9.13442 53.9341 9.05513C53.9677 8.91922 54.0013 8.7833 54.0349 8.64738C55.1554 8.2453 56.2703 7.84887 57.3908 7.44679C57.5533 7.5827 57.7157 7.71296 57.8838 7.84887C57.0995 8.32458 56.3767 8.87958 55.5027 9.24768Z" fill="#2F4B98"/>
<path d="M50.1266 49.6736L54.0404 61.5836L59.7127 50.4229L50.1266 49.6736ZM54.2168 59.3302C54.3491 58.43 54.3822 57.5185 54.6578 56.6183C54.7681 56.2493 55.391 55.8914 55.7768 55.5279C55.865 55.6398 55.9422 55.7516 56.0249 55.8634C55.628 56.9762 55.2256 58.0945 54.8232 59.2016C54.6247 59.2407 54.4208 59.2911 54.2168 59.3302Z" fill="#2F4B98"/>
<path d="M6.51337 3.60531L6.17258 2.85548L5.80431 2.03345L5.10074 3.85525L4.69948 4.90501L1.32455 13.653L10.9107 13.3864L6.51337 3.60531ZM6.73324 8.49862C6.31 7.39887 5.88676 6.30468 5.46352 5.21049C5.58994 5.04386 5.71086 4.87723 5.83729 4.71061C6.32649 5.47154 6.88714 6.17138 7.27191 7.02674C7.42581 7.3711 7.18946 8.05428 7.13449 8.58749C6.99708 8.55416 6.86515 8.52639 6.73324 8.49862Z" fill="#2F4B98"/>
<path d="M0.775208 54.1885L0.184674 54.3652H0.162598L0.184674 54.3824L1.10083 54.9241L10.9302 60.7121L12.0726 50.8354L0.775208 54.1885ZM6.65295 54.3881C5.51604 54.6618 4.3736 54.9298 3.23669 55.1978C3.09319 55.0438 2.94418 54.8956 2.80069 54.7416C3.6175 54.3538 4.39016 53.8805 5.28424 53.6182C5.6485 53.5099 6.28318 53.852 6.79645 53.9889C6.7523 54.1258 6.70262 54.2569 6.65295 54.3881Z" fill="#2F4B98"/>
</svg>
