<svg width="227" height="65" viewBox="0 0 227 65" fill="none" xmlns="http://www.w3.org/2000/svg">
<path d="M98.5637 39.0537C97.7196 39.228 96.9257 39.6327 96.0816 39.7845C94.8462 40.015 93.5213 40.4422 92.3529 40.2005C89.3063 39.5709 87.2155 37.4122 85.1807 35.0006C85.7844 34.5959 86.1869 34.3148 86.6006 34.045C90.8324 31.268 94.5275 27.9457 97.0431 23.4541C99.5979 18.8895 100.084 14.1338 98.0606 9.24311C96.0984 4.48173 92.5765 1.38431 87.5174 0.64228C82.229 -0.133481 78.3159 2.58168 75.6214 6.88772C74.1567 9.23749 73.1002 11.9133 72.2449 14.5666C71.4008 17.2087 71.043 20.0082 70.4113 23.0382C70.2827 21.2224 70.2939 19.6822 70.0423 18.1812C69.5113 15.0107 68.9019 11.8458 68.1808 8.70907C67.9404 7.66348 67.4205 6.29184 66.1292 6.39303C64.8882 6.48859 64.6645 7.91644 64.5416 8.93955C64.0496 12.9645 63.5465 16.9951 63.3061 21.0369C62.8477 28.8283 63.9043 36.5015 65.5422 44.0961C66.0006 46.1986 66.4758 48.2954 66.9621 50.3922C67.0963 50.9543 67.3143 51.494 67.4988 52.0393C67.8566 53.1186 68.6392 53.6807 69.7293 53.6695C70.8082 53.6526 71.3896 52.8487 71.5349 51.91C71.9262 49.3859 72.5803 46.8225 72.4517 44.3041C72.0884 37.2548 72.6642 30.3123 74.0505 23.4204C74.822 19.5922 75.8674 15.8483 77.9413 12.4867C78.9699 10.8059 80.183 9.27683 82.0613 8.49545C84.2136 7.59602 86.4944 8.9002 86.7571 11.1825C86.8354 11.8683 86.8633 12.6497 86.6174 13.2681C85.9018 15.0669 85.2086 16.9108 84.1968 18.541C82.3241 21.5653 80.1942 24.4323 78.2488 27.4117C77.3711 28.7552 76.527 30.1605 75.94 31.6446C75.163 33.5953 76.0295 35.1524 78.014 35.827C78.791 36.0968 79.5793 36.3329 80.3675 36.5578C83.7049 37.5078 86.2596 39.4247 87.9143 42.539C89.0827 44.7314 90.3293 46.8788 91.5927 49.0149C93.007 51.3984 95.394 51.865 97.2444 49.8244C98.6811 48.2391 99.76 46.2773 100.761 44.3547C101.23 43.4609 101.247 42.2692 101.253 41.2123C101.258 39.5428 100.179 38.7108 98.5637 39.0537ZM64.7931 29.4522C64.6198 29.4466 64.4465 29.4466 64.2732 29.441C63.9993 23.7296 63.8651 18.0182 64.7931 12.0651V29.4522ZM93.8791 23.7465C96.786 20.0026 97.5015 15.8315 96.6686 11.3455C96.3052 9.41175 95.4611 7.56229 94.8853 5.81402C96.445 7.25311 97.3506 9.28808 97.6581 11.5591C98.6363 18.867 95.7965 24.6628 90.4243 29.3511C89.4684 30.1887 88.2162 30.6777 87.0981 31.3298C87.0031 31.2005 86.9025 31.0656 86.8018 30.9307C89.7535 29.1093 91.7939 26.4279 93.8791 23.7465ZM83.1458 31.965C83.1794 31.8582 83.2129 31.7458 83.2465 31.639C83.8334 31.5434 84.4204 31.4479 85.0074 31.3467C85.0689 31.4985 85.1304 31.6446 85.1974 31.7964C84.7614 32.0325 84.3477 32.3473 83.8782 32.471C83.6937 32.5216 83.3974 32.1449 83.1458 31.965ZM99.9557 43.3091C99.3295 40.9481 98.8655 40.6389 96.1375 40.6389C97.2556 39.7058 98.7649 39.4359 99.6091 40.1049C100.682 40.9537 100.476 42.0274 99.9557 43.3091Z" fill="#EE7213"/>
<path d="M189.784 29.2015C189.38 22.7989 185.976 18.2567 180.182 15.5694C178.309 14.6978 176.329 14.8375 174.77 16.3907C173.244 17.9047 173.429 19.754 174.091 21.5809C174.416 22.4637 175.078 23.257 175.257 24.1565C175.785 26.7656 176.318 29.3914 176.547 32.0396C177.052 37.9338 175.992 43.6939 174.5 49.3646C173.917 51.5826 172.369 51.9849 170.742 50.3368C169.57 49.1412 168.538 47.7556 167.686 46.3142C164.393 40.7161 161.813 34.794 159.738 28.654C158.644 25.4191 157.539 22.1787 157.551 18.6925C157.551 16.9829 156.608 15.8711 155.156 15.7705C153.675 15.67 152.609 16.5751 152.357 18.2902C151.824 21.9552 151.516 25.6594 150.815 29.2853C148.852 39.4535 149.233 49.6105 150.742 59.7731C150.927 61.0133 151.375 62.2369 151.852 63.4101C152.032 63.8571 152.615 64.3599 153.069 64.4158C153.411 64.4549 153.939 63.8906 154.197 63.4772C154.567 62.8961 154.881 62.2313 155.021 61.5609C155.554 58.9462 156.401 56.3203 156.418 53.7001C156.457 47.6048 156.092 41.5094 155.879 35.4197C155.761 32.2128 155.621 29.0059 155.492 25.799C155.616 25.7767 155.745 25.7543 155.868 25.732C156.048 26.1343 156.249 26.5253 156.395 26.9332C157.568 30.2742 158.773 33.5984 159.884 36.9561C161.718 42.4816 163.715 47.9232 167.001 52.795C168.376 54.8342 169.968 56.6611 172.077 57.9852C174.085 59.2479 176.065 59.1864 177.955 57.745C178.707 57.1695 179.436 56.5271 180.036 55.8008C186.391 48.0685 190.429 39.4367 189.784 29.2015ZM150.68 41.0178C150.966 46.7835 151.252 52.5492 151.538 58.2981C150.433 56.4768 149.928 44.0403 150.68 41.0178ZM181.691 20.1227C181.236 19.9216 180.799 19.6702 180.361 19.4411C180.429 19.307 180.53 19.0556 180.563 19.0556C181.063 19.1786 181.556 19.3126 182.033 19.497C182.184 19.5585 182.268 19.7819 182.588 20.1898C182.072 20.1563 181.853 20.1954 181.691 20.1227ZM188.601 36.9282C187.743 40.2747 186.346 43.3699 184.574 46.3142C184.428 46.56 184.248 46.7891 184.069 47.0125C184.001 47.0963 183.878 47.1355 183.581 47.3198C188.012 39.1573 188.999 31.034 185.336 22.4972C185.589 22.7989 185.875 23.0838 186.094 23.4078C188.859 27.5589 189.863 32.0117 188.601 36.9282Z" fill="#EE7213"/>
<path d="M218.439 27.2334C216.479 26.6107 214.569 25.7356 212.75 24.7707C210.136 23.3794 208.012 21.4104 206.711 18.6896C205.089 15.2901 206.086 11.0546 209.032 8.72094C211.944 6.40969 215.437 6.9314 217.611 9.92144C218.743 11.481 218.901 12.9956 218.152 14.7908C217.538 16.2662 218.236 16.9898 219.836 16.8328C222.056 16.614 223.858 15.3125 224.298 13.1247C224.585 11.7166 224.551 10.1458 224.241 8.73777C223.126 3.70575 218.766 0.255706 213.966 0.524978C210.925 0.698883 208.497 2.30329 206.21 4.15454C200.25 8.99021 199.596 16.5354 204.649 22.336C206.486 24.4453 208.818 25.7973 211.33 26.9866C214.012 28.26 216.687 29.6232 219.149 31.2725C220.332 32.0691 221.43 33.4715 221.853 34.8235C223.188 39.0813 218.659 43.6926 214.113 42.8792C210.063 42.1499 207.156 39.7265 204.818 36.5008C203.77 35.0591 202.813 33.5332 201.607 32.2374C198.385 28.7536 195.416 29.4493 193.907 33.982C193.242 35.9735 193.293 38.0099 193.405 40.1023C193.89 48.8705 201.28 53.622 207.838 53.3696C214.851 53.3808 222.073 48.8481 225.03 42.509C227.576 37.0562 226.016 29.6232 218.439 27.2334ZM223.171 13.3659C223.07 11.5427 222.951 9.45022 222.839 7.5541C223.903 8.77143 224.061 12.1598 223.171 13.3659ZM220.512 3.90771C218.005 1.57402 215.02 1.69743 211.809 2.20793C214.473 0.193998 218.71 1.02986 220.512 3.90771ZM199.624 49.1173C195.856 45.9758 193.377 40.164 195.478 37.5443C195.09 42.2677 197.354 45.5046 200.768 48.1356C204.187 50.7722 207.956 52.0064 212.423 50.8844C210.508 52.472 203.844 52.6347 199.624 49.1173Z" fill="#EE7213"/>
<path d="M30.921 47.8502C30.7263 47.794 30.5372 47.7153 30.3425 47.6929C25.1582 47.0975 21.2478 44.3507 18.1828 40.2557C13.9331 34.5768 12.1697 27.9317 11.035 21.0619C10.7068 19.079 10.4843 17.0793 10.2117 15.0347H2.56883C2.53546 15.3155 2.46871 15.5627 2.49096 15.793C2.91371 19.6913 3.1084 23.6346 3.82596 27.4767C4.83834 32.9253 6.76854 38.0707 10.1839 42.5195C14.4281 48.0524 20.024 50.1251 26.8047 49.0298C28.2009 48.7995 29.5749 48.4175 30.9544 48.1029C30.9433 48.0187 30.9321 47.9344 30.921 47.8502ZM9.80011 17.3209C9.05473 16.8546 8.31492 16.3884 7.38598 15.8042C9.07698 15.0684 9.73892 15.4447 10.0449 16.9782C9.96699 17.0906 9.88355 17.2029 9.80011 17.3209ZM10.2006 40.6096C12.3978 42.6037 14.595 44.5978 16.7922 46.5863C14.2613 45.9909 11.1296 43.1374 10.2006 40.6096Z" fill="#EE7213"/>
<path d="M15.3427 32.4639C13.6032 28.9397 12.9453 25.2484 14.1106 21.4291C15.9504 15.3938 19.6191 11.0122 25.7185 8.79071C31.6563 6.6305 37.7614 5.32769 44.0281 4.66515C45.2882 4.53153 46.5538 4.40905 47.8027 4.28656V11.9642C43.6713 12.7938 39.6124 13.5565 35.5758 14.4306C33.0558 14.9763 30.5413 15.6054 28.0714 16.3459C20.4944 18.6174 15.8668 24.558 15.3427 32.4639ZM18.0189 15.9951C20.3104 14.1022 22.5963 12.2092 24.8878 10.3162C22.1168 10.9565 18.6935 13.8238 18.0189 15.9951Z" fill="#EE7213"/>
<path d="M114.609 52.4238C114.109 51.7794 113.404 51.2918 112.905 50.6418C112.089 49.577 111.096 48.5347 110.674 47.313C110.069 45.5421 109.675 43.6256 109.592 41.7594C109.298 35.4213 110.541 29.2737 112.111 23.1821C112.555 21.4729 112.766 19.7749 112.106 18.0769C111.634 16.8608 110.752 16.1211 109.47 15.9362C108.166 15.74 107.367 16.5302 106.823 17.5501C106.368 18.4131 105.996 19.3546 105.757 20.3017C105.141 22.7506 105.735 25.0987 106.373 27.4804C106.834 29.2121 107.133 31.0278 107.217 32.821C107.378 36.4524 106.462 39.9325 105.408 43.379C104.098 47.6829 103.088 52.0596 102.705 57.4282C102.994 58.4313 103.376 60.2414 104.059 61.9282C104.614 63.3068 105.957 63.8392 107.339 63.3909C110.236 62.455 112.816 60.9699 114.681 58.4538C116.168 56.4419 116.14 54.3909 114.609 52.4238ZM111.69 19.8141C111.751 19.831 111.812 19.9038 111.873 19.9991C112.111 20.3633 112.178 20.8173 112.089 21.2432C111.801 22.6498 111.512 23.7706 111.223 25.3005C111.04 25.2612 110.852 25.222 110.663 25.1828C111.007 23.3951 111.351 21.6074 111.69 19.8141ZM112.239 58.8404C113.593 56.7669 113.826 54.587 112.095 51.5104C113.587 52.1549 114.642 53.7968 114.631 55.4556C114.62 57.0527 113.848 58.2072 112.239 58.8404Z" fill="#EE7213"/>
<path d="M44.7996 31.883C44.0295 37.6447 43.2707 39.8807 40.8932 42.7813C36.6046 48.0249 30.6972 50.3003 24.3064 51.4662C20.7766 52.1139 17.1681 52.3335 13.5989 52.7898C13.2336 52.8348 12.6546 53.1784 12.6153 53.4431C12.2837 55.696 12.0476 57.9658 11.7947 60.2243C11.7047 60.9959 12.1038 61.2888 12.8289 61.2099C13.7338 61.1029 14.6388 60.979 15.5381 60.872C21.4679 60.1792 27.2854 59.019 32.9623 57.1266C40.1737 54.7216 44.5298 49.7934 46.1654 42.4378C46.9523 38.8838 46.9298 35.3581 44.7996 31.883ZM14.9367 54.1528C14.3184 54.0964 13.7057 54.0401 13.0931 53.9782C13.1212 53.7641 13.1493 53.3642 13.1774 53.3642C13.7844 53.3642 14.3914 53.4149 14.9929 53.4544C14.976 53.6853 14.9535 53.9218 14.9367 54.1528ZM34.7385 55.2623C34.6598 55.1609 34.5811 55.0539 34.5024 54.9525C36.9025 53.1446 39.3025 51.3366 41.7026 49.5287C41.7812 49.6188 41.8599 49.7089 41.9442 49.7934C40.095 52.3448 37.6219 54.0739 34.7385 55.2623Z" fill="#EE7213"/>
<path d="M58.7654 47.2222C57.563 41.4192 56.3999 35.6049 55.0242 29.8411C54.1798 26.3122 52.5133 23.153 49.8179 20.5875C44.3712 15.4006 36.201 13.8154 29.7924 16.8794C30.9835 17.0026 32.0517 17.0698 33.0974 17.2379C39.2655 18.2405 43.8623 21.2373 45.8028 27.4773C46.6975 30.3396 47.6146 33.2131 48.2633 36.1426C49.2084 40.4333 49.9186 44.78 50.7462 49.2051C53.3466 49.334 56.0364 49.4684 58.7877 49.6028C58.7877 48.7682 58.9219 47.9672 58.7654 47.2222ZM46.5074 18.403C48.9176 19.7081 50.9419 21.8478 52.3623 24.5925C50.3324 22.4472 48.3024 20.3018 46.5074 18.403ZM55.9301 47.4631C55.9972 47.3287 56.0644 47.1942 56.1315 47.0654C57.619 46.6901 58.2061 47.0654 58.3795 48.9139C57.4232 48.3481 56.6739 47.9056 55.9301 47.4631Z" fill="#EE7213"/>
<path d="M37.4275 24.052C35.375 20.8532 32.0729 20.2304 29.0309 22.4554C28.85 22.5856 28.5786 22.6932 28.3693 22.6649C26.3168 22.3762 24.9542 23.4802 23.8233 24.9635C21.2562 28.3321 20.2611 32.2329 21.0527 36.2979C22.4776 43.59 29.6811 46.885 35.7539 42.1916C38.7733 39.8534 39.7232 36.5583 39.6667 32.884C39.6214 28.9719 38.9938 26.4978 37.4275 24.052ZM23.0713 39.542C19.9049 37.334 21.4767 27.7943 24.6036 26.226C21.7482 30.5684 20.8265 34.8203 23.0713 39.542ZM36.749 39.0721C35.9405 41.1272 33.7183 42.1689 31.2643 41.8915C28.5899 41.5915 26.8936 40.2327 26.4978 37.8831C26.1642 35.9299 26.6109 34.0333 27.1084 32.182C27.8944 33.1501 28.5842 34.0673 29.3589 34.9108C29.5454 35.109 30.0487 35.1543 30.337 35.0637C30.4784 35.0241 30.5632 34.4862 30.5236 34.1975C30.2522 32.2329 29.9469 30.274 29.6981 28.6209V31.6328C29.5568 31.6271 29.4154 31.6158 29.274 31.6102C29.4267 29.7928 29.3645 27.9188 29.8112 26.1751C30.0713 25.1616 31.0551 24.2558 31.892 23.4972C32.2256 23.1914 33.1981 23.1688 33.5996 23.4349C34.5099 24.0407 35.5051 24.7653 36.0083 25.6938C38.3492 30.0023 38.5414 34.5202 36.749 39.0721Z" fill="#EE7213"/>
<path d="M109.808 5.22253C109.583 5.88533 109.144 6.54253 109.229 7.12108C109.285 7.49742 110.236 8.12652 110.545 8.00856C111.164 7.77265 111.62 7.10423 112.132 6.62678C113.14 7.90746 113.151 9.62626 111.964 10.9631C110.855 12.2157 108.992 12.4966 107.563 11.6259C106.105 10.744 105.509 8.89044 106.167 7.28959C106.803 5.73368 108.401 4.91359 109.808 5.22253Z" fill="#EE7213"/>
<path d="M143.3 35.8496C142.605 35.8888 141.892 35.9842 141.224 36.1694C138.716 36.8651 136.246 37.6787 133.721 38.3015C131.521 38.8457 129.299 39.2946 127.015 38.4418C123.547 37.1401 121.762 34.4188 120.696 31.1084C119.495 27.3772 119.529 23.545 120.079 19.696C120.511 16.6661 121.644 13.9729 123.754 11.723C125.87 9.46183 128.3 7.57659 131.168 6.41515C132.705 5.79234 134.422 5.37714 136.067 5.33226C138.716 5.26493 140.158 6.91451 140.186 9.56843C140.208 11.9025 139.479 13.9449 137.812 15.6337C136.078 17.3955 134.002 18.5401 131.6 19.0507C128.581 19.6848 125.595 19.3088 122.649 18.5009C121.358 18.1418 120.556 18.9217 120.87 20.229C120.943 20.5488 121.094 20.8518 121.246 21.1436C123.019 24.5437 127.89 26.9283 131.656 26.2887C137.762 25.2451 141.752 21.5363 144.12 16.0602C144.821 14.433 145.119 12.3851 144.861 10.6401C143.946 4.52991 137.896 0.809927 131.796 2.28557C128.395 3.11037 125.735 5.16393 123.373 7.54292C117.065 13.8944 114.422 21.7608 114.349 30.581C114.349 31.5348 114.287 32.4887 114.36 33.4369C114.725 37.92 115.802 42.1786 118.737 45.7358C122.104 49.8149 126.302 52.6372 131.768 52.1659C137.408 51.6833 142.408 49.4053 146.095 44.9054C146.948 43.8562 147.571 42.4872 147.891 41.1686C148.604 38.2454 146.297 35.6756 143.3 35.8496ZM129.45 50.8249C124.321 50.0281 119.59 46.757 119.147 43.5196C121.498 47.5706 125.264 49.136 129.619 49.7644C134.041 50.4041 137.75 48.6871 141.275 46.4989C139.501 49.8093 134.608 51.6272 129.45 50.8249Z" fill="#EE7213"/>
<path d="M58.4721 7.38373L57.3908 6.92751H57.3852L49.0151 3.41516L48.9647 13.0013L58.5449 9.09867L58.9651 8.92828L60.5842 8.26868L58.4721 7.38373ZM55.5027 9.57139C55.1498 9.7143 54.4663 9.46145 53.9341 9.3845C53.9677 9.25258 54.0013 9.12066 54.0349 8.98874C55.1554 8.59848 56.2703 8.21372 57.3908 7.82346C57.5533 7.95538 57.7157 8.0818 57.8838 8.21372C57.0995 8.67543 56.3767 9.2141 55.5027 9.57139Z" fill="#EE7213"/>
<path d="M50.1266 50.1838L54.0404 62.0938L59.7127 50.933L50.1266 50.1838ZM54.2168 59.8404C54.3491 58.9402 54.3822 58.0287 54.6578 57.1285C54.7681 56.7595 55.391 56.4016 55.7768 56.0381C55.865 56.15 55.9422 56.2618 56.0249 56.3736C55.628 57.4864 55.2256 58.6047 54.8232 59.7118C54.6247 59.7509 54.4208 59.8013 54.2168 59.8404Z" fill="#EE7213"/>
<path d="M6.51337 3.86433L6.17258 3.09576L5.80431 2.25317L5.10074 4.12052L4.69948 5.19652L1.32455 14.1632L10.9107 13.8899L6.51337 3.86433ZM6.73324 8.87997C6.31 7.75274 5.88676 6.63119 5.46352 5.50964C5.58994 5.33885 5.71086 5.16806 5.83729 4.99726C6.32649 5.77722 6.88714 6.49455 7.27191 7.3713C7.42581 7.72427 7.18946 8.42453 7.13449 8.97107C6.99708 8.93691 6.86515 8.90844 6.73324 8.87997Z" fill="#EE7213"/>
<path d="M0.775208 54.6987L0.184674 54.8755H0.162598L0.184674 54.8926L1.10083 55.4343L10.9302 61.2223L12.0726 51.3457L0.775208 54.6987ZM6.65295 54.8983C5.51604 55.172 4.3736 55.44 3.23669 55.7081C3.09319 55.5541 2.94418 55.4058 2.80069 55.2519C3.6175 54.8641 4.39016 54.3908 5.28424 54.1285C5.6485 54.0201 6.28318 54.3623 6.79645 54.4991C6.7523 54.636 6.70262 54.7672 6.65295 54.8983Z" fill="#EE7213"/>
</svg>
