<svg width="1200" height="284" viewBox="0 0 1200 284" fill="none" xmlns="http://www.w3.org/2000/svg">
<path d="M0.877319 99.9596C3.28286 92.3348 6.47642 70.8279 19.2092 79.24C37.9144 91.5889 59.0665 100.25 81.0897 104.476C87.9745 105.803 95.4814 106.631 101.703 103.399C110.744 98.7164 113.813 87.2792 114.435 77.0852C115.597 57.2773 110.993 37.7594 105.394 18.9046C102.283 8.46194 98.3432 4.27659 110.454 2.16319C114.394 1.45872 124.97 -1.15194 126.671 4.52522C134.8 31.585 142.224 59.0591 140.025 87.5693C138.989 101.078 135.214 115.416 124.763 123.994C115.514 131.578 102.74 133.235 90.7948 132.614C58.5688 130.956 28.4996 115.416 0.918803 99.9181L0.877319 99.9596Z" fill="#E1620F"/>
<path d="M53.6333 62.6229C67.0562 62.6229 77.9376 51.7509 77.9376 38.3396C77.9376 24.9283 67.0562 14.0562 53.6333 14.0562C40.2104 14.0562 29.329 24.9283 29.329 38.3396C29.329 51.7509 40.2104 62.6229 53.6333 62.6229Z" fill="#E1620F"/>
<path d="M0.877319 184.04C3.28286 191.664 6.47642 213.171 19.2092 204.759C37.9144 192.41 59.0665 183.75 81.0897 179.523C87.9745 178.197 95.4814 177.368 101.703 180.6C110.744 185.283 113.813 196.72 114.435 206.914C115.597 226.722 110.993 246.24 105.394 265.095C102.283 275.537 98.3432 279.723 110.454 281.836C114.394 282.54 124.97 285.151 126.671 279.474C134.8 252.414 142.224 224.94 140.025 196.43C138.989 182.921 135.214 168.583 124.763 160.005C115.514 152.422 102.74 150.764 90.7948 151.386C58.5688 153.043 28.4996 168.583 0.918803 184.081L0.877319 184.04Z" fill="#E1620F"/>
<path d="M53.6333 269.902C67.0562 269.902 77.9376 259.03 77.9376 245.618C77.9376 232.207 67.0562 221.335 53.6333 221.335C40.2104 221.335 29.329 232.207 29.329 245.618C29.329 259.03 40.2104 269.902 53.6333 269.902Z" fill="#E1620F"/>
<path d="M171.588 144.341C171.588 80.1931 218.745 33.0768 285.561 33.0768C352.377 33.0768 399.575 80.1931 399.575 144.341C399.575 208.489 352.418 255.605 285.561 255.605C218.703 255.605 171.588 208.489 171.588 144.341ZM345.865 144.341C345.865 108.33 321.934 82.1408 285.602 82.1408C249.27 82.1408 225.339 108.33 225.339 144.341C225.339 180.352 249.27 206.541 285.602 206.541C321.934 206.541 345.865 180.352 345.865 144.341Z" fill="#1D1D1B"/>
<path d="M426.741 159.383C426.741 108.993 456.23 85.4145 499.446 85.4145C542.663 85.4145 571.862 108.662 572.152 159.715V160.709H523.004V159.383C523.004 137.794 513.175 131.246 499.405 131.246C485.635 131.246 475.806 137.794 475.806 159.383V251.337H426.658V159.383H426.741Z" fill="#1D1D1B"/>
<path d="M590.525 43.5195C590.525 25.5349 603.963 12.1086 621.963 12.1086C639.963 12.1086 653.401 25.5349 653.401 43.5195C653.401 61.5041 639.963 74.9303 621.963 74.9303C603.963 74.9303 590.525 61.5041 590.525 43.5195ZM597.41 89.6827H646.558V251.378H597.41V89.6827Z" fill="#1D1D1B"/>
<path d="M677.332 170.53C677.332 121.425 713.374 85.4145 764.471 85.4145C815.568 85.4145 850.614 121.425 850.614 170.53V184.288H728.429C732.369 203.267 746.761 211.762 764.471 211.762C778.572 211.762 789.024 208.82 795.245 199.994H846.01C835.517 233.394 804.743 255.646 764.429 255.646C713.332 255.646 677.291 219.636 677.291 170.572L677.332 170.53ZM800.181 153.167C794.623 136.467 781.517 129.257 764.471 129.257C747.425 129.257 734.318 136.799 729.424 153.167H800.181Z" fill="#1D1D1B"/>
<path d="M876.162 167.547C876.162 113.22 908.264 85.4145 956.085 85.4145C1003.91 85.4145 1036.01 112.889 1036.01 167.547V251.337H986.859V167.547C986.859 142.02 974.416 131.205 956.085 131.205C937.753 131.205 925.31 142.02 925.31 167.547V251.337H876.162V167.547Z" fill="#1D1D1B"/>
<path d="M1061.51 202.273H1110C1110.33 210.768 1116.55 215.036 1129.99 215.036C1145.04 215.036 1149.98 209.815 1149.98 202.936C1149.98 192.12 1138.2 191.167 1123.1 188.847C1100.83 185.573 1064.13 180.02 1064.13 141.067C1064.13 108.33 1090.01 85.4145 1130.28 85.4145C1170.55 85.4145 1195.48 108.662 1196.43 137.794H1148.61C1147.28 130.252 1140.73 126.025 1130.94 126.025C1118.83 126.025 1113.9 132.241 1113.9 138.788C1113.9 148.609 1125.68 149.935 1140.77 152.214C1164.04 155.488 1199.75 161.704 1199.75 199.994C1199.75 233.394 1172.25 255.646 1130.61 255.646C1088.97 255.646 1062.14 233.394 1061.47 202.314L1061.51 202.273Z" fill="#1D1D1B"/>
</svg>
