<svg width="500" height="22" viewBox="0 0 500 22" fill="none" xmlns="http://www.w3.org/2000/svg">
<path d="M7 11.5L10 14.5L15 8.5" stroke="white" stroke-width="1.5" stroke-linecap="round" stroke-linejoin="round"/>
<path d="M21 11C21 12.9778 20.4135 14.9112 19.3147 16.5557C18.2159 18.2002 16.6541 19.4819 14.8268 20.2388C12.9996 20.9957 10.9889 21.1937 9.0491 20.8079C7.10929 20.422 5.32746 19.4696 3.92894 18.0711C2.53041 16.6725 1.578 14.8907 1.19215 12.9509C0.806299 11.0111 1.00433 9.00043 1.76121 7.17317C2.51809 5.34591 3.79981 3.78412 5.4443 2.6853C7.08879 1.58649 9.02219 1 11 1C12.3132 1 13.6136 1.25866 14.8268 1.7612C16.0401 2.26375 17.1425 3.00035 18.0711 3.92893C18.9997 4.85752 19.7363 5.95991 20.2388 7.17317C20.7413 8.38642 21 9.68678 21 11Z" stroke="white" stroke-width="1.5"/>
<path d="M34.0507 16.1758L34.0227 6.94587L35.8167 6.94043L35.84 14.5974L40.5459 14.5831L40.5507 16.1561L34.0507 16.1758ZM44.5691 16.2739C44.0144 16.2756 43.5158 16.1861 43.0733 16.0055C42.6307 15.8161 42.2529 15.5573 41.9399 15.2289C41.6356 14.9005 41.4004 14.5242 41.2345 14.1C41.0685 13.6759 40.9848 13.2298 40.9834 12.7618C40.982 12.2851 41.0629 11.8342 41.2263 11.4091C41.3897 10.9839 41.6226 10.6062 41.9249 10.2759C42.2359 9.94565 42.6121 9.68884 43.0536 9.5055C43.495 9.31349 43.993 9.21665 44.5477 9.21497C45.1023 9.21329 45.5966 9.30712 46.0305 9.49647C46.4731 9.67713 46.8509 9.93166 47.1639 10.26C47.4769 10.5884 47.712 10.9647 47.8693 11.3889C48.0352 11.8131 48.1189 12.2635 48.1204 12.7402C48.1218 13.2082 48.0408 13.6547 47.8775 14.0799C47.7227 14.505 47.4899 14.8827 47.1789 15.213C46.8766 15.5433 46.5047 15.8044 46.0633 15.9964C45.6218 16.1797 45.1238 16.2723 44.5691 16.2739ZM42.7774 12.7564C42.7786 13.155 42.8577 13.5101 43.0146 13.8216C43.1716 14.1245 43.3846 14.3622 43.6538 14.5347C43.923 14.7072 44.2266 14.793 44.5646 14.7919C44.8939 14.7909 45.1927 14.7034 45.4608 14.5292C45.7289 14.3464 45.9405 14.1031 46.0956 13.7993C46.2593 13.4868 46.3406 13.1312 46.3394 12.7326C46.3382 12.3426 46.2548 11.9918 46.0892 11.6803C45.9322 11.3688 45.7192 11.1268 45.45 10.9542C45.1808 10.7817 44.8815 10.696 44.5522 10.697C44.2142 10.698 43.9111 10.7899 43.643 10.9727C43.3749 11.1469 43.1633 11.3902 43.0082 11.7026C42.8531 12.0065 42.7762 12.3577 42.7774 12.7564ZM53.3464 10.8133C52.8177 10.8149 52.3457 10.9203 51.9303 11.1296C51.5149 11.3302 51.2168 11.6214 51.036 12.0033L51.0485 16.1243L49.3065 16.1296L49.2858 9.3176L50.8848 9.31276L50.8892 10.7687C51.1305 10.3 51.437 9.93075 51.8089 9.66096C52.1807 9.39116 52.5746 9.24263 52.9905 9.21537C53.0858 9.21508 53.1595 9.21486 53.2115 9.2147C53.2635 9.21454 53.3069 9.21875 53.3416 9.22731L53.3464 10.8133ZM57.4043 16.235C56.8583 16.2367 56.364 16.1472 55.9215 15.9665C55.4789 15.7772 55.1011 15.5227 54.7882 15.2029C54.4752 14.8746 54.2314 14.5026 54.0568 14.0872C53.8908 13.663 53.8071 13.2169 53.8057 12.7489C53.8037 12.0989 53.9449 11.5048 54.2293 10.9666C54.5223 10.4284 54.937 9.99814 55.4734 9.67584C56.0184 9.34486 56.6592 9.17825 57.3959 9.17601C58.1412 9.17375 58.7787 9.33649 59.3084 9.66422C59.838 9.98328 60.2423 10.4111 60.5213 10.9475C60.8089 11.4753 60.9536 12.0469 60.9555 12.6622C60.9558 12.7662 60.9518 12.8746 60.9435 12.9873C60.9351 13.0913 60.9267 13.178 60.9183 13.2474L55.6533 13.2633C55.689 13.6099 55.7896 13.9129 55.955 14.1724C56.1292 14.4319 56.3464 14.6306 56.6068 14.7684C56.8759 14.8976 57.1621 14.9617 57.4654 14.9608C57.8121 14.9598 58.1368 14.8765 58.4397 14.7109C58.7512 14.5366 58.9628 14.3106 59.0746 14.0329L60.5709 14.4444C60.4073 14.7916 60.1699 15.1 59.8587 15.3696C59.5562 15.6392 59.1971 15.8526 58.7816 16.0098C58.3661 16.1584 57.907 16.2335 57.4043 16.235ZM55.6109 12.1584L59.1729 12.1476C59.1372 11.8011 59.0366 11.5024 58.8712 11.2516C58.7144 10.992 58.5058 10.7933 58.2454 10.6554C57.9849 10.5089 57.6944 10.4361 57.3737 10.4371C57.0617 10.438 56.7759 10.5126 56.5164 10.6607C56.2655 10.8001 56.0581 11.0001 55.8942 11.2606C55.739 11.5124 55.6445 11.8117 55.6109 12.1584ZM72.6091 16.0589L70.8671 16.0642L70.8555 12.2422C70.8538 11.7049 70.7573 11.3108 70.5659 11.0601C70.3831 10.8006 70.127 10.6714 69.7977 10.6724C69.4597 10.6734 69.1351 10.8088 68.8239 11.0784C68.5214 11.3393 68.3058 11.6823 68.1771 12.1073L68.1891 16.0723L66.4471 16.0776L66.4355 12.2556C66.4338 11.7096 66.3373 11.3112 66.1459 11.0605C65.9631 10.8097 65.7071 10.6848 65.3777 10.6858C65.0397 10.6868 64.7151 10.8178 64.4039 11.0788C64.1014 11.3397 63.8857 11.6827 63.757 12.1077L63.7691 16.0857L62.0271 16.091L62.0065 9.27903L63.5794 9.27427L63.5833 10.5353C63.8419 10.0925 64.1876 9.75342 64.6202 9.51811C65.0528 9.27413 65.5507 9.15129 66.1141 9.14958C66.6774 9.14787 67.1155 9.28521 67.4283 9.5616C67.7498 9.83796 67.9545 10.1797 68.0424 10.5867C68.3184 10.1179 68.6683 9.76151 69.0922 9.51755C69.5248 9.26491 70.0097 9.13777 70.5471 9.13614C70.9717 9.13485 71.3143 9.21181 71.5748 9.36702C71.8439 9.51354 72.0525 9.71658 72.2006 9.97613C72.3487 10.227 72.4492 10.5127 72.5022 10.8332C72.5639 11.1537 72.5952 11.4786 72.5962 11.8079L72.6091 16.0589ZM77.2487 16.0449L77.2281 9.23288L78.9701 9.2276L78.9907 16.0396L77.2487 16.0449ZM77.2252 8.28389L77.2199 6.5549L78.9619 6.54961L78.9672 8.27861L77.2252 8.28389ZM84.6446 16.1524C84.1159 16.154 83.6475 16.0385 83.2395 15.8057C82.8401 15.5642 82.5271 15.2402 82.3005 14.8335L82.3126 18.7985L80.5706 18.8038L80.5415 9.22284L82.0625 9.21822L82.0661 10.3882C82.3249 9.98877 82.6532 9.67577 83.0512 9.44923C83.4492 9.21402 83.9038 9.09564 84.4151 9.09409C84.8745 9.0927 85.2951 9.18242 85.677 9.36327C86.0675 9.54408 86.4063 9.79872 86.6933 10.1272C86.9803 10.447 87.2024 10.819 87.3597 11.2432C87.5256 11.6587 87.6093 12.1091 87.6108 12.5944C87.6128 13.2531 87.4846 13.8515 87.2262 14.3896C86.9765 14.9277 86.6268 15.3577 86.1771 15.6798C85.7361 15.9931 85.2252 16.1507 84.6446 16.1524ZM84.0551 14.6722C84.3237 14.6714 84.5662 14.6143 84.7825 14.501C84.9989 14.3877 85.1847 14.2354 85.3402 14.0443C85.5042 13.8445 85.6249 13.6231 85.7022 13.3802C85.7881 13.1286 85.8306 12.8685 85.8298 12.5998C85.8289 12.3138 85.7804 12.0496 85.6844 11.8073C85.597 11.5649 85.4663 11.3529 85.2925 11.1714C85.1185 10.9813 84.9144 10.8346 84.6801 10.7313C84.4545 10.628 84.2073 10.5767 83.9386 10.5775C83.774 10.578 83.6051 10.6089 83.4319 10.6701C83.2674 10.7226 83.1073 10.8011 82.9516 10.9055C82.796 11.01 82.6577 11.1318 82.5367 11.2708C82.4245 11.4098 82.3426 11.5617 82.2911 11.7265L82.296 13.3255C82.4007 13.5766 82.5401 13.8058 82.7141 14.0133C82.8967 14.2207 83.1052 14.3848 83.3396 14.5054C83.5739 14.6173 83.8124 14.6729 84.0551 14.6722ZM91.3108 16.1322C90.7301 16.134 90.1752 16.0403 89.6459 15.8513C89.1167 15.6622 88.6608 15.3819 88.2784 15.0104L88.8989 13.8775C89.3073 14.2056 89.7067 14.4471 90.0971 14.6019C90.4963 14.7567 90.8778 14.8335 91.2418 14.8324C91.5798 14.8314 91.8483 14.7699 92.0473 14.648C92.2549 14.526 92.3584 14.3437 92.3576 14.101C92.3571 13.9364 92.3004 13.8109 92.1875 13.7245C92.0745 13.6296 91.9096 13.5477 91.6927 13.479C91.4845 13.4103 91.2286 13.3331 90.925 13.2474C90.4219 13.0842 90.001 12.9252 89.6626 12.7702C89.3241 12.6152 89.0678 12.421 88.8938 12.1875C88.7284 11.9454 88.6451 11.6379 88.644 11.2653C88.6426 10.8146 88.7541 10.4286 88.9785 10.1073C89.2115 9.77722 89.5314 9.52058 89.9382 9.33735C90.3536 9.15409 90.8387 9.06161 91.3933 9.05993C91.8787 9.05846 92.3382 9.13507 92.772 9.28975C93.2058 9.43577 93.6009 9.67724 93.9572 10.0142L93.2586 11.1213C92.9111 10.8537 92.5812 10.6597 92.2688 10.5393C91.9564 10.4102 91.6399 10.3462 91.3192 10.3472C91.1372 10.3477 90.964 10.3699 90.7994 10.4137C90.6436 10.4575 90.5138 10.5316 90.4101 10.6359C90.3151 10.7315 90.2678 10.8704 90.2684 11.0524C90.2689 11.217 90.3126 11.3469 90.3996 11.442C90.4951 11.5283 90.6341 11.6059 90.8163 11.6747C91.0071 11.7434 91.237 11.8208 91.506 11.9066C92.0524 12.0609 92.5123 12.2199 92.8854 12.3834C93.2672 12.5469 93.5539 12.7497 93.7453 12.9918C93.9366 13.2252 94.033 13.55 94.0342 13.9659C94.0363 14.6419 93.7909 15.1714 93.298 15.5542C92.8052 15.937 92.1428 16.1297 91.3108 16.1322ZM95.1525 13.4426L95.1395 9.17857L96.8815 9.17329L96.8933 13.0603C96.8949 13.5803 96.9914 13.9743 97.1829 14.2424C97.3744 14.5018 97.6564 14.631 98.0291 14.6298C98.2544 14.6292 98.4753 14.5852 98.6917 14.4978C98.9167 14.4018 99.12 14.2625 99.3014 14.08C99.4915 13.8974 99.6512 13.6672 99.7803 13.3895L99.7675 9.16454L101.51 9.15926L101.524 14.0212C101.525 14.2032 101.556 14.3331 101.616 14.411C101.686 14.4888 101.794 14.5361 101.942 14.553L101.946 15.97C101.773 15.9965 101.626 16.0143 101.504 16.0233C101.392 16.041 101.288 16.05 101.192 16.0503C100.88 16.0512 100.625 15.9826 100.425 15.8446C100.234 15.6978 100.12 15.4988 100.085 15.2476L100.044 14.7017C99.7424 15.162 99.3534 15.5142 98.8775 15.7583C98.4016 15.9937 97.8776 16.1123 97.3056 16.114C96.6036 16.1162 96.0699 15.8925 95.7045 15.4429C95.3391 14.9847 95.1551 14.3179 95.1525 13.4426ZM113.843 15.9339L112.101 15.9392L112.09 12.1172C112.088 11.5799 111.992 11.1858 111.8 10.9351C111.617 10.6756 111.361 10.5464 111.032 10.5474C110.694 10.5484 110.369 10.6837 110.058 10.9534C109.756 11.2143 109.54 11.5573 109.411 11.9823L109.423 15.9473L107.681 15.9526L107.67 12.1306C107.668 11.5846 107.571 11.1862 107.38 10.9355C107.197 10.6847 106.941 10.5598 106.612 10.5608C106.274 10.5618 105.949 10.6928 105.638 10.9538C105.336 11.2147 105.12 11.5577 104.991 11.9827L105.003 15.9607L103.261 15.966L103.241 9.15401L104.814 9.14924L104.817 10.4102C105.076 9.96745 105.422 9.6284 105.854 9.39309C106.287 9.14911 106.785 9.02627 107.348 9.02456C107.912 9.02285 108.35 9.16019 108.663 9.43657C108.984 9.71293 109.189 10.0546 109.277 10.4617C109.553 9.99288 109.902 9.63648 110.326 9.39253C110.759 9.13988 111.244 9.01275 111.781 9.01112C112.206 9.00983 112.548 9.08679 112.809 9.242C113.078 9.38852 113.287 9.59156 113.435 9.85111C113.583 10.102 113.683 10.3877 113.736 10.7082C113.798 11.0287 113.829 11.3536 113.83 11.6829L113.843 15.9339ZM118.057 12.5151C118.055 11.8564 118.183 11.2624 118.441 10.7329C118.7 10.1948 119.058 9.76906 119.516 9.45567C119.975 9.14227 120.499 8.98469 121.088 8.9829C121.591 8.98137 122.042 9.10567 122.441 9.3558C122.849 9.59723 123.166 9.90827 123.393 10.2889L123.381 6.41493L125.123 6.40965L125.146 13.9496C125.147 14.1316 125.177 14.2615 125.238 14.3393C125.299 14.4172 125.403 14.4645 125.551 14.4814L125.555 15.8984C125.252 15.96 125.005 15.9911 124.814 15.9916C124.502 15.9926 124.242 15.9154 124.033 15.76C123.834 15.6046 123.72 15.4013 123.694 15.15L123.666 14.7211C123.416 15.1465 123.075 15.4726 122.642 15.6992C122.218 15.9258 121.772 16.0399 121.304 16.0413C120.836 16.0427 120.403 15.953 120.003 15.7722C119.613 15.5914 119.27 15.3411 118.974 15.0213C118.687 14.7015 118.461 14.3296 118.295 13.9054C118.137 13.4725 118.058 13.0091 118.057 12.5151ZM123.402 13.4089L123.397 11.7839C123.31 11.5328 123.171 11.3079 122.979 11.1092C122.788 10.9104 122.575 10.7551 122.341 10.6431C122.107 10.5225 121.872 10.4625 121.638 10.4632C121.37 10.4641 121.127 10.5211 120.911 10.6344C120.695 10.7478 120.504 10.9 120.34 11.0912C120.185 11.2823 120.064 11.5037 119.978 11.7553C119.901 12.0068 119.863 12.2713 119.864 12.5486C119.865 12.826 119.909 13.0902 119.996 13.3412C120.092 13.5836 120.227 13.7955 120.401 13.977C120.575 14.1585 120.775 14.3009 121 14.4042C121.235 14.5075 121.486 14.5587 121.755 14.5579C121.919 14.5574 122.084 14.5309 122.249 14.4784C122.422 14.4172 122.582 14.3387 122.729 14.2429C122.885 14.1385 123.018 14.0167 123.131 13.8777C123.252 13.73 123.342 13.5738 123.402 13.4089ZM130.008 16.0149C129.453 16.0166 128.955 15.9271 128.512 15.7464C128.07 15.5571 127.692 15.2982 127.379 14.9699C127.075 14.6414 126.839 14.2652 126.674 13.841C126.508 13.4168 126.424 12.9707 126.422 12.5027C126.421 12.0261 126.502 11.5752 126.665 11.15C126.829 10.7248 127.062 10.3471 127.364 10.0169C127.675 9.6866 128.051 9.42979 128.493 9.24645C128.934 9.05444 129.432 8.9576 129.987 8.95592C130.541 8.95424 131.036 9.04807 131.47 9.23742C131.912 9.41808 132.29 9.6726 132.603 10.001C132.916 10.3294 133.151 10.7057 133.308 11.1299C133.474 11.554 133.558 12.0044 133.559 12.4811C133.561 12.9491 133.48 13.3957 133.317 13.8208C133.162 14.246 132.929 14.6237 132.618 14.954C132.316 15.2842 131.944 15.5453 131.502 15.7374C131.061 15.9207 130.563 16.0132 130.008 16.0149ZM128.216 12.4973C128.218 12.896 128.297 13.2511 128.454 13.5626C128.611 13.8654 128.824 14.1031 129.093 14.2757C129.362 14.4482 129.666 14.5339 130.004 14.5329C130.333 14.5319 130.632 14.4443 130.9 14.2702C131.168 14.0874 131.38 13.8441 131.535 13.5402C131.698 13.2277 131.78 12.8722 131.778 12.4735C131.777 12.0835 131.694 11.7328 131.528 11.4213C131.371 11.1097 131.158 10.8677 130.889 10.6952C130.62 10.5227 130.321 10.4369 129.991 10.4379C129.653 10.4389 129.35 10.5309 129.082 10.7137C128.814 10.8878 128.602 11.1311 128.447 11.4436C128.292 11.7474 128.215 12.0986 128.216 12.4973ZM134.704 6.3806L136.446 6.37532L136.468 13.6813C136.469 13.9933 136.521 14.2055 136.626 14.3178C136.73 14.4215 136.873 14.4731 137.055 14.4725C137.194 14.4721 137.337 14.4543 137.484 14.4192C137.631 14.3841 137.761 14.3404 137.874 14.288L138.112 15.6133C137.878 15.7267 137.605 15.8142 137.294 15.8758C136.982 15.9374 136.7 15.9686 136.449 15.9694C135.903 15.971 135.478 15.8293 135.174 15.5442C134.878 15.2504 134.729 14.8349 134.728 14.2976L134.704 6.3806ZM142.018 15.9785C141.463 15.9802 140.965 15.8907 140.522 15.71C140.079 15.5207 139.702 15.2618 139.389 14.9334C139.084 14.605 138.849 14.2287 138.683 13.8046C138.517 13.3804 138.434 12.9343 138.432 12.4663C138.431 11.9897 138.512 11.5387 138.675 11.1136C138.838 10.6884 139.071 10.3107 139.374 9.98046C139.685 9.65018 140.061 9.39338 140.502 9.21004C140.944 9.01803 141.442 8.92119 141.996 8.9195C142.551 8.91782 143.045 9.01166 143.479 9.20101C143.922 9.38167 144.3 9.63619 144.613 9.96458C144.926 10.293 145.161 10.6693 145.318 11.0934C145.484 11.5176 145.568 11.968 145.569 12.4447C145.571 12.9127 145.49 13.3593 145.326 13.7844C145.172 14.2096 144.939 14.5873 144.628 14.9176C144.325 15.2478 143.953 15.5089 143.512 15.7009C143.071 15.8843 142.573 15.9768 142.018 15.9785ZM140.226 12.4609C140.227 12.8596 140.306 13.2146 140.463 13.5262C140.62 13.829 140.833 14.0667 141.103 14.2392C141.372 14.4118 141.675 14.4975 142.013 14.4965C142.343 14.4955 142.641 14.4079 142.91 14.2338C143.178 14.0509 143.389 13.8076 143.544 13.5038C143.708 13.1913 143.789 12.8358 143.788 12.4371C143.787 12.0471 143.704 11.6963 143.538 11.3848C143.381 11.0733 143.168 10.8313 142.899 10.6588C142.63 10.4863 142.33 10.4005 142.001 10.4015C141.663 10.4025 141.36 10.4944 141.092 10.6773C140.824 10.8514 140.612 11.0947 140.457 11.4072C140.302 11.711 140.225 12.0622 140.226 12.4609ZM150.795 10.5178C150.266 10.5194 149.794 10.6249 149.379 10.8341C148.964 11.0347 148.666 11.326 148.485 11.7078L148.497 15.8288L146.755 15.8341L146.735 9.02214L148.334 9.01729L148.338 10.4733C148.579 10.0046 148.886 9.63529 149.258 9.36549C149.629 9.0957 150.023 8.94717 150.439 8.91991C150.535 8.91962 150.608 8.91939 150.66 8.91924C150.712 8.91908 150.756 8.92328 150.79 8.93184L150.795 10.5178Z" fill="white"/>
<path d="M181.048 11.5L184.048 14.5L189.048 8.5" stroke="white" stroke-width="1.5" stroke-linecap="round" stroke-linejoin="round"/>
<path d="M195.048 11C195.048 12.9778 194.461 14.9112 193.363 16.5557C192.264 18.2002 190.702 19.4819 188.875 20.2388C187.047 20.9957 185.037 21.1937 183.097 20.8079C181.157 20.422 179.375 19.4696 177.977 18.0711C176.578 16.6725 175.626 14.8907 175.24 12.9509C174.854 11.0111 175.052 9.00043 175.809 7.17317C176.566 5.34591 177.848 3.78412 179.492 2.6853C181.137 1.58649 183.07 1 185.048 1C186.361 1 187.661 1.25866 188.875 1.7612C190.088 2.26375 191.19 3.00035 192.119 3.92893C193.048 4.85752 193.784 5.95991 194.287 7.17317C194.789 8.38642 195.048 9.68678 195.048 11Z" stroke="white" stroke-width="1.5"/>
<path d="M208.099 16.1758L208.071 6.94587L209.865 6.94043L209.888 14.5974L214.594 14.5831L214.599 16.1561L208.099 16.1758ZM218.617 16.2739C218.062 16.2756 217.564 16.1861 217.121 16.0055C216.679 15.8161 216.301 15.5573 215.988 15.2289C215.683 14.9005 215.448 14.5242 215.282 14.1C215.116 13.6759 215.033 13.2298 215.031 12.7618C215.03 12.2851 215.111 11.8342 215.274 11.4091C215.438 10.9839 215.67 10.6062 215.973 10.2759C216.284 9.94565 216.66 9.68884 217.101 9.5055C217.543 9.31349 218.041 9.21665 218.596 9.21497C219.15 9.21329 219.644 9.30712 220.078 9.49647C220.521 9.67713 220.899 9.93166 221.212 10.26C221.525 10.5884 221.76 10.9647 221.917 11.3889C222.083 11.8131 222.167 12.2635 222.168 12.7402C222.17 13.2082 222.089 13.6547 221.925 14.0799C221.771 14.505 221.538 14.8827 221.227 15.213C220.924 15.5433 220.553 15.8044 220.111 15.9964C219.67 16.1797 219.172 16.2723 218.617 16.2739ZM216.825 12.7564C216.826 13.155 216.906 13.5101 217.062 13.8216C217.219 14.1245 217.432 14.3622 217.702 14.5347C217.971 14.7072 218.274 14.793 218.612 14.7919C218.942 14.7909 219.241 14.7034 219.509 14.5292C219.777 14.3464 219.988 14.1031 220.143 13.7993C220.307 13.4868 220.388 13.1312 220.387 12.7326C220.386 12.3426 220.303 11.9918 220.137 11.6803C219.98 11.3688 219.767 11.1268 219.498 10.9542C219.229 10.7817 218.929 10.696 218.6 10.697C218.262 10.698 217.959 10.7899 217.691 10.9727C217.423 11.1469 217.211 11.3902 217.056 11.7026C216.901 12.0065 216.824 12.3577 216.825 12.7564ZM227.394 10.8133C226.866 10.8149 226.394 10.9203 225.978 11.1296C225.563 11.3302 225.265 11.6214 225.084 12.0033L225.096 16.1243L223.354 16.1296L223.334 9.3176L224.933 9.31276L224.937 10.7687C225.178 10.3 225.485 9.93075 225.857 9.66096C226.229 9.39116 226.622 9.24263 227.038 9.21537C227.134 9.21508 227.207 9.21486 227.259 9.2147C227.311 9.21454 227.355 9.21875 227.389 9.22731L227.394 10.8133ZM231.452 16.235C230.906 16.2367 230.412 16.1472 229.969 15.9665C229.527 15.7772 229.149 15.5227 228.836 15.2029C228.523 14.8746 228.279 14.5026 228.105 14.0872C227.939 13.663 227.855 13.2169 227.854 12.7489C227.852 12.0989 227.993 11.5048 228.277 10.9666C228.57 10.4284 228.985 9.99814 229.521 9.67584C230.066 9.34486 230.707 9.17825 231.444 9.17601C232.189 9.17375 232.827 9.33649 233.356 9.66422C233.886 9.98328 234.29 10.4111 234.569 10.9475C234.857 11.4753 235.001 12.0469 235.003 12.6622C235.004 12.7662 235 12.8746 234.991 12.9873C234.983 13.0913 234.975 13.178 234.966 13.2474L229.701 13.2633C229.737 13.6099 229.837 13.9129 230.003 14.1724C230.177 14.4319 230.394 14.6306 230.655 14.7684C230.924 14.8976 231.21 14.9617 231.513 14.9608C231.86 14.9598 232.185 14.8765 232.488 14.7109C232.799 14.5366 233.011 14.3106 233.122 14.0329L234.619 14.4444C234.455 14.7916 234.218 15.1 233.907 15.3696C233.604 15.6392 233.245 15.8526 232.829 16.0098C232.414 16.1584 231.955 16.2335 231.452 16.235ZM229.659 12.1584L233.221 12.1476C233.185 11.8011 233.084 11.5024 232.919 11.2516C232.762 10.992 232.554 10.7933 232.293 10.6554C232.033 10.5089 231.742 10.4361 231.422 10.4371C231.11 10.438 230.824 10.5126 230.564 10.6607C230.313 10.8001 230.106 11.0001 229.942 11.2606C229.787 11.5124 229.692 11.8117 229.659 12.1584ZM246.657 16.0589L244.915 16.0642L244.903 12.2422C244.902 11.7049 244.805 11.3108 244.614 11.0601C244.431 10.8006 244.175 10.6714 243.846 10.6724C243.508 10.6734 243.183 10.8088 242.872 11.0784C242.569 11.3393 242.354 11.6823 242.225 12.1073L242.237 16.0723L240.495 16.0776L240.483 12.2556C240.482 11.7096 240.385 11.3112 240.194 11.0605C240.011 10.8097 239.755 10.6848 239.426 10.6858C239.088 10.6868 238.763 10.8178 238.452 11.0788C238.149 11.3397 237.934 11.6827 237.805 12.1077L237.817 16.0857L236.075 16.091L236.054 9.27903L237.627 9.27427L237.631 10.5353C237.89 10.0925 238.235 9.75342 238.668 9.51811C239.101 9.27413 239.599 9.15129 240.162 9.14958C240.725 9.14787 241.163 9.28521 241.476 9.5616C241.798 9.83796 242.002 10.1797 242.09 10.5867C242.366 10.1179 242.716 9.76151 243.14 9.51755C243.573 9.26491 244.058 9.13777 244.595 9.13614C245.02 9.13485 245.362 9.21181 245.623 9.36702C245.892 9.51354 246.1 9.71658 246.248 9.97613C246.397 10.227 246.497 10.5127 246.55 10.8332C246.612 11.1537 246.643 11.4786 246.644 11.8079L246.657 16.0589ZM251.297 16.0449L251.276 9.23288L253.018 9.2276L253.039 16.0396L251.297 16.0449ZM251.273 8.28389L251.268 6.5549L253.01 6.54961L253.015 8.27861L251.273 8.28389ZM258.692 16.1524C258.164 16.154 257.695 16.0385 257.287 15.8057C256.888 15.5642 256.575 15.2402 256.348 14.8335L256.36 18.7985L254.618 18.8038L254.589 9.22284L256.11 9.21822L256.114 10.3882C256.373 9.98877 256.701 9.67577 257.099 9.44923C257.497 9.21402 257.952 9.09564 258.463 9.09409C258.922 9.0927 259.343 9.18242 259.725 9.36327C260.115 9.54408 260.454 9.79872 260.741 10.1272C261.028 10.447 261.25 10.819 261.408 11.2432C261.573 11.6587 261.657 12.1091 261.659 12.5944C261.661 13.2531 261.532 13.8515 261.274 14.3896C261.024 14.9277 260.675 15.3577 260.225 15.6798C259.784 15.9931 259.273 16.1507 258.692 16.1524ZM258.103 14.6722C258.372 14.6714 258.614 14.6143 258.83 14.501C259.047 14.3877 259.233 14.2354 259.388 14.0443C259.552 13.8445 259.673 13.6231 259.75 13.3802C259.836 13.1286 259.878 12.8685 259.878 12.5998C259.877 12.3138 259.828 12.0496 259.732 11.8073C259.645 11.5649 259.514 11.3529 259.34 11.1714C259.166 10.9813 258.962 10.8346 258.728 10.7313C258.502 10.628 258.255 10.5767 257.986 10.5775C257.822 10.578 257.653 10.6089 257.48 10.6701C257.315 10.7226 257.155 10.8011 256.999 10.9055C256.844 11.01 256.706 11.1318 256.585 11.2708C256.472 11.4098 256.39 11.5617 256.339 11.7265L256.344 13.3255C256.449 13.5766 256.588 13.8058 256.762 14.0133C256.945 14.2207 257.153 14.3848 257.387 14.5054C257.622 14.6173 257.86 14.6729 258.103 14.6722ZM265.359 16.1322C264.778 16.134 264.223 16.0403 263.694 15.8513C263.165 15.6622 262.709 15.3819 262.326 15.0104L262.947 13.8775C263.355 14.2056 263.755 14.4471 264.145 14.6019C264.544 14.7567 264.926 14.8335 265.29 14.8324C265.628 14.8314 265.896 14.7699 266.095 14.648C266.303 14.526 266.406 14.3437 266.405 14.101C266.405 13.9364 266.348 13.8109 266.235 13.7245C266.122 13.6296 265.957 13.5477 265.741 13.479C265.532 13.4103 265.276 13.3331 264.973 13.2474C264.47 13.0842 264.049 12.9252 263.71 12.7702C263.372 12.6152 263.116 12.421 262.942 12.1875C262.776 11.9454 262.693 11.6379 262.692 11.2653C262.69 10.8146 262.802 10.4286 263.026 10.1073C263.259 9.77722 263.579 9.52058 263.986 9.33735C264.401 9.15409 264.887 9.06161 265.441 9.05993C265.927 9.05846 266.386 9.13507 266.82 9.28975C267.254 9.43577 267.649 9.67724 268.005 10.0142L267.306 11.1213C266.959 10.8537 266.629 10.6597 266.317 10.5393C266.004 10.4102 265.688 10.3462 265.367 10.3472C265.185 10.3477 265.012 10.3699 264.847 10.4137C264.691 10.4575 264.562 10.5316 264.458 10.6359C264.363 10.7315 264.316 10.8704 264.316 11.0524C264.317 11.217 264.36 11.3469 264.447 11.442C264.543 11.5283 264.682 11.6059 264.864 11.6747C265.055 11.7434 265.285 11.8208 265.554 11.9066C266.1 12.0609 266.56 12.2199 266.933 12.3834C267.315 12.5469 267.602 12.7497 267.793 12.9918C267.984 13.2252 268.081 13.55 268.082 13.9659C268.084 14.6419 267.839 15.1714 267.346 15.5542C266.853 15.937 266.191 16.1297 265.359 16.1322ZM269.2 13.4426L269.187 9.17857L270.929 9.17329L270.941 13.0603C270.943 13.5803 271.039 13.9743 271.231 14.2424C271.422 14.5018 271.704 14.631 272.077 14.6298C272.302 14.6292 272.523 14.5852 272.74 14.4978C272.965 14.4018 273.168 14.2625 273.349 14.08C273.539 13.8974 273.699 13.6672 273.828 13.3895L273.815 9.16454L275.557 9.15926L275.572 14.0212C275.573 14.2032 275.603 14.3331 275.664 14.411C275.734 14.4888 275.842 14.5361 275.99 14.553L275.994 15.97C275.821 15.9965 275.673 16.0143 275.552 16.0233C275.44 16.041 275.336 16.05 275.24 16.0503C274.928 16.0512 274.672 15.9826 274.473 15.8446C274.282 15.6978 274.168 15.4988 274.133 15.2476L274.092 14.7017C273.79 15.162 273.401 15.5142 272.925 15.7583C272.449 15.9937 271.925 16.1123 271.353 16.114C270.651 16.1162 270.118 15.8925 269.752 15.4429C269.387 14.9847 269.203 14.3179 269.2 13.4426ZM287.891 15.9339L286.149 15.9392L286.138 12.1172C286.136 11.5799 286.039 11.1858 285.848 10.9351C285.665 10.6756 285.409 10.5464 285.08 10.5474C284.742 10.5484 284.417 10.6837 284.106 10.9534C283.803 11.2143 283.588 11.5573 283.459 11.9823L283.471 15.9473L281.729 15.9526L281.718 12.1306C281.716 11.5846 281.619 11.1862 281.428 10.9355C281.245 10.6847 280.989 10.5598 280.66 10.5608C280.322 10.5618 279.997 10.6928 279.686 10.9538C279.383 11.2147 279.168 11.5577 279.039 11.9827L279.051 15.9607L277.309 15.966L277.288 9.15401L278.861 9.14924L278.865 10.4102C279.124 9.96745 279.47 9.6284 279.902 9.39309C280.335 9.14911 280.833 9.02627 281.396 9.02456C281.959 9.02285 282.398 9.16019 282.71 9.43657C283.032 9.71293 283.237 10.0546 283.324 10.4617C283.6 9.99288 283.95 9.63648 284.374 9.39253C284.807 9.13988 285.292 9.01275 285.829 9.01112C286.254 9.00983 286.596 9.08679 286.857 9.242C287.126 9.38852 287.335 9.59156 287.483 9.85111C287.631 10.102 287.731 10.3877 287.784 10.7082C287.846 11.0287 287.877 11.3536 287.878 11.6829L287.891 15.9339ZM292.104 12.5151C292.102 11.8564 292.231 11.2624 292.489 10.7329C292.747 10.1948 293.106 9.76906 293.564 9.45567C294.023 9.14227 294.546 8.98469 295.136 8.9829C295.638 8.98137 296.089 9.10567 296.489 9.3558C296.897 9.59723 297.214 9.90827 297.441 10.2889L297.429 6.41493L299.171 6.40965L299.194 13.9496C299.194 14.1316 299.225 14.2615 299.286 14.3393C299.347 14.4172 299.451 14.4645 299.598 14.4814L299.603 15.8984C299.3 15.96 299.053 15.9911 298.862 15.9916C298.55 15.9926 298.29 15.9154 298.081 15.76C297.881 15.6046 297.768 15.4013 297.741 15.15L297.714 14.7211C297.464 15.1465 297.123 15.4726 296.69 15.6992C296.266 15.9258 295.82 16.0399 295.352 16.0413C294.884 16.0427 294.451 15.953 294.051 15.7722C293.661 15.5914 293.318 15.3411 293.022 15.0213C292.735 14.7015 292.509 14.3296 292.343 13.9054C292.185 13.4725 292.106 13.0091 292.104 12.5151ZM297.45 13.4089L297.445 11.7839C297.358 11.5328 297.218 11.3079 297.027 11.1092C296.836 10.9104 296.623 10.7551 296.389 10.6431C296.154 10.5225 295.92 10.4625 295.686 10.4632C295.418 10.4641 295.175 10.5211 294.959 10.6344C294.742 10.7478 294.552 10.9 294.388 11.0912C294.233 11.2823 294.112 11.5037 294.026 11.7553C293.949 12.0068 293.911 12.2713 293.912 12.5486C293.912 12.826 293.957 13.0902 294.044 13.3412C294.14 13.5836 294.275 13.7955 294.449 13.977C294.623 14.1585 294.823 14.3009 295.048 14.4042C295.282 14.5075 295.534 14.5587 295.803 14.5579C295.967 14.5574 296.132 14.5309 296.296 14.4784C296.47 14.4172 296.63 14.3387 296.777 14.2429C296.932 14.1385 297.066 14.0167 297.179 13.8777C297.299 13.73 297.39 13.5738 297.45 13.4089ZM304.056 16.0149C303.501 16.0166 303.003 15.9271 302.56 15.7464C302.118 15.5571 301.74 15.2982 301.427 14.9699C301.122 14.6414 300.887 14.2652 300.721 13.841C300.555 13.4168 300.472 12.9707 300.47 12.5027C300.469 12.0261 300.55 11.5752 300.713 11.15C300.877 10.7248 301.109 10.3471 301.412 10.0169C301.723 9.6866 302.099 9.42979 302.54 9.24645C302.982 9.05444 303.48 8.9576 304.035 8.95592C304.589 8.95424 305.084 9.04807 305.517 9.23742C305.96 9.41808 306.338 9.6726 306.651 10.001C306.964 10.3294 307.199 10.7057 307.356 11.1299C307.522 11.554 307.606 12.0044 307.607 12.4811C307.609 12.9491 307.528 13.3957 307.364 13.8208C307.21 14.246 306.977 14.6237 306.666 14.954C306.363 15.2842 305.992 15.5453 305.55 15.7374C305.109 15.9207 304.611 16.0132 304.056 16.0149ZM302.264 12.4973C302.266 12.896 302.345 13.2511 302.502 13.5626C302.658 13.8654 302.872 14.1031 303.141 14.2757C303.41 14.4482 303.714 14.5339 304.052 14.5329C304.381 14.5319 304.68 14.4443 304.948 14.2702C305.216 14.0874 305.427 13.8441 305.583 13.5402C305.746 13.2277 305.827 12.8722 305.826 12.4735C305.825 12.0835 305.742 11.7328 305.576 11.4213C305.419 11.1097 305.206 10.8677 304.937 10.6952C304.668 10.5227 304.368 10.4369 304.039 10.4379C303.701 10.4389 303.398 10.5309 303.13 10.7137C302.862 10.8878 302.65 11.1311 302.495 11.4436C302.34 11.7474 302.263 12.0986 302.264 12.4973ZM308.752 6.3806L310.494 6.37532L310.516 13.6813C310.517 13.9933 310.569 14.2055 310.674 14.3178C310.778 14.4215 310.921 14.4731 311.103 14.4725C311.242 14.4721 311.385 14.4543 311.532 14.4192C311.679 14.3841 311.809 14.3404 311.922 14.288L312.16 15.6133C311.926 15.7267 311.653 15.8142 311.341 15.8758C311.03 15.9374 310.748 15.9686 310.497 15.9694C309.951 15.971 309.526 15.8293 309.221 15.5442C308.926 15.2504 308.777 14.8349 308.776 14.2976L308.752 6.3806ZM316.066 15.9785C315.511 15.9802 315.012 15.8907 314.57 15.71C314.127 15.5207 313.75 15.2618 313.437 14.9334C313.132 14.605 312.897 14.2287 312.731 13.8046C312.565 13.3804 312.481 12.9343 312.48 12.4663C312.479 11.9897 312.56 11.5387 312.723 11.1136C312.886 10.6884 313.119 10.3107 313.422 9.98046C313.733 9.65018 314.109 9.39338 314.55 9.21004C314.992 9.01803 315.49 8.92119 316.044 8.9195C316.599 8.91782 317.093 9.01166 317.527 9.20101C317.97 9.38167 318.347 9.63619 318.66 9.96458C318.973 10.293 319.209 10.6693 319.366 11.0934C319.532 11.5176 319.616 11.968 319.617 12.4447C319.618 12.9127 319.537 13.3593 319.374 13.7844C319.219 14.2096 318.987 14.5873 318.676 14.9176C318.373 15.2478 318.001 15.5089 317.56 15.7009C317.118 15.8843 316.62 15.9768 316.066 15.9785ZM314.274 12.4609C314.275 12.8596 314.354 13.2146 314.511 13.5262C314.668 13.829 314.881 14.0667 315.15 14.2392C315.42 14.4118 315.723 14.4975 316.061 14.4965C316.391 14.4955 316.689 14.4079 316.957 14.2338C317.226 14.0509 317.437 13.8076 317.592 13.5038C317.756 13.1913 317.837 12.8358 317.836 12.4371C317.835 12.0471 317.751 11.6963 317.586 11.3848C317.429 11.0733 317.216 10.8313 316.947 10.6588C316.677 10.4863 316.378 10.4005 316.049 10.4015C315.711 10.4025 315.408 10.4944 315.14 10.6773C314.871 10.8514 314.66 11.0947 314.505 11.4072C314.35 11.711 314.273 12.0622 314.274 12.4609ZM324.843 10.5178C324.314 10.5194 323.842 10.6249 323.427 10.8341C323.012 11.0347 322.713 11.326 322.533 11.7078L322.545 15.8288L320.803 15.8341L320.782 9.02214L322.381 9.01729L322.386 10.4733C322.627 10.0046 322.934 9.63529 323.305 9.36549C323.677 9.0957 324.071 8.94717 324.487 8.91991C324.582 8.91962 324.656 8.91939 324.708 8.91924C324.76 8.91908 324.803 8.92328 324.838 8.93184L324.843 10.5178Z" fill="white"/>
<path d="M355.096 11.5L358.096 14.5L363.096 8.5" stroke="white" stroke-width="1.5" stroke-linecap="round" stroke-linejoin="round"/>
<path d="M369.096 11C369.096 12.9778 368.509 14.9112 367.411 16.5557C366.312 18.2002 364.75 19.4819 362.923 20.2388C361.096 20.9957 359.085 21.1937 357.145 20.8079C355.205 20.422 353.423 19.4696 352.025 18.0711C350.626 16.6725 349.674 14.8907 349.288 12.9509C348.902 11.0111 349.1 9.00043 349.857 7.17317C350.614 5.34591 351.896 3.78412 353.54 2.6853C355.185 1.58649 357.118 1 359.096 1C360.409 1 361.71 1.25866 362.923 1.7612C364.136 2.26375 365.238 3.00035 366.167 3.92893C367.096 4.85752 367.832 5.95991 368.335 7.17317C368.837 8.38642 369.096 9.68678 369.096 11Z" stroke="white" stroke-width="1.5"/>
<path d="M382.147 16.1758L382.119 6.94587L383.913 6.94043L383.936 14.5974L388.642 14.5831L388.647 16.1561L382.147 16.1758ZM392.665 16.2739C392.11 16.2756 391.612 16.1861 391.169 16.0055C390.727 15.8161 390.349 15.5573 390.036 15.2289C389.732 14.9005 389.496 14.5242 389.33 14.1C389.164 13.6759 389.081 13.2298 389.079 12.7618C389.078 12.2851 389.159 11.8342 389.322 11.4091C389.486 10.9839 389.719 10.6062 390.021 10.2759C390.332 9.94565 390.708 9.68884 391.15 9.5055C391.591 9.31349 392.089 9.21665 392.644 9.21497C393.198 9.21329 393.693 9.30712 394.126 9.49647C394.569 9.67713 394.947 9.93166 395.26 10.26C395.573 10.5884 395.808 10.9647 395.965 11.3889C396.131 11.8131 396.215 12.2635 396.216 12.7402C396.218 13.2082 396.137 13.6547 395.973 14.0799C395.819 14.505 395.586 14.8827 395.275 15.213C394.972 15.5433 394.601 15.8044 394.159 15.9964C393.718 16.1797 393.22 16.2723 392.665 16.2739ZM390.873 12.7564C390.875 13.155 390.954 13.5101 391.111 13.8216C391.268 14.1245 391.481 14.3622 391.75 14.5347C392.019 14.7072 392.323 14.793 392.661 14.7919C392.99 14.7909 393.289 14.7034 393.557 14.5292C393.825 14.3464 394.036 14.1031 394.192 13.7993C394.355 13.4868 394.437 13.1312 394.435 12.7326C394.434 12.3426 394.351 11.9918 394.185 11.6803C394.028 11.3688 393.815 11.1268 393.546 10.9542C393.277 10.7817 392.977 10.696 392.648 10.697C392.31 10.698 392.007 10.7899 391.739 10.9727C391.471 11.1469 391.259 11.3902 391.104 11.7026C390.949 12.0065 390.872 12.3577 390.873 12.7564ZM401.442 10.8133C400.914 10.8149 400.442 10.9203 400.026 11.1296C399.611 11.3302 399.313 11.6214 399.132 12.0033L399.144 16.1243L397.402 16.1296L397.382 9.3176L398.981 9.31276L398.985 10.7687C399.226 10.3 399.533 9.93075 399.905 9.66096C400.277 9.39116 400.671 9.24263 401.086 9.21537C401.182 9.21508 401.255 9.21486 401.307 9.2147C401.359 9.21454 401.403 9.21875 401.437 9.22731L401.442 10.8133ZM405.5 16.235C404.954 16.2367 404.46 16.1472 404.017 15.9665C403.575 15.7772 403.197 15.5227 402.884 15.2029C402.571 14.8746 402.327 14.5026 402.153 14.0872C401.987 13.663 401.903 13.2169 401.902 12.7489C401.9 12.0989 402.041 11.5048 402.325 10.9666C402.618 10.4284 403.033 9.99814 403.569 9.67584C404.114 9.34486 404.755 9.17825 405.492 9.17601C406.237 9.17375 406.875 9.33649 407.404 9.66422C407.934 9.98328 408.338 10.4111 408.617 10.9475C408.905 11.4753 409.05 12.0469 409.051 12.6622C409.052 12.7662 409.048 12.8746 409.039 12.9873C409.031 13.0913 409.023 13.178 409.014 13.2474L403.749 13.2633C403.785 13.6099 403.886 13.9129 404.051 14.1724C404.225 14.4319 404.442 14.6306 404.703 14.7684C404.972 14.8976 405.258 14.9617 405.561 14.9608C405.908 14.9598 406.233 14.8765 406.536 14.7109C406.847 14.5366 407.059 14.3106 407.171 14.0329L408.667 14.4444C408.503 14.7916 408.266 15.1 407.955 15.3696C407.652 15.6392 407.293 15.8526 406.878 16.0098C406.462 16.1584 406.003 16.2335 405.5 16.235ZM403.707 12.1584L407.269 12.1476C407.233 11.8011 407.133 11.5024 406.967 11.2516C406.81 10.992 406.602 10.7933 406.341 10.6554C406.081 10.5089 405.79 10.4361 405.47 10.4371C405.158 10.438 404.872 10.5126 404.612 10.6607C404.361 10.8001 404.154 11.0001 403.99 11.2606C403.835 11.5124 403.74 11.8117 403.707 12.1584ZM420.705 16.0589L418.963 16.0642L418.951 12.2422C418.95 11.7049 418.853 11.3108 418.662 11.0601C418.479 10.8006 418.223 10.6714 417.894 10.6724C417.556 10.6734 417.231 10.8088 416.92 11.0784C416.617 11.3393 416.402 11.6823 416.273 12.1073L416.285 16.0723L414.543 16.0776L414.531 12.2556C414.53 11.7096 414.433 11.3112 414.242 11.0605C414.059 10.8097 413.803 10.6848 413.474 10.6858C413.136 10.6868 412.811 10.8178 412.5 11.0788C412.197 11.3397 411.982 11.6827 411.853 12.1077L411.865 16.0857L410.123 16.091L410.102 9.27903L411.675 9.27427L411.679 10.5353C411.938 10.0925 412.284 9.75342 412.716 9.51811C413.149 9.27413 413.647 9.15129 414.21 9.14958C414.773 9.14787 415.211 9.28521 415.524 9.5616C415.846 9.83796 416.05 10.1797 416.138 10.5867C416.414 10.1179 416.764 9.76151 417.188 9.51755C417.621 9.26491 418.106 9.13777 418.643 9.13614C419.068 9.13485 419.41 9.21181 419.671 9.36702C419.94 9.51354 420.148 9.71658 420.297 9.97613C420.445 10.227 420.545 10.5127 420.598 10.8332C420.66 11.1537 420.691 11.4786 420.692 11.8079L420.705 16.0589ZM425.345 16.0449L425.324 9.23288L427.066 9.2276L427.087 16.0396L425.345 16.0449ZM425.321 8.28389L425.316 6.5549L427.058 6.54961L427.063 8.27861L425.321 8.28389ZM432.74 16.1524C432.212 16.154 431.743 16.0385 431.335 15.8057C430.936 15.5642 430.623 15.2402 430.396 14.8335L430.409 18.7985L428.667 18.8038L428.637 9.22284L430.158 9.21822L430.162 10.3882C430.421 9.98877 430.749 9.67577 431.147 9.44923C431.545 9.21402 432 9.09564 432.511 9.09409C432.97 9.0927 433.391 9.18242 433.773 9.36327C434.163 9.54408 434.502 9.79872 434.789 10.1272C435.076 10.447 435.298 10.819 435.456 11.2432C435.622 11.6587 435.705 12.1091 435.707 12.5944C435.709 13.2531 435.581 13.8515 435.322 14.3896C435.072 14.9277 434.723 15.3577 434.273 15.6798C433.832 15.9931 433.321 16.1507 432.74 16.1524ZM432.151 14.6722C432.42 14.6714 432.662 14.6143 432.878 14.501C433.095 14.3877 433.281 14.2354 433.436 14.0443C433.6 13.8445 433.721 13.6231 433.798 13.3802C433.884 13.1286 433.927 12.8685 433.926 12.5998C433.925 12.3138 433.876 12.0496 433.78 11.8073C433.693 11.5649 433.562 11.3529 433.388 11.1714C433.214 10.9813 433.01 10.8346 432.776 10.7313C432.55 10.628 432.303 10.5767 432.035 10.5775C431.87 10.578 431.701 10.6089 431.528 10.6701C431.363 10.7226 431.203 10.8011 431.048 10.9055C430.892 11.01 430.754 11.1318 430.633 11.2708C430.52 11.4098 430.439 11.5617 430.387 11.7265L430.392 13.3255C430.497 13.5766 430.636 13.8058 430.81 14.0133C430.993 14.2207 431.201 14.3848 431.435 14.5054C431.67 14.6173 431.908 14.6729 432.151 14.6722ZM439.407 16.1322C438.826 16.134 438.271 16.0403 437.742 15.8513C437.213 15.6622 436.757 15.3819 436.374 15.0104L436.995 13.8775C437.403 14.2056 437.803 14.4471 438.193 14.6019C438.592 14.7567 438.974 14.8335 439.338 14.8324C439.676 14.8314 439.944 14.7699 440.143 14.648C440.351 14.526 440.454 14.3437 440.454 14.101C440.453 13.9364 440.396 13.8109 440.283 13.7245C440.17 13.6296 440.006 13.5477 439.789 13.479C439.58 13.4103 439.325 13.3331 439.021 13.2474C438.518 13.0842 438.097 12.9252 437.759 12.7702C437.42 12.6152 437.164 12.421 436.99 12.1875C436.824 11.9454 436.741 11.6379 436.74 11.2653C436.739 10.8146 436.85 10.4286 437.074 10.1073C437.307 9.77722 437.627 9.52058 438.034 9.33735C438.45 9.15409 438.935 9.06161 439.489 9.05993C439.975 9.05846 440.434 9.13507 440.868 9.28975C441.302 9.43577 441.697 9.67724 442.053 10.0142L441.355 11.1213C441.007 10.8537 440.677 10.6597 440.365 10.5393C440.052 10.4102 439.736 10.3462 439.415 10.3472C439.233 10.3477 439.06 10.3699 438.895 10.4137C438.74 10.4575 438.61 10.5316 438.506 10.6359C438.411 10.7315 438.364 10.8704 438.364 11.0524C438.365 11.217 438.409 11.3469 438.495 11.442C438.591 11.5283 438.73 11.6059 438.912 11.6747C439.103 11.7434 439.333 11.8208 439.602 11.9066C440.148 12.0609 440.608 12.2199 440.981 12.3834C441.363 12.5469 441.65 12.7497 441.841 12.9918C442.033 13.2252 442.129 13.55 442.13 13.9659C442.132 14.6419 441.887 15.1714 441.394 15.5542C440.901 15.937 440.239 16.1297 439.407 16.1322ZM443.248 13.4426L443.235 9.17857L444.977 9.17329L444.989 13.0603C444.991 13.5803 445.087 13.9743 445.279 14.2424C445.47 14.5018 445.752 14.631 446.125 14.6298C446.35 14.6292 446.571 14.5852 446.788 14.4978C447.013 14.4018 447.216 14.2625 447.397 14.08C447.587 13.8974 447.747 13.6672 447.876 13.3895L447.863 9.16454L449.605 9.15926L449.62 14.0212C449.621 14.2032 449.651 14.3331 449.712 14.411C449.782 14.4888 449.89 14.5361 450.038 14.553L450.042 15.97C449.869 15.9965 449.722 16.0143 449.6 16.0233C449.488 16.041 449.384 16.05 449.288 16.0503C448.976 16.0512 448.72 15.9826 448.521 15.8446C448.33 15.6978 448.216 15.4988 448.181 15.2476L448.14 14.7017C447.838 15.162 447.449 15.5142 446.973 15.7583C446.497 15.9937 445.974 16.1123 445.402 16.114C444.7 16.1162 444.166 15.8925 443.8 15.4429C443.435 14.9847 443.251 14.3179 443.248 13.4426ZM461.939 15.9339L460.197 15.9392L460.186 12.1172C460.184 11.5799 460.087 11.1858 459.896 10.9351C459.713 10.6756 459.457 10.5464 459.128 10.5474C458.79 10.5484 458.465 10.6837 458.154 10.9534C457.852 11.2143 457.636 11.5573 457.507 11.9823L457.519 15.9473L455.777 15.9526L455.766 12.1306C455.764 11.5846 455.667 11.1862 455.476 10.9355C455.293 10.6847 455.037 10.5598 454.708 10.5608C454.37 10.5618 454.045 10.6928 453.734 10.9538C453.432 11.2147 453.216 11.5577 453.087 11.9827L453.099 15.9607L451.357 15.966L451.337 9.15401L452.91 9.14924L452.913 10.4102C453.172 9.96745 453.518 9.6284 453.95 9.39309C454.383 9.14911 454.881 9.02627 455.444 9.02456C456.008 9.02285 456.446 9.16019 456.758 9.43657C457.08 9.71293 457.285 10.0546 457.373 10.4617C457.648 9.99288 457.998 9.63648 458.422 9.39253C458.855 9.13988 459.34 9.01275 459.877 9.01112C460.302 9.00983 460.644 9.08679 460.905 9.242C461.174 9.38852 461.383 9.59156 461.531 9.85111C461.679 10.102 461.779 10.3877 461.832 10.7082C461.894 11.0287 461.925 11.3536 461.926 11.6829L461.939 15.9339ZM466.153 12.5151C466.151 11.8564 466.279 11.2624 466.537 10.7329C466.795 10.1948 467.154 9.76906 467.612 9.45567C468.071 9.14227 468.594 8.98469 469.184 8.9829C469.686 8.98137 470.138 9.10567 470.537 9.3558C470.945 9.59723 471.262 9.90827 471.489 10.2889L471.477 6.41493L473.219 6.40965L473.242 13.9496C473.242 14.1316 473.273 14.2615 473.334 14.3393C473.395 14.4172 473.499 14.4645 473.647 14.4814L473.651 15.8984C473.348 15.96 473.101 15.9911 472.91 15.9916C472.598 15.9926 472.338 15.9154 472.129 15.76C471.93 15.6046 471.816 15.4013 471.79 15.15L471.762 14.7211C471.512 15.1465 471.171 15.4726 470.738 15.6992C470.314 15.9258 469.868 16.0399 469.4 16.0413C468.932 16.0427 468.499 15.953 468.099 15.7722C467.709 15.5914 467.366 15.3411 467.07 15.0213C466.783 14.7015 466.557 14.3296 466.391 13.9054C466.233 13.4725 466.154 13.0091 466.153 12.5151ZM471.498 13.4089L471.493 11.7839C471.406 11.5328 471.267 11.3079 471.075 11.1092C470.884 10.9104 470.671 10.7551 470.437 10.6431C470.202 10.5225 469.968 10.4625 469.734 10.4632C469.466 10.4641 469.223 10.5211 469.007 10.6344C468.791 10.7478 468.6 10.9 468.436 11.0912C468.281 11.2823 468.16 11.5037 468.074 11.7553C467.997 12.0068 467.959 12.2713 467.96 12.5486C467.96 12.826 468.005 13.0902 468.092 13.3412C468.188 13.5836 468.323 13.7955 468.497 13.977C468.671 14.1585 468.871 14.3009 469.096 14.4042C469.331 14.5075 469.582 14.5587 469.851 14.5579C470.015 14.5574 470.18 14.5309 470.344 14.4784C470.518 14.4172 470.678 14.3387 470.825 14.2429C470.98 14.1385 471.114 14.0167 471.227 13.8777C471.348 13.73 471.438 13.5738 471.498 13.4089ZM478.104 16.0149C477.549 16.0166 477.051 15.9271 476.608 15.7464C476.166 15.5571 475.788 15.2982 475.475 14.9699C475.171 14.6414 474.935 14.2652 474.769 13.841C474.604 13.4168 474.52 12.9707 474.518 12.5027C474.517 12.0261 474.598 11.5752 474.761 11.15C474.925 10.7248 475.158 10.3471 475.46 10.0169C475.771 9.6866 476.147 9.42979 476.589 9.24645C477.03 9.05444 477.528 8.9576 478.083 8.95592C478.637 8.95424 479.132 9.04807 479.566 9.23742C480.008 9.41808 480.386 9.6726 480.699 10.001C481.012 10.3294 481.247 10.7057 481.404 11.1299C481.57 11.554 481.654 12.0044 481.655 12.4811C481.657 12.9491 481.576 13.3957 481.412 13.8208C481.258 14.246 481.025 14.6237 480.714 14.954C480.412 15.2842 480.04 15.5453 479.598 15.7374C479.157 15.9207 478.659 16.0132 478.104 16.0149ZM476.312 12.4973C476.314 12.896 476.393 13.2511 476.55 13.5626C476.707 13.8654 476.92 14.1031 477.189 14.2757C477.458 14.4482 477.762 14.5339 478.1 14.5329C478.429 14.5319 478.728 14.4443 478.996 14.2702C479.264 14.0874 479.476 13.8441 479.631 13.5402C479.794 13.2277 479.876 12.8722 479.874 12.4735C479.873 12.0835 479.79 11.7328 479.624 11.4213C479.467 11.1097 479.254 10.8677 478.985 10.6952C478.716 10.5227 478.417 10.4369 478.087 10.4379C477.749 10.4389 477.446 10.5309 477.178 10.7137C476.91 10.8878 476.698 11.1311 476.543 11.4436C476.388 11.7474 476.311 12.0986 476.312 12.4973ZM482.8 6.3806L484.542 6.37532L484.564 13.6813C484.565 13.9933 484.617 14.2055 484.722 14.3178C484.826 14.4215 484.969 14.4731 485.151 14.4725C485.29 14.4721 485.433 14.4543 485.58 14.4192C485.727 14.3841 485.857 14.3404 485.97 14.288L486.208 15.6133C485.974 15.7267 485.701 15.8142 485.389 15.8758C485.078 15.9374 484.796 15.9686 484.545 15.9694C483.999 15.971 483.574 15.8293 483.269 15.5442C482.974 15.2504 482.825 14.8349 482.824 14.2976L482.8 6.3806ZM490.114 15.9785C489.559 15.9802 489.061 15.8907 488.618 15.71C488.175 15.5207 487.798 15.2618 487.485 14.9334C487.18 14.605 486.945 14.2287 486.779 13.8046C486.613 13.3804 486.53 12.9343 486.528 12.4663C486.527 11.9897 486.608 11.5387 486.771 11.1136C486.934 10.6884 487.167 10.3107 487.47 9.98046C487.781 9.65018 488.157 9.39338 488.598 9.21004C489.04 9.01803 489.538 8.92119 490.092 8.9195C490.647 8.91782 491.141 9.01166 491.575 9.20101C492.018 9.38167 492.396 9.63619 492.709 9.96458C493.022 10.293 493.257 10.6693 493.414 11.0934C493.58 11.5176 493.664 11.968 493.665 12.4447C493.667 12.9127 493.586 13.3593 493.422 13.7844C493.267 14.2096 493.035 14.5873 492.724 14.9176C492.421 15.2478 492.049 15.5089 491.608 15.7009C491.167 15.8843 490.668 15.9768 490.114 15.9785ZM488.322 12.4609C488.323 12.8596 488.402 13.2146 488.559 13.5262C488.716 13.829 488.929 14.0667 489.199 14.2392C489.468 14.4118 489.771 14.4975 490.109 14.4965C490.439 14.4955 490.737 14.4079 491.006 14.2338C491.274 14.0509 491.485 13.8076 491.64 13.5038C491.804 13.1913 491.885 12.8358 491.884 12.4371C491.883 12.0471 491.799 11.6963 491.634 11.3848C491.477 11.0733 491.264 10.8313 490.995 10.6588C490.725 10.4863 490.426 10.4005 490.097 10.4015C489.759 10.4025 489.456 10.4944 489.188 10.6773C488.92 10.8514 488.708 11.0947 488.553 11.4072C488.398 11.711 488.321 12.0622 488.322 12.4609ZM498.891 10.5178C498.362 10.5194 497.89 10.6249 497.475 10.8341C497.06 11.0347 496.762 11.326 496.581 11.7078L496.593 15.8288L494.851 15.8341L494.831 9.02214L496.43 9.01729L496.434 10.4733C496.675 10.0046 496.982 9.63529 497.354 9.36549C497.725 9.0957 498.119 8.94717 498.535 8.91991C498.631 8.91962 498.704 8.91939 498.756 8.91924C498.808 8.91908 498.852 8.92328 498.886 8.93184L498.891 10.5178Z" fill="white"/>
</svg>
