<svg width="1295" height="1829" viewBox="0 0 1295 1829" fill="none" xmlns="http://www.w3.org/2000/svg">
<rect width="814" height="1080" transform="translate(227 217)" fill="#EE7213"/>
<path d="M382.9 714.52C385.26 714.96 387.2 716.14 388.72 718.06C390.24 719.98 391 722.18 391 724.66C391 726.9 390.44 728.88 389.32 730.6C388.24 732.28 386.66 733.6 384.58 734.56C382.5 735.52 380.04 736 377.2 736H359.14V694.12H376.42C379.26 694.12 381.7 694.58 383.74 695.5C385.82 696.42 387.38 697.7 388.42 699.34C389.5 700.98 390.04 702.84 390.04 704.92C390.04 707.36 389.38 709.4 388.06 711.04C386.78 712.68 385.06 713.84 382.9 714.52ZM367.54 711.4H375.22C377.22 711.4 378.76 710.96 379.84 710.08C380.92 709.16 381.46 707.86 381.46 706.18C381.46 704.5 380.92 703.2 379.84 702.28C378.76 701.36 377.22 700.9 375.22 700.9H367.54V711.4ZM376 729.16C378.04 729.16 379.62 728.68 380.74 727.72C381.9 726.76 382.48 725.4 382.48 723.64C382.48 721.84 381.88 720.44 380.68 719.44C379.48 718.4 377.86 717.88 375.82 717.88H367.54V729.16H376ZM401.955 698.8C400.475 698.8 399.235 698.34 398.235 697.42C397.275 696.46 396.795 695.28 396.795 693.88C396.795 692.48 397.275 691.32 398.235 690.4C399.235 689.44 400.475 688.96 401.955 688.96C403.435 688.96 404.655 689.44 405.615 690.4C406.615 691.32 407.115 692.48 407.115 693.88C407.115 695.28 406.615 696.46 405.615 697.42C404.655 698.34 403.435 698.8 401.955 698.8ZM406.095 702.76V736H397.695V702.76H406.095ZM445.294 718.66C445.294 719.86 445.214 720.94 445.054 721.9H420.754C420.954 724.3 421.794 726.18 423.274 727.54C424.754 728.9 426.574 729.58 428.734 729.58C431.854 729.58 434.074 728.24 435.394 725.56H444.454C443.494 728.76 441.654 731.4 438.934 733.48C436.214 735.52 432.874 736.54 428.914 736.54C425.714 736.54 422.834 735.84 420.274 734.44C417.754 733 415.774 730.98 414.334 728.38C412.934 725.78 412.234 722.78 412.234 719.38C412.234 715.94 412.934 712.92 414.334 710.32C415.734 707.72 417.694 705.72 420.214 704.32C422.734 702.92 425.634 702.22 428.914 702.22C432.074 702.22 434.894 702.9 437.374 704.26C439.894 705.62 441.834 707.56 443.194 710.08C444.594 712.56 445.294 715.42 445.294 718.66ZM436.594 716.26C436.554 714.1 435.774 712.38 434.254 711.1C432.734 709.78 430.874 709.12 428.674 709.12C426.594 709.12 424.834 709.76 423.394 711.04C421.994 712.28 421.134 714.02 420.814 716.26H436.594ZM469.845 702.28C473.805 702.28 477.005 703.54 479.445 706.06C481.885 708.54 483.105 712.02 483.105 716.5V736H474.705V717.64C474.705 715 474.045 712.98 472.725 711.58C471.405 710.14 469.605 709.42 467.325 709.42C465.005 709.42 463.165 710.14 461.805 711.58C460.485 712.98 459.825 715 459.825 717.64V736H451.425V702.76H459.825V706.9C460.945 705.46 462.365 704.34 464.085 703.54C465.845 702.7 467.765 702.28 469.845 702.28ZM504.953 728.26L513.353 702.76H522.293L509.993 736H499.793L487.553 702.76H496.553L504.953 728.26ZM557.911 718.66C557.911 719.86 557.831 720.94 557.671 721.9H533.371C533.571 724.3 534.411 726.18 535.891 727.54C537.371 728.9 539.191 729.58 541.351 729.58C544.471 729.58 546.691 728.24 548.011 725.56H557.071C556.111 728.76 554.271 731.4 551.551 733.48C548.831 735.52 545.491 736.54 541.531 736.54C538.331 736.54 535.451 735.84 532.891 734.44C530.371 733 528.391 730.98 526.951 728.38C525.551 725.78 524.851 722.78 524.851 719.38C524.851 715.94 525.551 712.92 526.951 710.32C528.351 707.72 530.311 705.72 532.831 704.32C535.351 702.92 538.251 702.22 541.531 702.22C544.691 702.22 547.511 702.9 549.991 704.26C552.511 705.62 554.451 707.56 555.811 710.08C557.211 712.56 557.911 715.42 557.911 718.66ZM549.211 716.26C549.171 714.1 548.391 712.38 546.871 711.1C545.351 709.78 543.491 709.12 541.291 709.12C539.211 709.12 537.451 709.76 536.011 711.04C534.611 712.28 533.751 714.02 533.431 716.26H549.211ZM582.462 702.28C586.422 702.28 589.622 703.54 592.062 706.06C594.502 708.54 595.722 712.02 595.722 716.5V736H587.322V717.64C587.322 715 586.662 712.98 585.342 711.58C584.022 710.14 582.222 709.42 579.942 709.42C577.622 709.42 575.782 710.14 574.422 711.58C573.102 712.98 572.442 715 572.442 717.64V736H564.042V702.76H572.442V706.9C573.562 705.46 574.982 704.34 576.702 703.54C578.462 702.7 580.382 702.28 582.462 702.28ZM635.09 702.76V736H626.63V731.8C625.55 733.24 624.13 734.38 622.37 735.22C620.65 736.02 618.77 736.42 616.73 736.42C614.13 736.42 611.83 735.88 609.83 734.8C607.83 733.68 606.25 732.06 605.09 729.94C603.97 727.78 603.41 725.22 603.41 722.26V702.76H611.81V721.06C611.81 723.7 612.47 725.74 613.79 727.18C615.11 728.58 616.91 729.28 619.19 729.28C621.51 729.28 623.33 728.58 624.65 727.18C625.97 725.74 626.63 723.7 626.63 721.06V702.76H635.09ZM674.278 718.66C674.278 719.86 674.198 720.94 674.038 721.9H649.738C649.938 724.3 650.778 726.18 652.258 727.54C653.738 728.9 655.558 729.58 657.718 729.58C660.838 729.58 663.058 728.24 664.378 725.56H673.438C672.478 728.76 670.638 731.4 667.918 733.48C665.198 735.52 661.858 736.54 657.898 736.54C654.698 736.54 651.818 735.84 649.258 734.44C646.738 733 644.758 730.98 643.318 728.38C641.918 725.78 641.218 722.78 641.218 719.38C641.218 715.94 641.918 712.92 643.318 710.32C644.718 707.72 646.678 705.72 649.198 704.32C651.718 702.92 654.618 702.22 657.898 702.22C661.058 702.22 663.878 702.9 666.358 704.26C668.878 705.62 670.818 707.56 672.178 710.08C673.578 712.56 674.278 715.42 674.278 718.66ZM665.578 716.26C665.538 714.1 664.758 712.38 663.238 711.1C661.718 709.78 659.858 709.12 657.658 709.12C655.578 709.12 653.818 709.76 652.378 711.04C650.978 712.28 650.118 714.02 649.798 716.26H665.578ZM692.546 719.38C692.546 715.94 693.246 712.94 694.646 710.38C696.046 707.78 697.986 705.78 700.466 704.38C702.946 702.94 705.786 702.22 708.986 702.22C713.106 702.22 716.506 703.26 719.186 705.34C721.906 707.38 723.726 710.26 724.646 713.98H715.586C715.106 712.54 714.286 711.42 713.126 710.62C712.006 709.78 710.606 709.36 708.926 709.36C706.526 709.36 704.626 710.24 703.226 712C701.826 713.72 701.126 716.18 701.126 719.38C701.126 722.54 701.826 725 703.226 726.76C704.626 728.48 706.526 729.34 708.926 729.34C712.326 729.34 714.546 727.82 715.586 724.78H724.646C723.726 728.38 721.906 731.24 719.186 733.36C716.466 735.48 713.066 736.54 708.986 736.54C705.786 736.54 702.946 735.84 700.466 734.44C697.986 733 696.046 731 694.646 728.44C693.246 725.84 692.546 722.82 692.546 719.38ZM749.52 702.28C752.04 702.28 754.28 702.84 756.24 703.96C758.2 705.04 759.72 706.66 760.8 708.82C761.92 710.94 762.48 713.5 762.48 716.5V736H754.08V717.64C754.08 715 753.42 712.98 752.1 711.58C750.78 710.14 748.98 709.42 746.7 709.42C744.38 709.42 742.54 710.14 741.18 711.58C739.86 712.98 739.2 715 739.2 717.64V736H730.8V691.6H739.2V706.9C740.28 705.46 741.72 704.34 743.52 703.54C745.32 702.7 747.32 702.28 749.52 702.28ZM801.368 718.66C801.368 719.86 801.288 720.94 801.128 721.9H776.828C777.028 724.3 777.868 726.18 779.348 727.54C780.828 728.9 782.648 729.58 784.808 729.58C787.928 729.58 790.148 728.24 791.468 725.56H800.528C799.568 728.76 797.728 731.4 795.008 733.48C792.288 735.52 788.948 736.54 784.988 736.54C781.788 736.54 778.908 735.84 776.348 734.44C773.828 733 771.848 730.98 770.408 728.38C769.008 725.78 768.308 722.78 768.308 719.38C768.308 715.94 769.008 712.92 770.408 710.32C771.808 707.72 773.768 705.72 776.288 704.32C778.808 702.92 781.708 702.22 784.988 702.22C788.148 702.22 790.968 702.9 793.448 704.26C795.968 705.62 797.908 707.56 799.268 710.08C800.668 712.56 801.368 715.42 801.368 718.66ZM792.668 716.26C792.628 714.1 791.848 712.38 790.328 711.1C788.808 709.78 786.948 709.12 784.748 709.12C782.668 709.12 780.908 709.76 779.468 711.04C778.068 712.28 777.208 714.02 776.888 716.26H792.668ZM815.179 729.1H829.999V736H805.639V729.22L820.159 709.66H805.699V702.76H829.819V709.54L815.179 729.1ZM390.37 817.63C384.49 817.63 379.09 816.25 374.17 813.49C369.25 810.73 365.35 806.92 362.47 802.06C359.59 797.14 358.15 791.59 358.15 785.41C358.15 779.29 359.59 773.8 362.47 768.94C365.35 764.02 369.25 760.18 374.17 757.42C379.09 754.66 384.49 753.28 390.37 753.28C396.31 753.28 401.71 754.66 406.57 757.42C411.49 760.18 415.36 764.02 418.18 768.94C421.06 773.8 422.5 779.29 422.5 785.41C422.5 791.59 421.06 797.14 418.18 802.06C415.36 806.92 411.49 810.73 406.57 813.49C401.65 816.25 396.25 817.63 390.37 817.63ZM390.37 806.38C394.15 806.38 397.48 805.54 400.36 803.86C403.24 802.12 405.49 799.66 407.11 796.48C408.73 793.3 409.54 789.61 409.54 785.41C409.54 781.21 408.73 777.55 407.11 774.43C405.49 771.25 403.24 768.82 400.36 767.14C397.48 765.46 394.15 764.62 390.37 764.62C386.59 764.62 383.23 765.46 380.29 767.14C377.41 768.82 375.16 771.25 373.54 774.43C371.92 777.55 371.11 781.21 371.11 785.41C371.11 789.61 371.92 793.3 373.54 796.48C375.16 799.66 377.41 802.12 380.29 803.86C383.23 805.54 386.59 806.38 390.37 806.38ZM444.474 774.88C446.094 772.24 448.194 770.17 450.774 768.67C453.414 767.17 456.414 766.42 459.774 766.42V779.65H456.444C452.484 779.65 449.484 780.58 447.444 782.44C445.464 784.3 444.474 787.54 444.474 792.16V817H431.874V767.14H444.474V774.88ZM474.651 761.2C472.431 761.2 470.571 760.51 469.071 759.13C467.631 757.69 466.911 755.92 466.911 753.82C466.911 751.72 467.631 749.98 469.071 748.6C470.571 747.16 472.431 746.44 474.651 746.44C476.871 746.44 478.701 747.16 480.141 748.6C481.641 749.98 482.391 751.72 482.391 753.82C482.391 755.92 481.641 757.69 480.141 759.13C478.701 760.51 476.871 761.2 474.651 761.2ZM480.861 767.14V817H468.261V767.14H480.861ZM539.66 790.99C539.66 792.79 539.54 794.41 539.3 795.85H502.85C503.15 799.45 504.41 802.27 506.63 804.31C508.85 806.35 511.58 807.37 514.82 807.37C519.5 807.37 522.83 805.36 524.81 801.34H538.4C536.96 806.14 534.2 810.1 530.12 813.22C526.04 816.28 521.03 817.81 515.09 817.81C510.29 817.81 505.97 816.76 502.13 814.66C498.35 812.5 495.38 809.47 493.22 805.57C491.12 801.67 490.07 797.17 490.07 792.07C490.07 786.91 491.12 782.38 493.22 778.48C495.32 774.58 498.26 771.58 502.04 769.48C505.82 767.38 510.17 766.33 515.09 766.33C519.83 766.33 524.06 767.35 527.78 769.39C531.56 771.43 534.47 774.34 536.51 778.12C538.61 781.84 539.66 786.13 539.66 790.99ZM526.61 787.39C526.55 784.15 525.38 781.57 523.1 779.65C520.82 777.67 518.03 776.68 514.73 776.68C511.61 776.68 508.97 777.64 506.81 779.56C504.71 781.42 503.42 784.03 502.94 787.39H526.61ZM576.486 766.42C582.426 766.42 587.226 768.31 590.886 772.09C594.546 775.81 596.376 781.03 596.376 787.75V817H583.776V789.46C583.776 785.5 582.786 782.47 580.806 780.37C578.826 778.21 576.126 777.13 572.706 777.13C569.226 777.13 566.466 778.21 564.426 780.37C562.446 782.47 561.456 785.5 561.456 789.46V817H548.856V767.14H561.456V773.35C563.136 771.19 565.266 769.51 567.846 768.31C570.486 767.05 573.366 766.42 576.486 766.42ZM627.438 817.81C623.358 817.81 619.698 817.09 616.458 815.65C613.218 814.15 610.638 812.14 608.718 809.62C606.858 807.1 605.838 804.31 605.658 801.25H618.348C618.588 803.17 619.518 804.76 621.138 806.02C622.818 807.28 624.888 807.91 627.348 807.91C629.748 807.91 631.608 807.43 632.928 806.47C634.308 805.51 634.998 804.28 634.998 802.78C634.998 801.16 634.158 799.96 632.478 799.18C630.858 798.34 628.248 797.44 624.648 796.48C620.928 795.58 617.868 794.65 615.468 793.69C613.128 792.73 611.088 791.26 609.348 789.28C607.668 787.3 606.828 784.63 606.828 781.27C606.828 778.51 607.608 775.99 609.168 773.71C610.788 771.43 613.068 769.63 616.008 768.31C619.008 766.99 622.518 766.33 626.538 766.33C632.478 766.33 637.218 767.83 640.758 770.83C644.298 773.77 646.248 777.76 646.608 782.8H634.548C634.368 780.82 633.528 779.26 632.028 778.12C630.588 776.92 628.638 776.32 626.178 776.32C623.898 776.32 622.128 776.74 620.868 777.58C619.668 778.42 619.068 779.59 619.068 781.09C619.068 782.77 619.908 784.06 621.588 784.96C623.268 785.8 625.878 786.67 629.418 787.57C633.018 788.47 635.988 789.4 638.328 790.36C640.668 791.32 642.678 792.82 644.358 794.86C646.098 796.84 646.998 799.48 647.058 802.78C647.058 805.66 646.248 808.24 644.628 810.52C643.068 812.8 640.788 814.6 637.788 815.92C634.848 817.18 631.398 817.81 627.438 817.81Z" fill="white"/>
<path d="M695.823 805.687C687.082 824.037 675.349 839.79 659.018 850.613C651.263 855.752 641.573 861.494 632.264 862.274" stroke="white" stroke-width="4" stroke-linecap="round"/>
<path d="M716.997 816.307C711.429 836.735 698.911 864.015 682.599 871.578" stroke="white" stroke-width="4" stroke-linecap="round"/>
<path d="M707.001 810.384C703.359 825.194 693.963 838.192 685.129 849.677C682.239 853.435 678.347 857.364 675.008 860.665C672.058 863.583 668.394 866.348 665.164 868.813C658.647 873.783 655.135 874.721 652.212 876.657" stroke="white" stroke-width="4" stroke-linecap="round"/>
<g opacity="0.03">
<path d="M760.857 543.296C779.503 522.841 838.342 475.913 791.012 452.351C721.508 417.722 658.791 369.352 607.835 310.669C591.892 292.332 576.355 271.266 575.213 247.001C573.509 211.762 602.416 182.696 631.855 163.126C689.142 125.241 755.586 105.143 821.777 89.1801C858.452 80.3681 877.836 84.911 863.102 44.9332C858.359 31.8974 847.783 -4.34344 827.827 0.41908C732.671 23.0476 637.5 48.5096 555.962 104.618C517.317 131.19 480.952 167.408 473.446 213.64C466.825 254.539 484.078 295.714 506.712 330.444C567.719 424.177 666.54 487.332 760.909 543.1L760.857 543.296Z" fill="white"/>
<path d="M780.898 320.288C757.554 280.047 771.182 228.542 811.336 205.249C851.491 181.955 902.966 195.694 926.31 235.935C949.654 276.176 936.026 327.681 895.871 350.974C855.717 374.268 804.241 360.529 780.898 320.288Z" fill="white"/>
<path d="M509.115 689.331C482.102 695.363 412.155 723.143 415.198 670.36C419.641 592.835 408.786 514.38 383.141 441.014C375.138 418.071 364.564 394.126 344.067 381.089C314.323 362.116 274.741 372.78 243.138 388.62C181.812 419.542 131.38 467.244 84.6648 516.778C58.8083 544.24 53.1294 563.322 25.74 530.686C16.7785 520.097 -9.43094 492.925 4.60961 477.966C71.4914 406.597 140.84 336.621 230.024 293.693C272.275 273.338 321.768 259.75 365.627 276.185C404.417 290.741 431.596 326.159 450.508 363.048C501.589 462.539 507.356 579.675 508.918 689.279L509.115 689.331Z" fill="white"/>
<path d="M160.289 680.302C136.946 640.061 150.574 588.556 190.728 565.262C230.883 541.969 282.358 555.707 305.702 595.948C329.046 636.189 315.418 687.694 275.263 710.988C235.109 734.282 183.633 720.543 160.289 680.302Z" fill="white"/>
</g>
<g opacity="0.03">
<path d="M581.21 1434.15C573.029 1407.71 539.723 1340.22 592.58 1339.02C670.212 1337.22 747.542 1320.1 818.612 1288.65C840.839 1278.83 863.858 1266.37 875.207 1244.89C891.73 1213.72 877.923 1175.12 859.597 1144.89C823.851 1086.25 772.254 1039.81 719.13 997.221C689.68 973.653 670.204 969.524 700.536 939.603C710.371 929.82 735.351 901.514 751.388 914.308C827.897 975.244 903.214 1038.75 953.164 1124.2C976.846 1164.68 994.363 1212.92 981.503 1257.96C970.108 1297.79 936.987 1327.73 901.735 1349.54C806.666 1408.44 690.371 1423.6 581.247 1433.95L581.21 1434.15Z" fill="white"/>
<path d="M657.879 1223.78C696.116 1197.28 705.677 1144.87 679.235 1106.72C652.793 1068.56 600.36 1059.11 562.123 1085.61C523.886 1112.11 514.325 1164.52 540.767 1202.68C567.209 1240.83 619.642 1250.28 657.879 1223.78Z" fill="white"/>
<path d="M746.985 1673.36C768.871 1690.3 820.372 1745.18 840.058 1696.12C868.995 1624.06 912.174 1557.66 966.576 1502.16C983.574 1484.79 1003.32 1467.61 1027.42 1464.53C1062.41 1460 1093.7 1486.48 1115.57 1514.25C1157.93 1568.31 1183.3 1632.93 1204.53 1697.62C1216.25 1733.47 1213.28 1753.16 1251.95 1735.26C1264.56 1729.49 1299.84 1716.04 1293.49 1696.53C1263.29 1603.5 1230.27 1510.68 1167.8 1433.91C1138.21 1397.52 1099.19 1364.18 1052.5 1360.41C1011.2 1357.09 971.547 1377.6 938.746 1402.95C850.214 1471.28 795.196 1574.85 747.185 1673.4L746.985 1673.36Z" fill="white"/>
<path d="M1066.56 1813.48C1104.79 1786.98 1114.35 1734.57 1087.91 1696.42C1061.47 1658.26 1009.04 1648.81 970.801 1675.31C932.564 1701.81 923.002 1754.22 949.445 1792.38C975.887 1830.53 1028.32 1839.98 1066.56 1813.48Z" fill="white"/>
</g>
</svg>
