<svg width="190" height="66" viewBox="0 0 190 66" fill="none" xmlns="http://www.w3.org/2000/svg">
<path d="M79.3793 0.037129H73.0277V26.0825H80.1399C83.0547 26.0825 84.5125 24.825 84.5133 22.3098V5.04079C84.5143 1.70328 82.803 0.0353961 79.3793 0.037129ZM80.8612 21.7681C80.8612 22.5424 80.3797 22.929 79.4167 22.9277H76.679V3.1912H79.2267C80.3166 3.1912 80.8616 3.82011 80.8616 5.07792V21.7662L80.8612 21.7681ZM102.33 0.037129H99.8176C97.0035 0.037129 95.5966 1.52455 95.5968 4.49939V21.6957C95.5968 24.622 97.0038 26.085 99.8176 26.0848H106.969V11.6356H101.769V14.7919H103.316V22.924H100.844C99.7801 22.924 99.2475 22.2956 99.2462 21.0388V5.07718C99.2462 3.82036 99.779 3.1917 100.844 3.1912H101.759C102.797 3.1912 103.316 3.81986 103.316 5.07718V7.40022H106.967V4.56735C106.968 1.5472 105.422 0.037129 102.33 0.037129ZM116.343 3.19343H119.842V26.0829H123.493V3.1912H126.992V0.034901H116.343L116.343 3.19343ZM136.086 0.037129H133.348C130.432 0.037129 128.974 1.52455 128.974 4.49939V26.0833H132.625V14.7923H136.809V26.0833H140.46V4.49754C140.46 1.52393 139.002 0.0365101 136.087 0.0352723L136.086 0.037129ZM136.809 11.6375H132.628V4.71588C132.628 3.70091 133.16 3.19343 134.224 3.19343H135.214C136.278 3.19343 136.81 3.70091 136.81 4.71588V11.6356L136.809 11.6375ZM147.805 0.037129H144.154V26.0829H151.42V22.9266H147.805V0.037129ZM88.2129 26.0829H91.8638V6.96613H88.2129V26.0829ZM91.8618 0.034901H88.2082V3.5202H91.8618V0.034901ZM110.559 26.0829H114.21V6.96613H110.559V26.0829ZM114.208 0.034901H110.554V3.5202H114.208V0.034901ZM189.935 32.3881C189.937 30.4502 189.495 28.5355 188.64 26.7775C187.785 25.0196 186.538 23.4608 184.987 22.2099C185.366 21.4931 185.587 20.7101 185.638 19.9089C185.688 19.1076 185.567 18.3049 185.281 17.5498C184.996 16.7948 184.552 16.1033 183.976 15.5176C183.4 14.932 182.706 14.4646 181.934 14.1439C182.307 12.7971 182.306 11.3809 181.931 10.0346C181.556 8.68841 180.819 7.4586 179.794 6.4663C178.77 5.47399 177.491 4.75342 176.086 4.37552C174.68 3.99763 173.196 3.97543 171.779 4.31113C171.079 2.79484 169.853 1.55432 168.308 0.797699C166.763 0.0410795 164.992 -0.185604 163.293 0.155681C161.593 0.496967 160.068 1.38545 158.974 2.67208C157.88 3.9587 157.283 5.56518 157.283 7.22198V58.1045C157.283 59.8352 157.934 61.5083 159.119 62.8192C160.303 64.1301 161.942 64.9917 163.736 65.2469C165.531 65.5022 167.362 65.1342 168.895 64.21C170.429 63.2858 171.564 61.8668 172.094 60.2114C173.45 60.5185 174.866 60.4915 176.208 60.1331C177.55 59.7746 178.775 59.0965 179.767 58.1624C180.759 57.2283 181.486 56.0688 181.879 54.7931C182.273 53.5174 182.319 52.1672 182.015 50.8695C182.791 50.5333 183.486 50.0479 184.057 49.4437C184.628 48.8395 185.061 48.1295 185.331 47.3581C185.601 46.5866 185.701 45.7704 185.625 44.9605C185.548 44.1505 185.298 43.3642 184.889 42.6509C186.469 41.3996 187.741 39.831 188.614 38.0571C189.486 36.2832 189.937 34.3475 189.935 32.3881Z" fill="#010101"/>
<path d="M79.3793 0.037129H73.0277V26.0825H80.1399C83.0547 26.0825 84.5125 24.825 84.5133 22.3098V5.04079C84.5143 1.70328 82.803 0.0353961 79.3793 0.037129ZM80.8612 21.7681C80.8612 22.5424 80.3797 22.929 79.4167 22.9277H76.679V3.1912H79.2267C80.3166 3.1912 80.8616 3.82011 80.8616 5.07792V21.7662L80.8612 21.7681ZM102.33 0.037129H99.8176C97.0035 0.037129 95.5966 1.52455 95.5968 4.49939V21.6957C95.5968 24.622 97.0038 26.085 99.8176 26.0848H106.969V11.6356H101.769V14.7919H103.316V22.924H100.844C99.7801 22.924 99.2475 22.2956 99.2462 21.0388V5.07718C99.2462 3.82036 99.779 3.1917 100.844 3.1912H101.759C102.797 3.1912 103.316 3.81986 103.316 5.07718V7.40022H106.967V4.56735C106.968 1.5472 105.422 0.037129 102.33 0.037129ZM116.343 3.19343H119.842V26.0829H123.493V3.1912H126.992V0.034901H116.343L116.343 3.19343ZM136.086 0.037129H133.348C130.432 0.037129 128.974 1.52455 128.974 4.49939V26.0833H132.625V14.7923H136.809V26.0833H140.46V4.49754C140.46 1.52393 139.002 0.0365101 136.087 0.0352723L136.086 0.037129ZM136.809 11.6375H132.628V4.71588C132.628 3.70091 133.16 3.19343 134.224 3.19343H135.214C136.278 3.19343 136.81 3.70091 136.81 4.71588V11.6356L136.809 11.6375ZM147.805 0.037129H144.154V26.0829H151.42V22.9266H147.805V0.037129ZM88.2129 26.0829H91.8638V6.96613H88.2129V26.0829ZM91.8618 0.034901H88.2082V3.5202H91.8618V0.034901ZM110.559 26.0829H114.21V6.96613H110.559V26.0829ZM114.208 0.034901H110.554V3.5202H114.208V0.034901ZM189.935 32.3881C189.937 30.4502 189.495 28.5355 188.64 26.7775C187.785 25.0196 186.538 23.4608 184.987 22.2099C185.366 21.4931 185.587 20.7101 185.638 19.9089C185.688 19.1076 185.567 18.3049 185.281 17.5498C184.996 16.7948 184.552 16.1033 183.976 15.5176C183.4 14.932 182.706 14.4646 181.934 14.1439C182.307 12.7971 182.306 11.3809 181.931 10.0346C181.556 8.68841 180.819 7.4586 179.794 6.4663C178.77 5.47399 177.491 4.75342 176.086 4.37552C174.68 3.99763 173.196 3.97543 171.779 4.31113C171.079 2.79484 169.853 1.55432 168.308 0.797699C166.763 0.0410795 164.992 -0.185604 163.293 0.155681C161.593 0.496967 160.068 1.38545 158.974 2.67208C157.88 3.9587 157.283 5.56518 157.283 7.22198V58.1045C157.283 59.8352 157.934 61.5083 159.119 62.8192C160.303 64.1301 161.942 64.9917 163.736 65.2469C165.531 65.5022 167.362 65.1342 168.895 64.21C170.429 63.2858 171.564 61.8668 172.094 60.2114C173.45 60.5185 174.866 60.4915 176.208 60.1331C177.55 59.7746 178.775 59.0965 179.767 58.1624C180.759 57.2283 181.486 56.0688 181.879 54.7931C182.273 53.5174 182.319 52.1672 182.015 50.8695C182.791 50.5333 183.486 50.0479 184.057 49.4437C184.628 48.8395 185.061 48.1295 185.331 47.3581C185.601 46.5866 185.701 45.7704 185.625 44.9605C185.548 44.1505 185.298 43.3642 184.889 42.6509C186.469 41.3996 187.741 39.831 188.614 38.0571C189.486 36.2832 189.937 34.3475 189.935 32.3881Z" fill="black" fill-opacity="0.2"/>
<path d="M48.7161 30.7565H45.6799C41.801 30.7565 39.8619 32.7345 39.8627 36.6907V43.7831C39.8396 44.5257 39.9423 45.267 40.1667 45.9784C40.3517 46.5164 40.6936 46.993 41.1523 47.3523C41.8439 47.8482 42.5806 48.284 43.3536 48.6545L47.9575 51.1172C48.4187 51.3746 48.8585 51.6653 49.2732 51.9868C49.5418 52.2096 49.6772 52.6452 49.6772 53.2865V59.1739C49.6772 60.5248 49.0365 61.2001 47.755 61.1999H46.8955C45.4449 61.1999 44.7198 60.5245 44.7203 59.1736V57.2909H39.8647V59.0284C39.8647 63.2741 41.8037 65.3972 45.6818 65.3974H48.6659C52.5775 65.3974 54.5333 63.4516 54.5333 59.5601V52.1792C54.5333 50.9575 54.4154 50.1291 54.1795 49.6939C53.9416 49.2587 53.6047 48.8797 53.1935 48.5847C52.5037 48.1185 51.7859 47.6913 51.0436 47.3055L46.4393 44.9412C45.9785 44.6851 45.5392 44.395 45.1256 44.0738C44.8554 43.8488 44.7203 43.4147 44.7203 42.7716V37.0278C44.7203 35.6448 45.4115 34.9535 46.794 34.954H47.5538C48.9694 34.954 49.6774 35.6453 49.6776 37.0278V40.5759H54.5337V36.6907C54.5337 32.7343 52.5943 30.7562 48.7161 30.7565ZM68.2993 30.7565H65.163C61.2833 30.7565 59.344 32.7183 59.345 36.642V59.5133C59.345 63.4373 61.2843 65.3994 65.163 65.3996H68.2977C72.1761 65.3996 74.1151 63.4374 74.1149 59.513V57.2931H69.2604V59.1747C69.2604 60.5261 68.6195 61.2016 67.3378 61.2014H66.1248C64.8428 61.2014 64.2021 60.5258 64.2026 59.1747V36.9807C64.2026 35.6293 64.8434 34.9538 66.1248 34.9543H67.0851C68.535 34.9543 69.26 35.6298 69.26 36.9807V40.5492H74.116V36.6424C74.116 32.7184 72.1771 30.7562 68.2993 30.7565ZM89.6633 46.0266H83.6919V30.7576H78.839V65.4H83.6919V50.2238H89.6633V65.3996H94.5182V30.7576H89.6633V46.0266ZM109.768 30.7565H105.115C101.237 30.7565 99.2982 32.7345 99.298 36.6907V59.513C99.298 63.4377 101.254 65.3995 105.166 65.3985H109.717C113.628 65.3985 115.584 63.4367 115.585 59.513V36.6911C115.585 32.7347 113.646 30.7562 109.768 30.7565ZM110.73 59.1758C110.73 60.5269 110.089 61.2019 108.808 61.2006H106.329C104.878 61.2006 104.153 60.5257 104.153 59.1758V36.9803C104.153 35.6302 104.861 34.9546 106.277 34.9536H108.554C110.003 34.9536 110.728 35.6292 110.729 36.9803L110.73 59.1758ZM131.056 30.7565H126.404C122.526 30.7565 120.587 32.7345 120.586 36.6907V59.513C120.586 63.4377 122.542 65.3995 126.455 65.3985H131.005C134.917 65.3985 136.873 63.4367 136.873 59.513V36.6911C136.873 32.7347 134.934 30.7562 131.056 30.7565ZM132.018 59.1758C132.018 60.5269 131.377 61.2019 130.095 61.2006H127.617C126.166 61.2006 125.441 60.5257 125.441 59.1758V36.9803C125.441 35.6302 126.15 34.9546 127.567 34.9536H129.844C131.292 34.9536 132.017 35.6292 132.018 36.9803V59.1758ZM146.601 61.2014V30.7576H141.746V65.4H151.466V61.2018H146.6L146.601 61.2014ZM47.2591 13.0708L43.0878 0.034905H39.8534V26.0829H43.5043V10.108L45.6219 16.3058H48.9189L51.0354 10.108V26.0829H54.6851V0.034905H51.0354L47.2591 13.0708ZM60.4747 26.0822H64.0761V17.2156L68.4873 0.034905H65.2564L62.275 13.0708L59.1586 0.034905H55.9374L60.4747 17.2152V26.0822ZM25.0827 9.54907e-09C23.4608 0.000327299 21.8818 0.497497 20.5783 1.41829C19.2748 2.33908 18.3158 3.63482 17.8424 5.11469C16.4861 4.80747 15.0702 4.83429 13.7278 5.19264C12.3853 5.55099 11.1605 6.22909 10.1683 7.1632C9.17616 8.09731 8.44932 9.25675 8.05609 10.5325C7.66287 11.8083 7.61619 13.1585 7.92044 14.4562C7.14447 14.7926 6.44959 15.2781 5.87923 15.8823C5.30887 16.4865 4.87529 17.1965 4.6056 17.9678C4.33591 18.7391 4.2359 19.5552 4.31183 20.365C4.38776 21.1749 4.63799 21.9611 5.04689 22.6745C3.47591 23.9197 2.20997 25.4781 1.33807 27.2401C0.466176 29.0021 0.00949666 30.9249 0.000146539 32.8733C-0.00920358 34.8217 0.429002 36.7484 1.28395 38.518C2.1389 40.2875 3.38983 41.8569 4.94879 43.1158C4.57026 43.8326 4.34896 44.6155 4.29844 45.4167C4.24791 46.2178 4.36922 47.0204 4.65495 47.7753C4.94068 48.5302 5.38481 49.2216 5.96021 49.8072C6.5356 50.3928 7.23016 50.8603 8.00141 51.1811C7.62828 52.5279 7.62934 53.9443 8.00446 55.2906C8.37959 56.6369 9.11585 57.8669 10.1407 58.8593C11.1656 59.8517 12.4438 60.5723 13.8494 60.9502C15.255 61.3282 16.7396 61.3504 18.1569 61.0146C18.8569 62.5308 20.0821 63.7713 21.6272 64.5279C23.1723 65.2846 24.9431 65.5113 26.6426 65.1701C28.3422 64.8289 29.867 63.9406 30.9613 62.6541C32.0556 61.3676 32.6528 59.7612 32.6528 58.1045V7.22124C32.6528 6.27292 32.457 5.33388 32.0766 4.45773C31.6962 3.58159 31.1386 2.78551 30.4357 2.11494C29.7327 1.44438 28.8982 0.912469 27.9797 0.549585C27.0612 0.186701 26.0768 -4.87586e-05 25.0827 9.54907e-09Z" fill="#010101"/>
<path d="M48.7161 30.7565H45.6799C41.801 30.7565 39.8619 32.7345 39.8627 36.6907V43.7831C39.8396 44.5257 39.9423 45.267 40.1667 45.9784C40.3517 46.5164 40.6936 46.993 41.1523 47.3523C41.8439 47.8482 42.5806 48.284 43.3536 48.6545L47.9575 51.1172C48.4187 51.3746 48.8585 51.6653 49.2732 51.9868C49.5418 52.2096 49.6772 52.6452 49.6772 53.2865V59.1739C49.6772 60.5248 49.0365 61.2001 47.755 61.1999H46.8955C45.4449 61.1999 44.7198 60.5245 44.7203 59.1736V57.2909H39.8647V59.0284C39.8647 63.2741 41.8037 65.3972 45.6818 65.3974H48.6659C52.5775 65.3974 54.5333 63.4516 54.5333 59.5601V52.1792C54.5333 50.9575 54.4154 50.1291 54.1795 49.6939C53.9416 49.2587 53.6047 48.8797 53.1935 48.5847C52.5037 48.1185 51.7859 47.6913 51.0436 47.3055L46.4393 44.9412C45.9785 44.6851 45.5392 44.395 45.1256 44.0738C44.8554 43.8488 44.7203 43.4147 44.7203 42.7716V37.0278C44.7203 35.6448 45.4115 34.9535 46.794 34.954H47.5538C48.9694 34.954 49.6774 35.6453 49.6776 37.0278V40.5759H54.5337V36.6907C54.5337 32.7343 52.5943 30.7562 48.7161 30.7565ZM68.2993 30.7565H65.163C61.2833 30.7565 59.344 32.7183 59.345 36.642V59.5133C59.345 63.4373 61.2843 65.3994 65.163 65.3996H68.2977C72.1761 65.3996 74.1151 63.4374 74.1149 59.513V57.2931H69.2604V59.1747C69.2604 60.5261 68.6195 61.2016 67.3378 61.2014H66.1248C64.8428 61.2014 64.2021 60.5258 64.2026 59.1747V36.9807C64.2026 35.6293 64.8434 34.9538 66.1248 34.9543H67.0851C68.535 34.9543 69.26 35.6298 69.26 36.9807V40.5492H74.116V36.6424C74.116 32.7184 72.1771 30.7562 68.2993 30.7565ZM89.6633 46.0266H83.6919V30.7576H78.839V65.4H83.6919V50.2238H89.6633V65.3996H94.5182V30.7576H89.6633V46.0266ZM109.768 30.7565H105.115C101.237 30.7565 99.2982 32.7345 99.298 36.6907V59.513C99.298 63.4377 101.254 65.3995 105.166 65.3985H109.717C113.628 65.3985 115.584 63.4367 115.585 59.513V36.6911C115.585 32.7347 113.646 30.7562 109.768 30.7565ZM110.73 59.1758C110.73 60.5269 110.089 61.2019 108.808 61.2006H106.329C104.878 61.2006 104.153 60.5257 104.153 59.1758V36.9803C104.153 35.6302 104.861 34.9546 106.277 34.9536H108.554C110.003 34.9536 110.728 35.6292 110.729 36.9803L110.73 59.1758ZM131.056 30.7565H126.404C122.526 30.7565 120.587 32.7345 120.586 36.6907V59.513C120.586 63.4377 122.542 65.3995 126.455 65.3985H131.005C134.917 65.3985 136.873 63.4367 136.873 59.513V36.6911C136.873 32.7347 134.934 30.7562 131.056 30.7565ZM132.018 59.1758C132.018 60.5269 131.377 61.2019 130.095 61.2006H127.617C126.166 61.2006 125.441 60.5257 125.441 59.1758V36.9803C125.441 35.6302 126.15 34.9546 127.567 34.9536H129.844C131.292 34.9536 132.017 35.6292 132.018 36.9803V59.1758ZM146.601 61.2014V30.7576H141.746V65.4H151.466V61.2018H146.6L146.601 61.2014ZM47.2591 13.0708L43.0878 0.034905H39.8534V26.0829H43.5043V10.108L45.6219 16.3058H48.9189L51.0354 10.108V26.0829H54.6851V0.034905H51.0354L47.2591 13.0708ZM60.4747 26.0822H64.0761V17.2156L68.4873 0.034905H65.2564L62.275 13.0708L59.1586 0.034905H55.9374L60.4747 17.2152V26.0822ZM25.0827 9.54907e-09C23.4608 0.000327299 21.8818 0.497497 20.5783 1.41829C19.2748 2.33908 18.3158 3.63482 17.8424 5.11469C16.4861 4.80747 15.0702 4.83429 13.7278 5.19264C12.3853 5.55099 11.1605 6.22909 10.1683 7.1632C9.17616 8.09731 8.44932 9.25675 8.05609 10.5325C7.66287 11.8083 7.61619 13.1585 7.92044 14.4562C7.14447 14.7926 6.44959 15.2781 5.87923 15.8823C5.30887 16.4865 4.87529 17.1965 4.6056 17.9678C4.33591 18.7391 4.2359 19.5552 4.31183 20.365C4.38776 21.1749 4.63799 21.9611 5.04689 22.6745C3.47591 23.9197 2.20997 25.4781 1.33807 27.2401C0.466176 29.0021 0.00949666 30.9249 0.000146539 32.8733C-0.00920358 34.8217 0.429002 36.7484 1.28395 38.518C2.1389 40.2875 3.38983 41.8569 4.94879 43.1158C4.57026 43.8326 4.34896 44.6155 4.29844 45.4167C4.24791 46.2178 4.36922 47.0204 4.65495 47.7753C4.94068 48.5302 5.38481 49.2216 5.96021 49.8072C6.5356 50.3928 7.23016 50.8603 8.00141 51.1811C7.62828 52.5279 7.62934 53.9443 8.00446 55.2906C8.37959 56.6369 9.11585 57.8669 10.1407 58.8593C11.1656 59.8517 12.4438 60.5723 13.8494 60.9502C15.255 61.3282 16.7396 61.3504 18.1569 61.0146C18.8569 62.5308 20.0821 63.7713 21.6272 64.5279C23.1723 65.2846 24.9431 65.5113 26.6426 65.1701C28.3422 64.8289 29.867 63.9406 30.9613 62.6541C32.0556 61.3676 32.6528 59.7612 32.6528 58.1045V7.22124C32.6528 6.27292 32.457 5.33388 32.0766 4.45773C31.6962 3.58159 31.1386 2.78551 30.4357 2.11494C29.7327 1.44438 28.8982 0.912469 27.9797 0.549585C27.0612 0.186701 26.0768 -4.87586e-05 25.0827 9.54907e-09Z" fill="black" fill-opacity="0.2"/>
</svg>
